<?xml version="1.0" standalone="no"?>
<!DOCTYPE svg PUBLIC "-//W3C//DTD SVG 1.1//EN" "http://www.w3.org/Graphics/SVG/1.1/DTD/svg11.dtd" >
<svg xmlns="http://www.w3.org/2000/svg" xmlns:xlink="http://www.w3.org/1999/xlink" version="1.1">
<metadata></metadata>
<defs>
<font id="elektra_light_probold" horiz-adv-x="999" >
<font-face units-per-em="2048" ascent="1638" descent="-410" />
<missing-glyph horiz-adv-x="451" />
<glyph unicode="&#xfb00;" horiz-adv-x="1166" d="M892 911v-46h281v-184h-281v-681h-211v681h-317v-681h-211v681h-145v184h145v51q0 74 18.5 130t49.5 90.5t76.5 56.5t93 30t105.5 8q166 0 292 -50q73 50 206 50q130 0 240 -37l-47 -167q-74 24 -157 24q-67 0 -102.5 -31.5t-35.5 -108.5zM364 905v-40h317v58 q0 65 15 104q-85 24 -161 24q-89 0 -130 -31t-41 -115z" />
<glyph unicode="&#xfb01;" horiz-adv-x="1009" d="M892 865v-865h-211v681h-317v-681h-211v681h-145v184h145v51q0 75 20 130.5t54 90.5t87 56.5t111.5 29.5t133.5 8q173 0 322 -53l-50 -165q-111 38 -244 38q-44 0 -76 -3.5t-61 -13t-47 -25.5t-28.5 -42t-10.5 -62v-40h528z" />
<glyph unicode="&#xfb02;" horiz-adv-x="1017" d="M892 1178v-935q0 -63 14.5 -111.5t52.5 -92.5q-32 -13 -94 -39l-93 -39q-46 51 -68.5 116t-22.5 158v797q-77 19 -146 19q-41 0 -70.5 -6t-53.5 -21.5t-35.5 -45t-11.5 -73.5v-40h229v-184h-229v-681h-211v681h-145v184h145v51q0 63 12.5 112.5t37.5 83.5t58 57.5t78 37 t93 19t107 5.5q177 0 353 -53z" />
<glyph unicode="&#xfb03;" horiz-adv-x="1537" d="M1421 865v-865h-211v681h-318v-681h-211v681h-317v-681h-211v681h-145v184h145v51q0 75 18.5 131.5t49.5 90.5t77 55.5t94 29.5t108 8q142 0 303 -58q96 58 285 58q173 0 321 -53l-49 -165q-111 38 -245 38q-44 0 -76 -3.5t-61 -13t-47 -25.5t-28.5 -42t-10.5 -62v-40 h529zM364 905v-40h317v51q0 63 18 109q-81 26 -164 26q-89 0 -130 -31t-41 -115z" />
<glyph unicode="&#xfb04;" horiz-adv-x="1547" d="M1421 1178v-935q0 -63 14.5 -111.5t51.5 -92.5l-93 -39l-93 -39q-46 51 -68.5 116t-22.5 158v797q-78 19 -146 19q-41 0 -70.5 -6.5t-53.5 -22t-36 -45t-12 -72.5v-40h230v-184h-230v-681h-211v681h-317v-681h-211v681h-145v184h145v51q0 75 18.5 131.5t49.5 90.5 t77 55.5t94 29.5t108 8q156 0 299 -57q91 57 268 57t354 -53zM681 916q0 65 18 109q-90 26 -164 26q-95 0 -133 -35.5t-38 -128.5v-22h317v51z" />
<glyph unicode="Th" horiz-adv-x="1840" d="M1731 498v-498h-211v481q0 68 -11 112t-34.5 67t-53.5 32t-76 9q-69 0 -117.5 -20.5t-48.5 -56.5v-624h-210v991h-338v-991h-227v991h-399v193h1174v-353q47 24 111.5 42t127.5 18q64 0 110.5 -10t86.5 -35.5t64 -69.5t38 -113t14 -165z" />
<glyph unicode="ffk" horiz-adv-x="2029" d="M2031 0h-250q-295 428 -360 457v-457h-211v1032q-78 19 -146 19q-41 0 -70.5 -6.5t-53.5 -22t-36 -45t-12 -72.5v-40h230v-184h-230v-681h-211v681h-317v-681h-211v681h-145v184h145v51q0 75 18.5 131t49.5 90.5t77 55.5t93.5 28.5t106.5 7.5q169 0 301 -55q91 57 268 57 q192 0 354 -53v-721q37 31 125 137t210 271h248q-114 -156 -202.5 -259.5t-127.5 -133.5q36 -22 131.5 -146t225.5 -326zM681 916q0 65 18 109q-90 26 -164 26q-93 0 -132 -27t-39 -103v-56h317v51z" />
<glyph unicode="fk" horiz-adv-x="1500" d="M892 0h-211v1032q-77 19 -146 19q-84 0 -127.5 -31.5t-43.5 -114.5v-40h229v-184h-229v-681h-211v681h-145v184h145v51q0 63 12.5 112.5t37.5 83.5t58 57.5t78 37t93 19t107 5.5q192 0 353 -53v-1178zM1502 0h-250q-295 428 -360 457q38 31 125.5 137t210.5 271h248 q-115 -156 -203.5 -259.5t-127.5 -133.5q37 -22 132 -146t225 -326z" />
<glyph unicode="fj" horiz-adv-x="1009" d="M892 865v-886q0 -174 -88.5 -253.5t-268.5 -70.5v175q38 0 64 6.5t45.5 23t28 45t8.5 71.5v705h-317v-681h-211v681h-145v184h145v51q0 75 20 130.5t54 90.5t87 56.5t111.5 29.5t133.5 8q173 0 322 -53l-50 -165q-111 38 -244 38q-44 0 -76 -3.5t-61 -13t-47 -25.5 t-28.5 -42t-10.5 -62v-40h528z" />
<glyph horiz-adv-x="0" />
<glyph horiz-adv-x="682" />
<glyph unicode=" "  horiz-adv-x="451" />
<glyph unicode="&#x09;" horiz-adv-x="451" />
<glyph unicode="&#xa0;" horiz-adv-x="451" />
<glyph unicode="!" horiz-adv-x="563" d="M151 1184h261l-53 -805h-155zM282 243q42 0 65.5 -4t41 -16.5t23.5 -35.5t6 -63q0 -81 -28 -106.5t-108 -25.5q-77 0 -105 25.5t-28 106.5q0 40 6.5 63t23.5 35.5t40 16.5t63 4z" />
<glyph unicode="&#x22;" horiz-adv-x="628" d="M76 1184h191l-32 -407h-140zM367 1184h186l-33 -407h-137z" />
<glyph unicode="#" horiz-adv-x="1210" d="M68 740l12 170h219l17 274h197l-18 -274h235l18 274h196l-18 -274h234l-13 -170h-232l-18 -271h237l-12 -169h-235l-20 -300h-196l19 300h-234l-19 -300h-197l20 300h-218l13 169h216l16 271h-219zM485 740l-19 -271h235l18 271h-234z" />
<glyph unicode="$" horiz-adv-x="1056" d="M452 1403h150v-235q191 -3 321 -46l-49 -187q-40 16 -117.5 27t-154.5 12v-291q176 -25 261.5 -103t85.5 -223q0 -164 -85 -244.5t-262 -99.5v-246h-150v241q-205 3 -332 44l50 190q46 -17 125 -28t157 -13v305q-173 20 -260 90.5t-87 209.5q0 162 86.5 247.5 t260.5 106.5v243zM315 829q0 -58 28.5 -85.5t108.5 -39.5v263q-70 -11 -103.5 -44.5t-33.5 -93.5zM740 345q0 61 -29.5 93t-108.5 47v-277q69 11 103.5 43.5t34.5 93.5z" />
<glyph unicode="%" horiz-adv-x="1630" d="M1076 1184h199l-730 -1184h-196zM368.5 1213q85.5 0 141.5 -16.5t95 -59.5t56 -116t17 -186q0 -114 -17 -189.5t-56 -121t-95.5 -64t-140.5 -18.5q-68 0 -117 11.5t-86.5 39t-60.5 73.5t-34 112t-11 157q0 113 16.5 186t56 116t95 59.5t141 16.5zM369 593q37 0 59.5 9.5 t37 37t20 73t5.5 120.5q0 61 -3.5 101t-11.5 66.5t-23.5 40t-34.5 18.5t-49 5q-51 0 -75.5 -16t-36.5 -65.5t-12 -149.5q0 -75 6 -121t21 -73t37.5 -36.5t59.5 -9.5zM1261.5 746q85.5 0 141.5 -17t95 -60t55.5 -115.5t16.5 -184.5q0 -115 -17 -190.5t-55.5 -120.5t-95 -63.5 t-141 -18.5t-141 18.5t-95.5 63.5t-56 120.5t-17 190.5q0 112 17 185t56 115.5t95 59.5t141.5 17zM1262 126q49 0 74 19t36.5 70t11.5 152q0 100 -11.5 148.5t-36 65t-74.5 16.5q-25 0 -42 -3t-32 -12.5t-24 -25t-15.5 -41.5t-9 -62t-2.5 -86q0 -100 12 -151.5t37.5 -70.5 t75.5 -19z" />
<glyph unicode="&#x26;" horiz-adv-x="1352" d="M1294 673q0 -109 -42.5 -215t-119.5 -197q49 -62 184 -261h-255q-53 85 -83 128q-108 -80 -209 -116t-237 -36q-124 0 -206.5 16.5t-137.5 55.5t-79 102.5t-24 159.5q0 139 77 218.5t241 86.5q-45 4 -80.5 13t-60.5 22.5t-43 33.5t-28.5 41.5t-16.5 50.5t-8 57t-2 64 q0 81 19.5 137t65.5 98t126.5 61.5t198.5 19.5q155 0 245 -31.5t128.5 -95t38.5 -170.5q0 -61 -13 -107.5t-43 -85t-84 -61t-132 -28.5q59 -5 127.5 -55t156.5 -159q69 116 69 253h227zM532 160q107 0 179 26.5t151 92.5q-95 129 -171.5 192t-148.5 63q-115 0 -167 -45 t-52 -147q0 -103 44 -142.5t165 -39.5zM564 709q98 0 146.5 38.5t48.5 126.5q0 86 -41.5 119.5t-143.5 33.5t-143.5 -32.5t-41.5 -118.5q0 -91 40 -129t135 -38z" />
<glyph unicode="'" horiz-adv-x="342" d="M76 1184h191l-32 -407h-140z" />
<glyph unicode="(" horiz-adv-x="514" d="M115 423q0 132 13 245.5t38 201.5t58 159t76 123.5t89.5 89t100.5 60.5l97 -158q-44 -21 -79 -54t-67.5 -90.5t-54.5 -134.5t-34.5 -189.5t-12.5 -252.5q0 -88 5 -165t14.5 -139.5t22.5 -115.5t30 -94.5t36.5 -74.5t42.5 -58t46.5 -42.5t50.5 -30.5l-97 -159 q-65 30 -119.5 76t-102.5 119.5t-81 168.5t-52.5 226.5t-19.5 288.5z" />
<glyph unicode=")" horiz-adv-x="514" d="M399 423.5q0 -157.5 -19 -289t-52 -226.5t-81 -168.5t-102 -119.5t-119 -76l-99 159q36 17 66.5 43t59 66t50.5 96.5t38.5 129.5t25 170.5t8.5 214.5t-8.5 214.5t-25 170.5t-38.5 129.5t-50.5 96.5t-59 66t-66.5 44l99 158q65 -29 119 -75t102 -119.5t81 -168.5 t52 -226.5t19 -289z" />
<glyph unicode="*" horiz-adv-x="839" d="M51 814v170h220l-111 192l151 86l109 -191l109 191l151 -86l-112 -192h220v-170h-220l110 -192l-149 -83l-109 186l-109 -186l-151 85l111 190h-220z" />
<glyph unicode="+" horiz-adv-x="988" d="M81 515v200h312v313h202v-313h313v-200h-313v-312h-202v312h-312z" />
<glyph unicode="," horiz-adv-x="483" d="M401 175l-195 -446h-189l132 446h252z" />
<glyph unicode="-" horiz-adv-x="516" d="M49 378v200h418v-200h-418z" />
<glyph unicode="." horiz-adv-x="483" d="M240 243q42 0 65.5 -4t41 -16.5t23.5 -35.5t6 -63q0 -81 -28 -106.5t-108 -25.5q-77 0 -104 25.5t-27 106.5q0 40 6 63t23 35.5t39.5 16.5t62.5 4z" />
<glyph unicode="/" horiz-adv-x="793" d="M631 1184h227l-605 -1184h-227z" />
<glyph unicode="0" horiz-adv-x="1064" d="M532 1213q92 0 159.5 -16.5t123.5 -58t91 -110t53.5 -173t18.5 -247.5q0 -145 -18.5 -252.5t-53 -180t-90 -117t-124.5 -63.5t-160 -19t-159.5 19t-124 63.5t-90.5 117t-53.5 180t-18.5 252.5q0 143 19 247.5t53.5 173t90.5 110t123.5 58t159.5 16.5zM532 178 q46 0 77.5 7t57.5 26t42 48.5t26.5 79t14.5 114t4 155.5q0 79 -3 136t-9.5 101.5t-19.5 73.5t-28.5 48.5t-41 29.5t-53 14t-67.5 4t-67 -4t-52 -14t-40.5 -29.5t-28.5 -48.5t-19.5 -73.5t-10 -101.5t-3.5 -136q0 -91 4 -155.5t15 -114t26.5 -79t41.5 -48.5t57.5 -26t76.5 -7 z" />
<glyph unicode="1" horiz-adv-x="1064" d="M697 0h-220v945l-265 -114l-63 184l548 219v-1234z" />
<glyph unicode="2" horiz-adv-x="1064" d="M173 965l-47 195q78 24 178 38.5t199 14.5q115 0 193.5 -16t135.5 -55t83.5 -107t26.5 -170q0 -64 -7.5 -110.5t-31 -97t-59.5 -94t-102 -102t-149 -119.5t-209 -149h556v-193h-860v180q120 92 196 150.5t148.5 118t112 94t75.5 73.5t50.5 61.5t26 54t13.5 55t2 60.5 q0 95 -48.5 130t-170.5 35q-79 0 -169 -13.5t-143 -33.5z" />
<glyph unicode="3" horiz-adv-x="1064" d="M328 527v190h163q110 0 154.5 33t44.5 119q0 56 -20.5 86t-75 44t-159.5 14q-72 0 -158.5 -10.5t-138.5 -26.5l-44 193q200 44 383 44q170 0 268.5 -31.5t139.5 -96t41 -174.5q0 -50 -6 -88t-22.5 -73.5t-44 -59.5t-73 -40.5t-107.5 -22.5q82 -3 137.5 -26t85.5 -65 t42 -93.5t12 -122.5q0 -97 -26.5 -162.5t-85.5 -106t-147 -58t-217 -17.5q-91 0 -198.5 12t-190.5 31l43 193q55 -15 141 -24.5t161 -9.5q114 0 173.5 17.5t81.5 52.5t22 102q0 100 -47.5 138.5t-163.5 38.5h-168z" />
<glyph unicode="4" horiz-adv-x="1056" d="M621 305h-592v69q110 197 252 427.5t254 382.5h300v-694h158v-185h-158v-305h-214v305zM621 490v501q-77 -102 -169.5 -248.5t-151.5 -252.5h321z" />
<glyph unicode="5" horiz-adv-x="1064" d="M164 1184h733v-193h-521v-263q88 7 141 7q126 0 209 -20t133.5 -66t71.5 -114t21 -170q0 -113 -24.5 -187.5t-82 -119.5t-143 -63.5t-216.5 -18.5q-85 0 -194 12.5t-183 30.5l44 193q18 -5 40.5 -10t47 -8.5t51 -6.5t52.5 -5t51.5 -3t48.5 -1q84 0 134 8t80 29t40.5 52.5 t10.5 86.5q0 47 -6 76.5t-21 53.5t-44.5 36t-73 18t-110.5 6q-167 0 -290 -24v664z" />
<glyph unicode="6" horiz-adv-x="1064" d="M955 1168l-49 -198q-31 12 -76 21t-97.5 14t-105.5 5q-58 0 -100 -6.5t-80 -25t-61.5 -51t-38 -85.5t-16.5 -127q112 20 225 20q126 0 209.5 -20.5t134.5 -66t72.5 -113.5t21.5 -170q0 -114 -23 -188t-78 -119t-136.5 -63.5t-207.5 -18.5q-86 0 -150.5 12.5t-117 42 t-87.5 76.5t-58 117.5t-33.5 162.5t-10.5 215q0 122 12.5 213.5t41 160t69.5 114t103 73t136 39t173 11.5q79 0 169 -12.5t159 -32.5zM549 178q66 0 106.5 9t64 31t31.5 53t8 83q0 53 -8 86.5t-31.5 58t-65 35t-107.5 10.5q-106 0 -219 -17q1 -88 11 -149.5t26 -100.5 t44 -61t60.5 -30t79.5 -8z" />
<glyph unicode="7" horiz-adv-x="1064" d="M1023 1184v-67q-117 -188 -274 -529t-239 -588h-254q48 130 106 270t120 274.5t126.5 253t116.5 193.5h-611v193h909z" />
<glyph unicode="8" horiz-adv-x="1064" d="M532 160q122 0 167.5 39.5t45.5 142.5q0 104 -48 148t-165 44t-164 -44t-47 -148q0 -103 45 -142.5t166 -39.5zM532 709q103 0 147.5 38.5t44.5 128.5q0 59 -19 91.5t-59.5 46t-113.5 13.5t-114 -13.5t-60 -46t-19 -91.5q0 -90 45 -128.5t148 -38.5zM532 -24 q-243 0 -344.5 77.5t-101.5 266.5q0 71 12 122.5t42 93.5t85.5 65t138.5 26q-63 6 -108 22.5t-72.5 40.5t-44 60t-22 73.5t-5.5 87.5q0 81 19.5 135.5t67 93t129 56t204.5 17.5t204.5 -17.5t129 -56t67 -93t19.5 -135.5q0 -41 -4 -73.5t-14 -64.5t-28 -55.5t-45.5 -42.5 t-67.5 -31t-92 -17q82 -3 137.5 -26t85.5 -65t42 -93.5t12 -122.5q0 -190 -101 -267t-345 -77z" />
<glyph unicode="9" horiz-adv-x="1064" d="M290 0q285 269 383 464q-68 -8 -148 -8q-101 0 -173.5 12t-124.5 37t-82.5 68t-44.5 100.5t-14 139.5q0 114 23.5 189.5t77.5 123t137 67.5t208 20q92 0 158 -7.5t118 -27t84.5 -49.5t53.5 -77t29.5 -106.5t8.5 -141.5q0 -98 -22.5 -193t-58.5 -173.5t-92 -159 t-112.5 -144.5t-129.5 -134h-279zM549 646q99 0 184 12q15 59 15 122q0 52 -4.5 89t-15.5 63.5t-26 42t-41.5 24.5t-55.5 11.5t-73 2.5q-65 0 -106.5 -10.5t-64.5 -35.5t-31.5 -58.5t-8.5 -85.5q0 -39 3.5 -64.5t13.5 -46.5t25.5 -33t42.5 -20t60.5 -10.5t82.5 -2.5z" />
<glyph unicode=":" horiz-adv-x="483" d="M240 243q42 0 65.5 -4t41 -16.5t23.5 -35.5t6 -63q0 -81 -28 -106.5t-108 -25.5q-77 0 -104 25.5t-27 106.5q0 40 6 63t23 35.5t39.5 16.5t62.5 4zM240 876q42 0 65.5 -4t41 -17.5t23.5 -37t6 -63.5q0 -42 -6 -67t-23.5 -39.5t-41.5 -19t-65 -4.5q-32 0 -52 3t-36.5 10.5 t-25 22.5t-13 37.5t-4.5 56.5q0 32 4.5 53.5t13 35t25 21t36.5 10t52 2.5z" />
<glyph unicode=";" horiz-adv-x="483" d="M401 175l-195 -446h-189l132 446h252zM240 876q42 0 65.5 -4t41 -17.5t23.5 -37t6 -63.5q0 -42 -6 -67t-23.5 -39.5t-41.5 -19t-65 -4.5q-32 0 -52 3t-36.5 10.5t-25 22.5t-13 37.5t-4.5 56.5q0 32 4.5 53.5t13 35t25 21t36.5 10t52 2.5z" />
<glyph unicode="&#x3c;" horiz-adv-x="988" d="M876 998l-456 -383l456 -386l-111 -153l-622 485v104l619 482z" />
<glyph unicode="=" horiz-adv-x="988" d="M81 286v200h827v-200h-827zM81 740v200h827v-200h-827z" />
<glyph unicode="&#x3e;" horiz-adv-x="988" d="M144 227l456 383l-456 388l111 151l621 -484v-104l-620 -483z" />
<glyph unicode="?" horiz-adv-x="837" d="M399 243q42 0 65.5 -4t41 -16.5t23.5 -35.5t6 -63q0 -42 -6 -67.5t-23 -39.5t-41 -19t-66 -5q-39 0 -62 5t-39.5 19t-22.5 39.5t-6 67.5q0 40 6 63t22.5 35.5t39 16.5t62.5 4zM510 365h-221q133 143 192 254t59 243q0 74 -45.5 111t-160.5 37q-152 0 -242 -36l-46 197 q56 18 146.5 30t161.5 12q233 0 336 -84t103 -258q0 -71 -19 -136t-57.5 -127.5t-88 -119.5t-118.5 -123z" />
<glyph unicode="@" horiz-adv-x="1596" d="M730 897q-60 0 -105 -2.5t-87.5 -9t-73 -18.5t-58 -29t-45.5 -42t-33 -57t-23 -74.5t-12 -93.5t-4 -115q0 -98 9 -166.5t33.5 -121.5t60.5 -85t95.5 -52.5t132.5 -28t178 -7.5q103 0 177.5 9.5t134.5 33t97 61t62 96.5t35 135t10 181q0 220 -37 318h191q34 -113 34 -324 q0 -114 -13 -205t-39.5 -162.5t-69 -125t-98 -90.5t-129.5 -60t-160 -33.5t-194 -10.5q-109 0 -195.5 9t-161.5 29.5t-130 54t-97.5 82.5t-69 115.5t-40 151.5t-13.5 192q0 93 10.5 169.5t32 137t52 108t72 82t89.5 58.5t108 38.5t124.5 20.5t141.5 6q83 0 141 -6.5 t109.5 -25.5t84 -52t56 -86t33.5 -126.5t10 -175.5q0 -96 -7 -164t-26.5 -118t-46 -79.5t-71.5 -47t-97 -23.5t-129 -6q-102 0 -165.5 12.5t-106 46t-59 87.5t-16.5 141q0 60 7 104t24.5 75.5t41 51.5t61 31.5t80 15.5t102.5 4q130 0 212 -17q-1 107 -49 145t-181 38z M801 581q-51 0 -79 -4t-49 -17.5t-28.5 -37.5t-7.5 -66q0 -80 33.5 -106.5t132.5 -26.5q89 0 123 34t34 133v79q-61 12 -159 12z" />
<glyph unicode="A" horiz-adv-x="1158" d="M944 0q-80 197 -115 295h-518q-43 -133 -92 -295h-234q82 262 200.5 589t227.5 595h352q93 -294 211.5 -623.5t215.5 -560.5h-248zM600 994h-46q-83 -212 -184 -506h395q-93 267 -165 506z" />
<glyph unicode="B" horiz-adv-x="1210" d="M374 188h374q40 0 65.5 20t37 56.5t11.5 90.5q0 175 -121 175h-367v-342zM374 994v-282h364q102 0 102 143q0 73 -23 106t-79 33h-364zM831 627q48 -2 86 -10.5t66.5 -22.5t49.5 -34.5t34 -44.5t21.5 -55t11.5 -63.5t3 -71.5q0 -170 -78.5 -247.5t-226.5 -77.5h-649v1184 h638q86 0 144.5 -19t89.5 -58t43.5 -88t12.5 -118q0 -51 -5 -87.5t-20.5 -70.5t-42 -56.5t-71.5 -38t-107 -21.5z" />
<glyph unicode="C" horiz-adv-x="1005" d="M90 603q0 121 15 213.5t46.5 160.5t75.5 113.5t108 72.5t138.5 38.5t172.5 11.5q81 0 176 -12t164 -32l-50 -197q-45 16 -117.5 27t-133.5 11q-52 0 -89.5 -2.5t-74.5 -10t-62 -20.5t-48 -34.5t-37 -51.5t-25 -72t-15 -95.5t-4 -122t4 -122.5t14.5 -96.5t25 -73.5 t37 -53.5t48 -36.5t62 -22.5t74.5 -11.5t90 -3q61 0 133.5 10.5t117.5 26.5l50 -200q-69 -19 -163.5 -31t-176.5 -12q-97 0 -172.5 13t-139 42.5t-108 77t-75.5 117.5t-46 163.5t-15 213.5z" />
<glyph unicode="D" horiz-adv-x="1250" d="M149 1184h453q97 0 172 -11.5t139.5 -38t109.5 -71t76.5 -109.5t46.5 -153.5t15 -203.5q0 -137 -22.5 -238.5t-65.5 -170t-112.5 -110.5t-156 -60t-202.5 -18h-453v1184zM921 595q0 89 -6.5 151t-24 107t-41.5 71t-65.5 41.5t-87.5 20.5t-117 5h-205v-798h205 q69 0 117 6.5t88 24t64.5 45.5t42 73.5t24 106.5t6.5 146z" />
<glyph unicode="E" horiz-adv-x="1053" d="M149 1184h861v-193h-636v-274h454v-192h-454v-332h636v-193h-861v1184z" />
<glyph unicode="F" horiz-adv-x="992" d="M149 1184h844v-193h-619v-334h454v-193h-454v-464h-225v1184z" />
<glyph unicode="G" horiz-adv-x="1189" d="M838 198v305h-259v189h488v-665q-71 -22 -193 -36.5t-228 -14.5q-97 0 -172.5 13t-139 42.5t-108 77t-75.5 117.5t-46 163.5t-15 214t16.5 213.5t51 160t82 113t115 73t145.5 38.5t178 11.5q82 0 185.5 -12.5t171.5 -31.5l-46 -195q-29 11 -85.5 19.5t-111.5 12.5t-96 4 q-48 0 -84 -2t-71 -7.5t-60 -15.5t-48.5 -25.5t-39 -38t-28.5 -52.5t-20.5 -69.5t-11 -88t-3.5 -109.5q0 -69 4 -123t14.5 -96.5t25 -74t37 -54t48 -37t62 -23t75 -11.5t89.5 -3q78 0 153 18z" />
<glyph unicode="H" horiz-adv-x="1250" d="M374 525v-525h-225v1184h225v-451h507v451h220v-1184h-220v525h-507z" />
<glyph unicode="I" horiz-adv-x="522" d="M149 1184h225v-1184h-225v1184z" />
<glyph unicode="J" horiz-adv-x="783" d="M637 1184l2 -858q0 -82 -20.5 -144.5t-54 -101t-81.5 -62.5t-97 -33t-107 -9q-142 0 -269 46l45 200q90 -35 201 -35q72 0 114 37.5t42 130.5v829h225z" />
<glyph unicode="K" horiz-adv-x="1124" d="M374 1184v-1184h-225v1184h225zM1147 0h-275q-164 271 -300.5 436.5t-195.5 189.5q62 44 190 195t272 363h272q-149 -209 -271 -354t-176 -189q56 -38 190.5 -208t293.5 -433z" />
<glyph unicode="L" horiz-adv-x="936" d="M149 1184h225v-988h559v-196h-784v1184z" />
<glyph unicode="M" horiz-adv-x="1556" d="M788 427q138 364 329 757h291v-1184h-219v882q-144 -317 -331 -773h-175q-226 572 -318 773v-882h-216v1184h307q170 -351 332 -757z" />
<glyph unicode="N" horiz-adv-x="1315" d="M1164 1184v-1184h-273q-247 455 -522 892v-892h-220v1184h295q260 -408 498 -854v854h222z" />
<glyph unicode="O" horiz-adv-x="1308" d="M654 1213q83 0 149.5 -8.5t126 -28t104 -51.5t80 -79.5t57.5 -111t34 -146t12 -185.5q0 -146 -23 -253t-66.5 -179t-113.5 -115.5t-156.5 -61.5t-203.5 -18t-204 18t-157 61.5t-113.5 115.5t-66.5 179t-23 253q0 120 15.5 212.5t48 160t77.5 113.5t110 73.5t140.5 39 t172.5 11.5zM654 178q68 0 114.5 6.5t85 24.5t61 46.5t38 77t21 112t5.5 155.5q0 69 -3 121t-11 94.5t-19.5 72.5t-31.5 52.5t-42.5 35.5t-57 21.5t-71.5 11.5t-89 3q-69 0 -114.5 -5.5t-84.5 -22t-61 -44t-37.5 -75t-21 -110.5t-5.5 -155t5.5 -155.5t21 -112t37.5 -77 t60.5 -46.5t85 -24.5t114.5 -6.5z" />
<glyph unicode="P" horiz-adv-x="1143" d="M374 578h330q71 0 108.5 51t37.5 151q0 214 -141 214h-335v-416zM374 0h-225v1184h618q329 0 329 -405q0 -79 -19 -147.5t-57 -123t-102 -86t-146 -31.5h-398v-391z" />
<glyph unicode="Q" horiz-adv-x="1330" d="M665 1213q83 0 149.5 -8.5t126 -28t104.5 -51.5t80.5 -79.5t58 -111t34 -146t11.5 -185.5q0 -185 -38 -307t-109.5 -185.5t-184.5 -84.5q120 -34 352 -352h-261q-94 143 -179.5 219t-146.5 83q-117 0 -203 18.5t-155.5 62t-112.5 116t-66 179t-23 251.5q0 120 15.5 212.5 t47.5 160t77 113.5t110 73.5t140.5 39t172.5 11.5zM665 178q51 0 89 3.5t72 12.5t57 23.5t42.5 38t31.5 54t20 74t11 95.5t3 121q0 92 -5.5 155t-21.5 110.5t-38 75t-61 44t-84.5 22t-115.5 5.5q-69 0 -114.5 -5.5t-84.5 -22t-60.5 -43.5t-37 -75t-21 -111t-5.5 -155 t5.5 -155.5t21 -112t37.5 -77t60 -46.5t84 -24.5t115 -6.5z" />
<glyph unicode="R" horiz-adv-x="1199" d="M374 994v-357h335q32 0 57.5 11t43.5 32.5t27.5 54.5t9.5 76q0 91 -35 137t-98 46h-340zM785 515q61 -21 150.5 -138t245.5 -377h-276q-137 239 -226 345.5t-147 106.5h-158v-452h-225v1184h618q46 0 85.5 -6.5t71 -20t57.5 -32t44.5 -42t32.5 -51t22 -59t12 -64.5t4 -69 q0 -67 -15.5 -122t-50.5 -100.5t-97 -72.5t-148 -30z" />
<glyph unicode="S" horiz-adv-x="1056" d="M950 1161l-49 -194q-34 12 -84 22t-110.5 15.5t-118.5 5.5q-143 0 -205 -35t-62 -120q0 -29 6.5 -49t23 -37.5t46 -29t74.5 -20.5t110 -15q209 -22 303.5 -105.5t94.5 -249.5q0 -104 -31 -176t-97 -115.5t-159 -62.5t-225 -19q-98 0 -197 14.5t-171 38.5l49 193 q57 -18 144 -30t172 -12q73 0 122.5 7.5t84.5 25.5t51 48t16 76q0 36 -10.5 60.5t-39 46.5t-83 36t-138.5 21q-101 10 -170.5 31.5t-118.5 59.5t-72 96t-23 140q0 204 125 294.5t380 90.5q96 0 193 -14t169 -38z" />
<glyph unicode="T" horiz-adv-x="1035" d="M631 0h-227v991h-399v193h1025v-193h-399v-991z" />
<glyph unicode="U" horiz-adv-x="1260" d="M1127 1184l2 -825q0 -92 -23 -159.5t-63 -110t-104 -68t-137 -35.5t-171 -10t-171.5 10t-137.5 35.5t-104 68t-62.5 110t-22.5 159.5v825h226v-791q0 -119 60 -165t212 -46q75 0 124 9.5t84 33t50.5 64.5t15.5 104v791h222z" />
<glyph unicode="V" horiz-adv-x="1101" d="M-32 1184h248q83 -201 179.5 -471.5t158.5 -485.5q166 408 327 957h236q-80 -262 -200 -588.5t-234 -595.5h-287q-91 297 -209.5 627t-218.5 557z" />
<glyph unicode="W" horiz-adv-x="1656" d="M838 813q-63 -310 -217 -813h-284q-189 757 -340 1184h245q139 -418 254 -905q176 581 239 905h207q181 -644 232 -905q140 436 247 905h232q-65 -264 -160 -591t-184 -593h-286q-65 351 -185 813z" />
<glyph unicode="X" horiz-adv-x="1145" d="M287 1184q145 -185 298 -391q154 215 272 391h275q-152 -223 -410 -581q320 -444 428 -603h-278q-155 224 -289 410q-11 -13 -53.5 -70t-57 -75.5t-49.5 -65t-55 -72.5t-47.5 -61.5t-51.5 -65.5h-276q168 209 453 598q-274 368 -446 586h287z" />
<glyph unicode="Y" horiz-adv-x="1083" d="M227 1184q163 -204 331 -451q201 272 313 451h271q-230 -345 -477 -673v-511h-225v510q-301 427 -505 674h292z" />
<glyph unicode="Z" horiz-adv-x="1054" d="M29 0v55q144 195 328 461.5t321 474.5h-612v193h961v-50q-138 -221 -329 -500t-320 -441h637v-193h-986z" />
<glyph unicode="[" horiz-adv-x="579" d="M153 1283h459v-183h-239v-1360h239v-182h-459v1725z" />
<glyph unicode="\" horiz-adv-x="793" d="M-49 1184h227l606 -1184h-228z" />
<glyph unicode="]" horiz-adv-x="579" d="M-32 1283h459v-1725h-459v182h240v1360h-240v183z" />
<glyph unicode="^" horiz-adv-x="902" d="M652 503l-205 452l-202 -452h-223l327 681h202l330 -681h-229z" />
<glyph unicode="_" horiz-adv-x="798" d="M49 -282v201h700v-201h-700z" />
<glyph unicode="`" horiz-adv-x="817" d="M590 965h-187l-245 219h225z" />
<glyph unicode="a" horiz-adv-x="951" d="M840 554v-510q-80 -31 -189 -49.5t-202 -18.5q-106 0 -173.5 13t-112 47t-62.5 88.5t-18 140.5q0 72 16.5 123.5t44 82.5t73 48.5t93 23.5t113.5 6q97 0 214 -24q0 60 -8 94t-32.5 56.5t-65 30.5t-109.5 8q-144 0 -262 -43l-40 174q172 46 346 46q99 0 167 -16.5 t115.5 -55t69.5 -103.5t22 -162zM637 167v216q-71 15 -171 15q-49 0 -76 -4t-48.5 -17t-29 -37.5t-7.5 -65.5q0 -45 6 -71t25.5 -41t48 -19.5t79.5 -4.5q88 0 173 29z" />
<glyph unicode="b" d="M328 624v-447q70 -28 168 -28q48 0 78.5 6.5t56 23.5t38.5 49.5t20 82t7 124.5q0 108 -19 166t-60 81.5t-117 23.5q-73 0 -122.5 -22.5t-49.5 -59.5zM117 39v1189h211v-395q40 25 98.5 41.5t126.5 16.5q93 0 157.5 -22t111 -73.5t68 -139t21.5 -218.5q0 -133 -24 -222 t-76.5 -142t-128 -75.5t-186.5 -22.5q-95 0 -202 17.5t-177 45.5z" />
<glyph unicode="c" horiz-adv-x="798" d="M731 201l48 -180q-50 -20 -125.5 -32.5t-138.5 -12.5q-81 0 -145.5 13.5t-118.5 46.5t-89.5 85t-55.5 131.5t-20 184.5q0 104 20 182.5t55.5 130t90 83t118.5 45t145 13.5q31 0 67.5 -3t71.5 -8.5t68 -13t57 -16.5l-48 -180q-98 37 -201 37q-49 0 -82 -5.5t-62.5 -22 t-46 -46.5t-25.5 -79t-9 -121q0 -85 13 -139t43 -83.5t69 -40t100 -10.5q102 0 201 41z" />
<glyph unicode="d" d="M670 182v447q0 25 -23 44t-61.5 29t-85.5 10q-76 0 -117 -24t-59.5 -83t-18.5 -168q0 -72 6.5 -120.5t19.5 -80.5t38 -49.5t56 -24t78 -6.5q91 0 167 26zM881 1228v-1189q-70 -28 -177 -45.5t-201 -17.5q-88 0 -153 13.5t-116.5 45t-83 84.5t-48 130.5t-16.5 183.5 q0 129 25.5 219t76.5 141.5t117.5 74.5t156.5 23q121 0 208 -49v386h211z" />
<glyph unicode="e" horiz-adv-x="937" d="M775 190l34 -166q-63 -21 -149 -34.5t-154 -13.5q-78 0 -140 13.5t-115.5 46.5t-89 85t-55.5 131.5t-20 184.5q0 127 27 216.5t81 141t126 74t170 22.5q71 0 124 -9t98 -31t74.5 -59.5t49.5 -94.5t27 -135.5t4 -183.5h-559q1 -69 14 -113t42.5 -68.5t68.5 -33.5t99 -9 q48 0 121 10.5t122 25.5zM501 724q-100 0 -140.5 -39.5t-50.5 -145.5h363q-3 76 -21.5 116t-52.5 54.5t-98 14.5z" />
<glyph unicode="f" horiz-adv-x="639" d="M364 911v-46h280v-184h-280v-681h-211v681h-145v184h145v58q0 73 16.5 128t44.5 89t69.5 55t85.5 28.5t98 7.5q128 0 239 -37l-48 -167q-74 24 -157 24q-67 0 -102 -31t-35 -109z" />
<glyph unicode="g" d="M670 243v445q-75 29 -167 29q-48 0 -78.5 -6t-55.5 -23t-38 -49.5t-19.5 -82.5t-6.5 -124q0 -110 18 -167t58.5 -80t116.5 -23q73 0 122.5 21.5t49.5 59.5zM670 36q-92 -57 -219 -57q-74 0 -130 13t-101.5 44.5t-74 83t-44 128.5t-15.5 182q0 132 24.5 221t77.5 142 t128.5 75.5t186.5 22.5q95 0 201.5 -18t176.5 -47v-760q0 -99 -22.5 -172.5t-61 -119t-98.5 -73t-126.5 -38t-154.5 -10.5q-73 0 -160.5 15t-143.5 37l42 169q131 -42 261 -42q128 0 190.5 44.5t62.5 159.5z" />
<glyph unicode="h" horiz-adv-x="990" d="M566 891q64 0 110.5 -10t86.5 -35.5t64.5 -69.5t38 -113t13.5 -165v-498h-211v481q0 56 -8 95t-27.5 68t-53.5 43t-84 14q-70 0 -118.5 -20.5t-48.5 -56.5v-624h-211v1228h211v-397q47 24 112 42t126 18z" />
<glyph unicode="i" horiz-adv-x="444" d="M328 865v-865h-211v865h211zM224 1226q72 0 96.5 -19t24.5 -85q0 -73 -24.5 -95.5t-96.5 -22.5t-97 22.5t-25 95.5q0 66 24.5 85t97.5 19z" />
<glyph unicode="j" horiz-adv-x="444" d="M-27 -345v175q37 0 62.5 6.5t44.5 23t28 45t9 71.5v889h211v-884q0 -95 -21.5 -159t-68 -100.5t-110 -51.5t-155.5 -15zM224 1226q72 0 96.5 -19t24.5 -85q0 -73 -24.5 -95.5t-96.5 -22.5t-97 22.5t-25 95.5q0 66 24.5 85t97.5 19z" />
<glyph unicode="k" horiz-adv-x="936" d="M938 0h-248q-296 428 -362 457v-457h-211v1228h211v-771q37 31 125 137t210 271h250q-116 -156 -205 -259.5t-127 -133.5q37 -23 133 -147t224 -325z" />
<glyph unicode="l" horiz-adv-x="454" d="M328 1228v-985q0 -42 6.5 -76t21 -65t38.5 -63l-185 -80q-46 53 -69 118.5t-23 157.5v993h211z" />
<glyph unicode="m" horiz-adv-x="1497" d="M328 680v-680h-211v816q84 32 192.5 53.5t207.5 21.5q147 0 221 -58q158 58 308 58q93 0 155.5 -20t104.5 -67.5t60.5 -125.5t18.5 -195v-483h-211v461q0 49 -3 84t-11 63t-20 45t-32 28t-45.5 15.5t-61.5 4.5q-86 0 -168 -25q24 -78 24 -193v-483h-211v461 q0 74 -7.5 118.5t-27.5 72.5t-52.5 38.5t-86.5 10.5q-69 0 -144 -21z" />
<glyph unicode="n" horiz-adv-x="990" d="M328 680v-680h-211v816q82 32 196 53.5t214 21.5q75 0 130.5 -13t98.5 -41.5t69.5 -75.5t40 -116t13.5 -162v-483h-211v461q0 74 -7.5 118.5t-29 72.5t-56 38.5t-92.5 10.5q-76 0 -155 -21z" />
<glyph unicode="o" d="M498 -24q-85 0 -149 14t-115 46t-82.5 85t-48.5 131.5t-17 184.5q0 131 25.5 219.5t79 140t127 73t180.5 21.5q108 0 182.5 -21.5t128.5 -73t79 -140t25 -219.5q0 -133 -25 -222.5t-78.5 -142t-128.5 -74.5t-183 -22zM498 720q-47 0 -77 -6t-54.5 -23t-37 -50 t-18.5 -82.5t-6 -125.5q0 -73 6 -122t19 -82.5t36.5 -51t54 -24.5t77.5 -7q34 0 58.5 3.5t46.5 11.5t36.5 22.5t26 36t17.5 52t9.5 70t3.5 91.5q0 63 -4 107.5t-14 77.5t-24 52t-38 31t-51 15.5t-67 3.5z" />
<glyph unicode="p" d="M328 683v-445q0 -24 23 -43.5t61.5 -30t85.5 -10.5q76 0 117.5 24.5t61 83t19.5 166.5q0 73 -7 121.5t-20 80.5t-38 49t-56 23.5t-79 6.5q-100 0 -168 -26zM117 -326v1152q69 29 176 47t203 18q89 0 153.5 -14t116 -45.5t82.5 -84.5t47 -130.5t16 -183.5 q0 -104 -17 -182.5t-48 -130.5t-78.5 -84.5t-104 -46t-128.5 -13.5q-109 0 -207 50v-352h-211z" />
<glyph unicode="q" d="M670 243v445q-75 29 -167 29q-48 0 -78.5 -6t-55.5 -23t-38 -49.5t-19.5 -82.5t-6.5 -124q0 -110 18 -167t58.5 -80t116.5 -23q73 0 122.5 21.5t49.5 59.5zM881 826v-1152h-211v360q-95 -58 -224 -58q-94 0 -158.5 21.5t-111 73t-68.5 140t-22 219.5q0 132 24.5 221 t77.5 142t128.5 75.5t186.5 22.5q95 0 201.5 -18t176.5 -47z" />
<glyph unicode="r" horiz-adv-x="644" d="M117 0v865h211v-64q58 90 221 90q42 0 88 -5v-201q-57 12 -110 12q-83 0 -141 -26t-58 -71v-600h-211z" />
<glyph unicode="s" horiz-adv-x="834" d="M738 843l-46 -165q-123 41 -252 41q-44 0 -69 -3t-47 -13t-31 -30.5t-9 -54.5q0 -45 36.5 -64t141.5 -29q161 -17 231.5 -75t70.5 -185q0 -82 -26.5 -139.5t-77.5 -89.5t-116 -46t-151 -14q-73 0 -162 12.5t-148 33.5l45 166q23 -8 54.5 -15.5t65 -13t69.5 -8.5t67 -3 q47 0 76 3.5t52 15t32.5 32.5t9.5 54q0 32 -14.5 51.5t-55.5 32.5t-115 20q-75 6 -126.5 20t-90.5 41.5t-57.5 73t-18.5 111.5t18 116t49.5 82.5t79 52.5t102 28.5t122.5 8.5q69 0 147.5 -13t143.5 -35z" />
<glyph unicode="t" horiz-adv-x="704" d="M660 681h-287v-371q0 -83 27.5 -117.5t102.5 -34.5q71 0 148 24l37 -167q-107 -39 -237 -39q-77 0 -127.5 13t-89 47.5t-55.5 96.5t-17 157v391h-145v184h145v147l211 86v-233h287v-184z" />
<glyph unicode="u" horiz-adv-x="990" d="M663 187v678h211v-816q-84 -32 -197 -53.5t-213 -21.5q-94 0 -158 20t-108.5 67.5t-65 126t-20.5 195.5v482h211v-461q0 -74 7.5 -118.5t29 -72.5t55.5 -38t91 -10q84 0 157 22z" />
<glyph unicode="v" horiz-adv-x="868" d="M433 212q142 378 214 653h215q-116 -392 -311 -865h-261q-142 506 -290 865h219q113 -287 214 -653z" />
<glyph unicode="w" horiz-adv-x="1410" d="M706 579q-30 -131 -77.5 -294.5t-89.5 -284.5h-260q-132 477 -279 865h222q110 -292 198 -649q44 127 101.5 328.5t85.5 320.5h206q40 -122 91.5 -313t83.5 -336q138 383 201 649h214q-122 -439 -297 -865h-261q-25 131 -67 304t-72 275z" />
<glyph unicode="x" horiz-adv-x="885" d="M877 0h-238q-61 103 -182 274q-112 -153 -212 -274h-235q139 161 337 432q-187 261 -335 433h251q93 -114 199 -265q76 104 179 265h235q-124 -185 -298 -427q181 -254 299 -438z" />
<glyph unicode="y" horiz-adv-x="868" d="M306 -42q-137 500 -306 907h219q115 -286 214 -656q145 383 214 656h215q-123 -420 -328 -901q-69 -163 -135 -290h-234q66 118 141 284z" />
<glyph unicode="z" horiz-adv-x="844" d="M60 865h746v-42q-88 -143 -222 -334.5t-224 -305.5h433v-183h-762v42q119 151 252 340t200 299h-423v184z" />
<glyph unicode="{" horiz-adv-x="574" d="M52 337v173q32 0 58.5 9t51 33t41.5 61.5t27 98t10 140.5q0 358 279 452l99 -159q-35 -12 -60.5 -27.5t-48 -42.5t-36 -65t-21.5 -94.5t-8 -131.5q0 -77 -10.5 -139t-26 -100t-36.5 -65t-39.5 -39t-37.5 -18q19 -5 37.5 -17.5t39.5 -40t36.5 -66t26 -100.5t10.5 -139 q0 -94 10.5 -158t34.5 -104t53.5 -62t75.5 -39l-99 -156q-279 94 -279 454q0 66 -7 119.5t-19.5 90.5t-29.5 63t-38.5 41t-44 21.5t-49.5 6.5z" />
<glyph unicode="|" horiz-adv-x="629" d="M204 1283h223v-1718h-223v1718z" />
<glyph unicode="}" horiz-adv-x="574" d="M522 337q-32 0 -58.5 -9t-51 -33t-41 -62t-27 -98.5t-10.5 -139.5q0 -359 -278 -452q-17 26 -50 79t-50 79q45 16 74.5 38t54 62t35.5 104.5t11 157.5q0 64 7 118t19.5 91t27 65t32.5 45.5t33 27t31 13.5q-20 6 -38 18.5t-39 40t-36.5 65.5t-26 100.5t-10.5 139.5 q0 93 -11 157t-34.5 104t-53.5 61.5t-76 37.5q17 26 50 78.5t50 78.5q278 -93 278 -452q0 -67 7 -120t20 -90t29.5 -63.5t38.5 -41t44.5 -21t48.5 -6.5v-173z" />
<glyph unicode="~" horiz-adv-x="988" d="M792 756l136 -107q-32 -86 -100 -140.5t-160 -54.5q-43 0 -98 23t-98 50t-92.5 50t-84.5 23q-32 0 -58 -23t-50 -79l-122 117q47 81 102 123t130 42q49 0 107 -22t101 -48.5t91 -48.5t80 -22q40 0 66 25.5t50 91.5z" />
<glyph unicode="&#xa1;" horiz-adv-x="563" d="M415 -303h-262l55 806h152zM282 639q-27 0 -45.5 1.5t-34.5 6.5t-25.5 12.5t-16.5 21t-9.5 32t-2.5 45.5q0 82 27.5 107.5t106.5 25.5q77 0 105 -26t28 -107q0 -39 -6.5 -62.5t-23.5 -36t-40 -16.5t-63 -4z" />
<glyph unicode="&#xa2;" horiz-adv-x="777" d="M415 1277h166v-177q106 -9 183 -36l-49 -167q-55 25 -134 28v-558q78 6 134 31l49 -163q-71 -32 -183 -42v-205h-166v205q-79 11 -137.5 40t-102.5 82t-66.5 137t-22.5 199q0 113 23 195.5t67 134t102.5 79t136.5 36.5v181zM289 646q0 -120 30.5 -178t95.5 -77v511 q-66 -17 -96 -74.5t-30 -181.5z" />
<glyph unicode="&#xa3;" horiz-adv-x="1036" d="M61 498v178h101v135q0 203 114 302t360 99q97 0 194 -14t168 -38l-49 -193q-25 8 -60.5 15.5t-76.5 13t-87 9t-89 3.5q-71 0 -119 -10.5t-77 -33.5t-41.5 -57t-12.5 -83v-148h334v-178h-334v-305h576v-193h-800v498h-101z" />
<glyph unicode="&#xa4;" horiz-adv-x="1145" d="M581 141q-111 0 -177 29l-135 -170l-177 128l135 175q-57 102 -57 300q0 184 52 286l-130 173l194 122l118 -157q66 29 177 29q110 0 173 -26l104 154l194 -120l-116 -165q60 -104 60 -296q0 -193 -60 -300l126 -175l-190 -128l-119 167q-74 -26 -172 -26zM581 876 q-40 0 -66.5 -3.5t-51 -13.5t-39 -28.5t-25.5 -49.5t-15.5 -75.5t-4.5 -107.5q0 -60 4.5 -103t15.5 -74t25.5 -50.5t38.5 -30.5t51.5 -15t66.5 -4q48 0 79.5 6t57.5 23t40 48.5t21.5 79.5t7.5 120q0 63 -4.5 107.5t-16 75.5t-25.5 49.5t-39.5 28.5t-52.5 13.5t-68 3.5z" />
<glyph unicode="&#xa5;" horiz-adv-x="1083" d="M138 472v157h217q-236 331 -420 555h292q163 -204 331 -451q201 272 313 451h271q-175 -264 -391 -555h204v-157h-290v-132h290v-157h-290v-183h-225v183h-302v157h302v132h-302z" />
<glyph unicode="&#xa6;" horiz-adv-x="629" d="M204 1283h223v-623h-223v623zM204 188h223v-623h-223v623z" />
<glyph unicode="&#xa7;" horiz-adv-x="1056" d="M936 1163l-45 -184q-49 18 -132.5 29.5t-166.5 11.5q-136 0 -197.5 -35t-61.5 -114q0 -44 19.5 -69.5t74.5 -42.5t158 -26q204 -21 305 -97.5t101 -227.5q0 -106 -78 -202q61 -67 61 -184q0 -367 -500 -367q-91 0 -184.5 14t-160.5 37l46 184q47 -18 130.5 -29.5 t168.5 -11.5q137 0 198 34.5t61 113.5q0 44 -19 69.5t-73.5 43t-157.5 26.5q-204 20 -305.5 96.5t-101.5 226.5q0 115 73 207q-55 66 -55 179q0 368 499 368q92 0 184.5 -13.5t158.5 -36.5zM331 568q-31 -39 -31 -97q0 -46 23 -72.5t85 -44t179 -28.5q80 -4 148 -27 q30 39 30 97q0 46 -22 73t-84 44.5t-179 26.5q-99 9 -149 28z" />
<glyph unicode="&#xa8;" horiz-adv-x="785" d="M203 1158q59 0 80.5 -17.5t21.5 -76.5q0 -65 -21.5 -85t-80.5 -20q-31 0 -48.5 3.5t-30.5 15t-17.5 32t-4.5 54.5q0 59 20.5 76.5t80.5 17.5zM566 1158q59 0 79.5 -17.5t20.5 -76.5q0 -65 -20.5 -85t-79.5 -20q-61 0 -81.5 19.5t-20.5 85.5q0 59 20.5 76.5t81.5 17.5z " />
<glyph unicode="&#xa9;" horiz-adv-x="1422" d="M710 1213q105 0 186 -11.5t151 -39t119.5 -73.5t85 -113.5t52.5 -160t17 -212.5q0 -104 -13 -188.5t-37.5 -149.5t-63.5 -114t-87.5 -82.5t-112.5 -54t-136 -29.5t-161 -9q-103 0 -184.5 12.5t-151.5 41t-119 76.5t-84 117t-52 164t-17 216q0 120 17 212.5t52 160 t84.5 113.5t119.5 73.5t151 39t184 11.5zM710 133q83 0 141.5 7t108.5 26.5t80.5 52t53 85.5t31.5 125.5t9 172.5q0 149 -20.5 237.5t-75 137.5t-128 64.5t-200.5 15.5q-83 0 -140 -6t-107.5 -24t-80.5 -49.5t-52.5 -82.5t-31.5 -122.5t-9 -170.5q0 -100 9 -172.5t31 -125.5 t53 -85.5t80.5 -52t107.5 -26.5t140 -7zM931 418l39 -151q-102 -38 -221 -38q-94 0 -157.5 16.5t-109.5 57.5t-67 113.5t-21 183.5q0 89 14.5 152.5t41 104.5t71 65t98.5 33.5t130 9.5q126 0 221 -32l-39 -153q-72 28 -172 28q-51 0 -81 -7.5t-52 -29.5t-30.5 -63t-8.5 -110 q0 -86 17 -131.5t52.5 -62t102.5 -16.5q101 0 172 30z" />
<glyph unicode="&#xaa;" horiz-adv-x="738" d="M637 981v-366q-56 -21 -135 -34t-145 -13q-146 0 -200.5 42t-54.5 162q0 51 11.5 87.5t31 58t51.5 34t65 16.5t79 4q77 0 150 -17q0 42 -6.5 66.5t-24 39.5t-45.5 20t-75 5q-101 0 -185 -27l-25 122q134 32 241 32q140 0 203.5 -51t63.5 -181zM490 702v151 q-46 12 -120 12q-60 0 -86 -16.5t-26 -69.5q0 -56 23 -77t88 -21q60 0 121 21z" />
<glyph unicode="&#xab;" horiz-adv-x="1135" d="M626 881l-300 -347l300 -354l-120 -128l-460 478l459 474zM1090 881l-300 -347l300 -354l-120 -128l-460 478l459 474z" />
<glyph unicode="&#xac;" horiz-adv-x="881" d="M826 0h-223v529h-554v199h777v-728z" />
<glyph unicode="&#xad;" horiz-adv-x="516" d="M49 378v200h418v-200h-418z" />
<glyph unicode="&#xae;" horiz-adv-x="970" d="M699 871q0 -51 -14.5 -81.5t-39 -42.5t-62.5 -12q74 -37 103 -167h-144q-9 46 -33 87.5t-43 41.5h-33v-129h-133v452h278q60 0 90.5 -42t30.5 -107zM561 863q0 48 -36 48h-92v-98h92q36 0 36 50zM891 792q0 -121 -24 -203t-76 -130.5t-125.5 -69t-181 -20.5t-181 20.5 t-125 69t-75 130.5t-23.5 203q0 123 24 204.5t76.5 129t125 67t179.5 19.5t180 -19.5t125.5 -67t76.5 -129t24 -204.5zM751 792q0 64 -5.5 110t-19.5 79.5t-33 54t-51 32.5t-68 16t-89 4q-44 0 -76 -3t-61 -11t-48.5 -22.5t-35.5 -36t-25 -53.5t-13.5 -73.5t-4.5 -96.5 q0 -61 6 -105.5t19.5 -78t33.5 -54.5t50.5 -34t67 -18.5t87.5 -5.5q78 0 126 12.5t81 46t46 90t13 147.5z" />
<glyph unicode="&#xaf;" horiz-adv-x="883" d="M209 979v153h472v-153h-472z" />
<glyph unicode="&#xb0;" horiz-adv-x="737" d="M368.5 1213q85.5 0 141.5 -16.5t95 -59.5t56 -116t17 -186q0 -114 -17 -189.5t-56 -121t-95.5 -64t-140.5 -18.5q-68 0 -117 11.5t-86.5 39t-60.5 73.5t-34 112t-11 157q0 113 16.5 186t56 116t95 59.5t141 16.5zM369 593q37 0 59.5 9.5t37 37t20 73t5.5 120.5 q0 61 -3.5 101t-11.5 66.5t-23.5 40t-34.5 18.5t-49 5q-51 0 -75.5 -16t-36.5 -65.5t-12 -149.5q0 -75 6 -121t21 -73t37.5 -36.5t59.5 -9.5z" />
<glyph unicode="&#xb1;" horiz-adv-x="988" d="M81 646v201h312v313h202v-313h313v-201h-313v-313h-202v313h-312zM81 32v201h827v-201h-827z" />
<glyph unicode="&#xb2;" horiz-adv-x="728" d="M114 1022l-29 157q101 33 240 33q161 0 236 -52t75 -174q0 -177 -155 -232q-6 -2 -19 -6q-38 -14 -55 -20t-43 -17t-38 -19t-25.5 -20t-19.5 -25.5t-9 -29.5h365v-151h-576q7 84 23.5 144.5t48 103.5t71.5 71.5t101 54.5q29 11 50.5 21t40.5 22.5t31 25t18.5 28.5t6.5 35 q0 22 -7 37t-24 24.5t-43.5 13.5t-66.5 4q-46 0 -105.5 -9t-91.5 -20z" />
<glyph unicode="&#xb3;" horiz-adv-x="718" d="M222 772v141h86q70 0 93.5 16.5t23.5 63.5q0 43 -27 57t-112 14q-109 0 -182 -24l-28 144q119 28 239 28q159 0 231 -43.5t72 -143.5q0 -84 -34.5 -127t-127.5 -50q99 -5 139.5 -52t40.5 -138q0 -58 -20.5 -99.5t-62 -66t-100 -35.5t-138.5 -11q-128 0 -244 28l28 144 q83 -23 188 -23q91 0 122 18.5t31 69.5q0 54 -26.5 71.5t-102.5 17.5h-89z" />
<glyph unicode="&#xb4;" horiz-adv-x="817" d="M344 965h-186l206 219h226z" />
<glyph unicode="&#xb5;" horiz-adv-x="990" d="M308 -326h-206l10 688v503h211v-461q0 -49 3.5 -83t14.5 -65.5t31 -50t53.5 -29.5t80.5 -11q82 0 157 22v678h211v-816q-40 -15 -90 -28.5t-103.5 -23.5t-110 -15.5t-106.5 -5.5q-105 0 -161 27z" />
<glyph unicode="&#xb6;" horiz-adv-x="1143" d="M993 0h-198v391h-146v-391h-198v391h-78q-83 0 -147 31.5t-102 86t-57.5 123t-19.5 147.5q0 405 329 405h617v-1184z" />
<glyph unicode="&#xb7;" horiz-adv-x="504" d="M250 644q45 0 70.5 -4.5t44 -18.5t25 -39t6.5 -67q0 -45 -6.5 -72.5t-25 -43.5t-44.5 -21t-70 -5q-42 0 -67 5t-43 21t-24.5 43.5t-6.5 72.5q0 42 6.5 67t24.5 39t43 18.5t67 4.5z" />
<glyph unicode="&#xb8;" horiz-adv-x="1088" d="M561 0h83v-71q101 0 144 -29.5t43 -103.5q0 -80 -52 -110.5t-181 -30.5q-106 0 -166 27l37 92q43 -21 121 -21q40 0 55 9.5t15 34.5q0 32 -34 41t-126 4z" />
<glyph unicode="&#xb9;" horiz-adv-x="640" d="M447 472h-176v521l-162 -70l-46 149l384 161v-761z" />
<glyph unicode="&#xba;" horiz-adv-x="781" d="M389 551q-74 0 -127 17t-92 55.5t-57.5 103t-18.5 157.5t19 157.5t58 102t91.5 53.5t126.5 16q76 0 130 -16t93 -54t57.5 -102t18.5 -157t-18.5 -157.5t-57.5 -103t-93 -55.5t-130 -17zM389 1079q-53 0 -79.5 -14t-39 -56t-12.5 -127q0 -82 12.5 -123.5t39.5 -57.5 t79 -16q54 0 81.5 15.5t40.5 58t13 123.5q0 64 -6.5 102t-23.5 59.5t-40.5 28.5t-64.5 7z" />
<glyph unicode="&#xbb;" horiz-adv-x="1135" d="M510 178l301 347l-301 356l119 125l462 -476l-459 -475zM46 178l301 347l-301 356l119 125l462 -476l-459 -475z" />
<glyph unicode="&#xbc;" horiz-adv-x="1461" d="M916 1184h208l-731 -1184h-208zM1115 167h-387v73q141 243 329 495h233v-414h97v-154h-97v-167h-175v167zM1115 321v274q-114 -144 -187 -274h187zM423 472h-178v521l-160 -70l-48 149l386 161v-761z" />
<glyph unicode="&#xbd;" horiz-adv-x="1461" d="M889 556l-29 158q101 32 240 32q161 0 236 -51.5t75 -174.5q0 -176 -155 -231q-6 -2 -19 -7q-37 -13 -54.5 -19.5t-43.5 -17.5t-38 -19t-25.5 -19.5t-19.5 -25t-9 -30.5h366v-151h-576q6 85 22.5 145t47.5 103.5t71.5 72t100.5 53.5q76 30 112.5 59t36.5 73t-31.5 61.5 t-110.5 17.5q-46 0 -105.5 -9t-91.5 -20zM910 1184h207l-731 -1184h-208zM417 472h-179v521l-160 -70l-47 149l386 161v-761z" />
<glyph unicode="&#xbe;" horiz-adv-x="1461" d="M1025 1184h208l-733 -1184h-208zM1139 167h-388v73q71 120 162 255.5t170 239.5h231v-414h99v-154h-99v-167h-175v167zM1139 321v274q-112 -144 -187 -274h187zM192 772v141h85q70 0 93.5 16.5t23.5 63.5q0 43 -27 57t-112 14q-108 0 -182 -24l-27 144q118 28 238 28 q80 0 136.5 -10.5t94.5 -33t55.5 -57.5t17.5 -86q0 -84 -35 -127t-128 -50q99 -5 139.5 -52t40.5 -138q0 -58 -20.5 -99.5t-62 -66t-100 -35.5t-138.5 -11q-128 0 -243 28l27 144q83 -23 188 -23q63 0 95.5 8t45.5 26.5t13 53.5q0 54 -27 71.5t-102 17.5h-89z" />
<glyph unicode="&#xbf;" horiz-adv-x="837" d="M440 641q-42 0 -65.5 3.5t-40.5 16.5t-23 36t-6 62q0 43 6 68.5t23 39.5t40.5 19t65.5 5q26 0 44 -2t33.5 -7.5t25 -14.5t16.5 -24t9.5 -35t2.5 -49q0 -39 -6 -62t-23 -35.5t-39.5 -16.5t-62.5 -4zM330 519h221q-134 -143 -193 -254t-59 -243q0 -74 45.5 -111t160.5 -37 q153 0 243 36l45 -197q-56 -18 -146 -30.5t-161 -12.5q-233 0 -336.5 84.5t-103.5 258.5q0 71 19 136t57.5 127.5t88 119.5t119.5 123z" />
<glyph unicode="&#xc0;" horiz-adv-x="1158" d="M944 0q-80 197 -115 295h-518q-43 -133 -92 -295h-234q82 262 200.5 589t227.5 595h352q93 -294 211.5 -623.5t215.5 -560.5h-248zM600 994h-46q-83 -212 -184 -506h395q-93 267 -165 506zM741 1270h-194l-268 219h232z" />
<glyph unicode="&#xc1;" horiz-adv-x="1158" d="M944 0q-80 197 -115 295h-518q-43 -133 -92 -295h-234q82 262 200.5 589t227.5 595h352q93 -294 211.5 -623.5t215.5 -560.5h-248zM600 994h-46q-83 -212 -184 -506h395q-93 267 -165 506zM605 1270h-183l219 219h233z" />
<glyph unicode="&#xc2;" horiz-adv-x="1158" d="M944 0q-80 197 -115 295h-518q-43 -133 -92 -295h-234q82 262 200.5 589t227.5 595h352q93 -294 211.5 -623.5t215.5 -560.5h-248zM600 994h-46q-83 -212 -184 -506h395q-93 267 -165 506zM701 1270l-123 133l-119 -133h-190l207 219h207l214 -219h-196z" />
<glyph unicode="&#xc3;" horiz-adv-x="1158" d="M944 0q-80 197 -115 295h-518q-43 -133 -92 -295h-234q82 262 200.5 589t227.5 595h352q93 -294 211.5 -623.5t215.5 -560.5h-248zM600 994h-46q-83 -212 -184 -506h395q-93 267 -165 506zM785 1494l104 -85q-17 -45 -45 -80t-69.5 -56.5t-89.5 -21.5q-18 0 -36 4 t-33.5 10.5t-31 14.5t-29 17t-28.5 17t-28 14.5t-28 10.5t-29 4q-27 0 -47.5 -19t-39.5 -66l-95 93q37 66 80 100.5t102 34.5q38 0 76.5 -14t63.5 -30.5t55.5 -30.5t56.5 -14q30 0 50.5 21t40.5 76z" />
<glyph unicode="&#xc4;" horiz-adv-x="1158" d="M944 0q-80 197 -115 295h-518q-43 -133 -92 -295h-234q82 262 200.5 589t227.5 595h352q93 -294 211.5 -623.5t215.5 -560.5h-248zM600 994h-46q-83 -212 -184 -506h395q-93 267 -165 506zM396 1468q59 0 79.5 -17.5t20.5 -76.5q0 -65 -20.5 -84.5t-79.5 -19.5 q-60 0 -81 20t-21 84q0 59 21 76.5t81 17.5zM758 1468q59 0 79.5 -17.5t20.5 -76.5q0 -34 -4.5 -54t-17 -31.5t-30.5 -15t-48 -3.5q-60 0 -80.5 19.5t-20.5 84.5q0 59 20 76.5t81 17.5z" />
<glyph unicode="&#xc5;" horiz-adv-x="1158" d="M587 1513q104 0 152.5 -38.5t48.5 -128.5q0 -49 -14.5 -82.5t-43.5 -53t-73 -26.5h108q93 -294 211.5 -623.5t215.5 -560.5h-248q-80 197 -115 295h-518q-43 -133 -92 -295h-234q82 262 200.5 589t227.5 595h102q-67 11 -99.5 49.5t-32.5 112.5q0 91 47.5 129t156.5 38z M600 994h-46q-83 -212 -184 -506h395q-93 267 -165 506zM587 1418q-50 0 -68 -17t-18 -56q0 -26 7 -41.5t26 -23.5t53 -8q50 0 67 16.5t17 56.5q0 26 -6.5 41t-25 23.5t-52.5 8.5z" />
<glyph unicode="&#xc6;" horiz-adv-x="1646" d="M587 1184h1014v-193h-636v-274h378v-190h-378v-334h636v-193h-858v295h-529q-101 -152 -190 -295h-269q180 274 408.5 600.5t423.5 583.5zM743 994h-47q-206 -284 -356 -506h403v506z" />
<glyph unicode="&#xc7;" horiz-adv-x="1005" d="M90 603q0 121 15 213.5t46.5 160.5t75.5 113.5t108 72.5t138.5 38.5t172.5 11.5q81 0 176 -12t164 -32l-50 -197q-45 16 -117.5 27t-133.5 11q-52 0 -89.5 -2.5t-74.5 -10t-62 -20.5t-48 -34.5t-37 -51.5t-25 -72t-15 -95.5t-4 -122t4 -122.5t14.5 -96.5t25 -73.5 t37 -53.5t48 -36.5t62 -22.5t74.5 -11.5t90 -3q61 0 133.5 10.5t117.5 26.5l50 -200q-68 -18 -158.5 -30t-170.5 -13v-47q101 0 143.5 -29.5t42.5 -103.5q0 -80 -52 -110.5t-181 -30.5q-105 0 -166 27l37 92q43 -21 121 -21q39 0 54 9.5t15 34.5q0 32 -33.5 41t-126.5 4 l53 137q-123 8 -209.5 43.5t-147 108.5t-89 189t-28.5 283z" />
<glyph unicode="&#xc8;" horiz-adv-x="1053" d="M149 1184h861v-193h-636v-274h454v-192h-454v-332h636v-193h-861v1184zM804 1270h-194l-268 219h232z" />
<glyph unicode="&#xc9;" horiz-adv-x="1053" d="M149 1184h861v-193h-636v-274h454v-192h-454v-332h636v-193h-861v1184zM612 1270h-184l219 219h234z" />
<glyph unicode="&#xca;" horiz-adv-x="1053" d="M149 1184h861v-193h-636v-274h454v-192h-454v-332h636v-193h-861v1184zM712 1270l-122 133l-119 -133h-190l207 219h208l214 -219h-198z" />
<glyph unicode="&#xcb;" horiz-adv-x="1053" d="M149 1184h861v-193h-636v-274h454v-192h-454v-332h636v-193h-861v1184zM410 1468q59 0 79.5 -17.5t20.5 -76.5q0 -65 -20.5 -84.5t-79.5 -19.5t-80.5 20t-21.5 84q0 59 21 76.5t81 17.5zM772 1468q59 0 79.5 -17.5t20.5 -76.5q0 -65 -20.5 -84.5t-79.5 -19.5 q-60 0 -81 19.5t-21 84.5q0 59 20.5 76.5t81.5 17.5z" />
<glyph unicode="&#xcc;" horiz-adv-x="522" d="M149 1184h225v-1184h-225v1184zM412 1270h-195l-268 219h233z" />
<glyph unicode="&#xcd;" horiz-adv-x="522" d="M149 1184h225v-1184h-225v1184zM303 1270h-184l220 219h232z" />
<glyph unicode="&#xce;" horiz-adv-x="522" d="M149 1184h225v-1184h-225v1184zM381 1270l-123 133l-119 -133h-190l207 219h208l214 -219h-197z" />
<glyph unicode="&#xcf;" horiz-adv-x="522" d="M149 1184h225v-1184h-225v1184zM83 1468q59 0 79.5 -17.5t20.5 -76.5q0 -65 -20.5 -84.5t-79.5 -19.5t-80.5 20t-21.5 84q0 59 21 76.5t81 17.5zM446 1468q59 0 79 -17.5t20 -76.5q0 -65 -20 -84.5t-79 -19.5q-61 0 -81.5 19.5t-20.5 84.5q0 59 20.5 76.5t81.5 17.5z" />
<glyph unicode="&#xd0;" horiz-adv-x="1250" d="M61 529v156h88v499h453q97 0 172 -11.5t139.5 -38t109.5 -71t76.5 -109.5t46.5 -153.5t15 -203.5q0 -137 -22.5 -238.5t-65.5 -170t-112.5 -110.5t-156 -60t-202.5 -18h-453v529h-88zM921 595q0 89 -6.5 150.5t-24.5 106.5t-41.5 71t-65 41.5t-87.5 20t-117 4.5h-205 v-304h270v-156h-270v-336h205q69 0 117 6.5t88 24t64.5 45.5t42 73.5t24 106.5t6.5 146z" />
<glyph unicode="&#xd1;" horiz-adv-x="1315" d="M1164 1184v-1184h-273q-247 455 -522 892v-892h-220v1184h295q260 -408 498 -854v854h222zM876 1494l103 -85q-12 -33 -31.5 -61.5t-44.5 -50.5t-58 -34t-70 -12q-33 0 -68.5 14.5t-60.5 31.5t-56.5 31.5t-57.5 14.5q-13 0 -24 -4t-22 -14t-21 -26.5t-19 -40.5l-96 93 q38 66 80.5 100.5t101.5 34.5q39 0 77 -14t63 -30.5t55.5 -30.5t56.5 -14q30 0 51 21t41 76z" />
<glyph unicode="&#xd2;" horiz-adv-x="1308" d="M654 1213q83 0 149.5 -8.5t126 -28t104 -51.5t80 -79.5t57.5 -111t34 -146t12 -185.5q0 -146 -23 -253t-66.5 -179t-113.5 -115.5t-156.5 -61.5t-203.5 -18t-204 18t-157 61.5t-113.5 115.5t-66.5 179t-23 253q0 120 15.5 212.5t48 160t77.5 113.5t110 73.5t140.5 39 t172.5 11.5zM654 178q68 0 114.5 6.5t85 24.5t61 46.5t38 77t21 112t5.5 155.5q0 69 -3 121t-11 94.5t-19.5 72.5t-31.5 52.5t-42.5 35.5t-57 21.5t-71.5 11.5t-89 3q-69 0 -114.5 -5.5t-84.5 -22t-61 -44t-37.5 -75t-21 -110.5t-5.5 -155t5.5 -155.5t21 -112t37.5 -77 t60.5 -46.5t85 -24.5t114.5 -6.5zM823 1270h-194l-269 219h233z" />
<glyph unicode="&#xd3;" horiz-adv-x="1308" d="M654 1213q83 0 149.5 -8.5t126 -28t104 -51.5t80 -79.5t57.5 -111t34 -146t12 -185.5q0 -146 -23 -253t-66.5 -179t-113.5 -115.5t-156.5 -61.5t-203.5 -18t-204 18t-157 61.5t-113.5 115.5t-66.5 179t-23 253q0 120 15.5 212.5t48 160t77.5 113.5t110 73.5t140.5 39 t172.5 11.5zM654 178q68 0 114.5 6.5t85 24.5t61 46.5t38 77t21 112t5.5 155.5q0 69 -3 121t-11 94.5t-19.5 72.5t-31.5 52.5t-42.5 35.5t-57 21.5t-71.5 11.5t-89 3q-69 0 -114.5 -5.5t-84.5 -22t-61 -44t-37.5 -75t-21 -110.5t-5.5 -155t5.5 -155.5t21 -112t37.5 -77 t60.5 -46.5t85 -24.5t114.5 -6.5zM612 1270h-184l219 219h234z" />
<glyph unicode="&#xd4;" horiz-adv-x="1308" d="M654 1213q83 0 149.5 -8.5t126 -28t104 -51.5t80 -79.5t57.5 -111t34 -146t12 -185.5q0 -146 -23 -253t-66.5 -179t-113.5 -115.5t-156.5 -61.5t-203.5 -18t-204 18t-157 61.5t-113.5 115.5t-66.5 179t-23 253q0 120 15.5 212.5t48 160t77.5 113.5t110 73.5t140.5 39 t172.5 11.5zM654 178q68 0 114.5 6.5t85 24.5t61 46.5t38 77t21 112t5.5 155.5q0 69 -3 121t-11 94.5t-19.5 72.5t-31.5 52.5t-42.5 35.5t-57 21.5t-71.5 11.5t-89 3q-69 0 -114.5 -5.5t-84.5 -22t-61 -44t-37.5 -75t-21 -110.5t-5.5 -155t5.5 -155.5t21 -112t37.5 -77 t60.5 -46.5t85 -24.5t114.5 -6.5zM770 1270l-123 133l-118 -133h-190l206 219h208l214 -219h-197z" />
<glyph unicode="&#xd5;" horiz-adv-x="1308" d="M654 1213q83 0 149.5 -8.5t126 -28t104 -51.5t80 -79.5t57.5 -111t34 -146t12 -185.5q0 -146 -23 -253t-66.5 -179t-113.5 -115.5t-156.5 -61.5t-203.5 -18t-204 18t-157 61.5t-113.5 115.5t-66.5 179t-23 253q0 120 15.5 212.5t48 160t77.5 113.5t110 73.5t140.5 39 t172.5 11.5zM654 178q68 0 114.5 6.5t85 24.5t61 46.5t38 77t21 112t5.5 155.5q0 69 -3 121t-11 94.5t-19.5 72.5t-31.5 52.5t-42.5 35.5t-57 21.5t-71.5 11.5t-89 3q-69 0 -114.5 -5.5t-84.5 -22t-61 -44t-37.5 -75t-21 -110.5t-5.5 -155t5.5 -155.5t21 -112t37.5 -77 t60.5 -46.5t85 -24.5t114.5 -6.5zM862 1494l103 -85q-26 -70 -78.5 -114t-124.5 -44q-34 0 -69.5 14.5t-60 31.5t-56 31.5t-57.5 14.5q-27 0 -48 -19t-39 -66l-95 93q37 66 80 100.5t102 34.5q39 0 77 -14t63 -30.5t55.5 -30.5t55.5 -14q30 0 50.5 21t41.5 76z" />
<glyph unicode="&#xd6;" horiz-adv-x="1308" d="M654 1213q83 0 149.5 -8.5t126 -28t104 -51.5t80 -79.5t57.5 -111t34 -146t12 -185.5q0 -146 -23 -253t-66.5 -179t-113.5 -115.5t-156.5 -61.5t-203.5 -18t-204 18t-157 61.5t-113.5 115.5t-66.5 179t-23 253q0 120 15.5 212.5t48 160t77.5 113.5t110 73.5t140.5 39 t172.5 11.5zM654 178q68 0 114.5 6.5t85 24.5t61 46.5t38 77t21 112t5.5 155.5q0 69 -3 121t-11 94.5t-19.5 72.5t-31.5 52.5t-42.5 35.5t-57 21.5t-71.5 11.5t-89 3q-69 0 -114.5 -5.5t-84.5 -22t-61 -44t-37.5 -75t-21 -110.5t-5.5 -155t5.5 -155.5t21 -112t37.5 -77 t60.5 -46.5t85 -24.5t114.5 -6.5zM470.5 1468q30.5 0 48 -3t30.5 -13.5t17.5 -28.5t4.5 -49q0 -65 -20.5 -84.5t-79.5 -19.5q-60 0 -81 20t-21 84q0 30 4.5 48.5t17.5 29t31 13.5t48.5 3zM833 1468q31 0 48.5 -3t30 -13.5t17 -28.5t4.5 -49q0 -65 -20.5 -84.5t-79.5 -19.5 q-60 0 -81 19.5t-21 84.5q0 59 21 76.5t81 17.5z" />
<glyph unicode="&#xd7;" horiz-adv-x="988" d="M274 253l-143 143l219 221l-221 220l143 142l221 -221l221 223l143 -144l-221 -222l221 -221l-143 -141l-221 221z" />
<glyph unicode="&#xd8;" horiz-adv-x="1308" d="M1054 1184h229l-149 -171q83 -137 83 -410q0 -146 -23 -253t-66.5 -179t-113.5 -115.5t-156.5 -61.5t-203.5 -18q-231 0 -351 76l-47 -52h-227l149 172q-88 143 -88 431q0 120 15.5 212.5t48 160t77.5 113.5t110 73.5t140.5 39t172.5 11.5q237 0 358 -79zM654 1012 q-55 0 -95 -4t-75.5 -13.5t-59.5 -27t-43 -43.5t-30 -64.5t-16 -88t-5 -114.5q0 -181 24 -287l511 597q-62 45 -211 45zM654 178q64 0 109.5 6t84 21.5t62.5 41t40.5 67t23.5 97t7 133.5q0 163 -24 267l-506 -589q59 -44 203 -44z" />
<glyph unicode="&#xd9;" horiz-adv-x="1260" d="M1127 1184l2 -825q0 -92 -23 -159.5t-63 -110t-104 -68t-137 -35.5t-171 -10t-171.5 10t-137.5 35.5t-104 68t-62.5 110t-22.5 159.5v825h226v-791q0 -119 60 -165t212 -46q75 0 124 9.5t84 33t50.5 64.5t15.5 104v791h222zM826 1270h-194l-268 219h233z" />
<glyph unicode="&#xda;" horiz-adv-x="1260" d="M1127 1184l2 -825q0 -92 -23 -159.5t-63 -110t-104 -68t-137 -35.5t-171 -10t-171.5 10t-137.5 35.5t-104 68t-62.5 110t-22.5 159.5v825h226v-791q0 -119 60 -165t212 -46q75 0 124 9.5t84 33t50.5 64.5t15.5 104v791h222zM632 1270h-183l219 219h233z" />
<glyph unicode="&#xdb;" horiz-adv-x="1260" d="M1127 1184l2 -825q0 -92 -23 -159.5t-63 -110t-104 -68t-137 -35.5t-171 -10t-171.5 10t-137.5 35.5t-104 68t-62.5 110t-22.5 159.5v825h226v-791q0 -119 60 -165t212 -46q75 0 124 9.5t84 33t50.5 64.5t15.5 104v791h222zM745 1270l-123 133l-119 -133h-190l207 219 h208l214 -219h-197z" />
<glyph unicode="&#xdc;" horiz-adv-x="1260" d="M1127 1184l2 -825q0 -92 -23 -159.5t-63 -110t-104 -68t-137 -35.5t-171 -10t-171.5 10t-137.5 35.5t-104 68t-62.5 110t-22.5 159.5v825h226v-791q0 -119 60 -165t212 -46q75 0 124 9.5t84 33t50.5 64.5t15.5 104v791h222zM446 1468q59 0 79 -17.5t20 -76.5 q0 -65 -20 -84.5t-79 -19.5q-60 0 -81 20t-21 84q0 59 21 76.5t81 17.5zM808 1468q59 0 79.5 -17.5t20.5 -76.5q0 -65 -20.5 -84.5t-79.5 -19.5q-61 0 -81.5 19.5t-20.5 84.5q0 31 4.5 49t17 28.5t30.5 13.5t50 3z" />
<glyph unicode="&#xdd;" horiz-adv-x="1083" d="M227 1184q163 -204 331 -451q201 272 313 451h271q-230 -345 -477 -673v-511h-225v510q-301 427 -505 674h292zM568 1270h-184l219 219h234z" />
<glyph unicode="&#xde;" horiz-adv-x="1143" d="M149 1184h225v-174h393q329 0 329 -407q0 -62 -11.5 -118.5t-37 -106t-63 -85.5t-92 -56.5t-120.5 -20.5h-398v-216h-225v1184zM374 403h330q71 0 108.5 51t37.5 151q0 213 -141 213h-335v-415z" />
<glyph unicode="&#xdf;" horiz-adv-x="1111" d="M551 1213q156 0 254 -30.5t145.5 -97t47.5 -174.5q0 -41 -4 -73.5t-14 -64.5t-28 -55.5t-45.5 -42.5t-67 -31t-91.5 -17q66 -2 114.5 -18.5t79.5 -42t50 -64.5t26 -82.5t7 -99.5q0 -65 -11.5 -115t-37 -88.5t-63 -65t-91.5 -43.5t-120.5 -24.5t-152.5 -7.5q-61 0 -117 5 l24 184q61 -7 102 -7q93 0 143.5 19t69.5 57.5t19 107.5q0 107 -48.5 149.5t-167.5 42.5h-64v175h59q77 0 122 19t63 54.5t18 93.5q0 84 -48.5 116.5t-172.5 32.5q-73 0 -123 -19t-74 -54.5t-24 -84.5v-867h-213v896q0 317 434 317z" />
<glyph unicode="&#xe0;" horiz-adv-x="951" d="M840 554v-510q-80 -31 -189 -49.5t-202 -18.5q-106 0 -173.5 13t-112 47t-62.5 88.5t-18 140.5q0 72 16.5 123.5t44 82.5t73 48.5t93 23.5t113.5 6q97 0 214 -24q0 60 -8 94t-32.5 56.5t-65 30.5t-109.5 8q-144 0 -262 -43l-40 174q172 46 346 46q99 0 167 -16.5 t115.5 -55t69.5 -103.5t22 -162zM637 167v216q-71 15 -171 15q-49 0 -76 -4t-48.5 -17t-29 -37.5t-7.5 -65.5q0 -45 6 -71t25.5 -41t48 -19.5t79.5 -4.5q88 0 173 29zM627 965h-187l-244 219h224z" />
<glyph unicode="&#xe1;" horiz-adv-x="951" d="M840 554v-510q-80 -31 -189 -49.5t-202 -18.5q-106 0 -173.5 13t-112 47t-62.5 88.5t-18 140.5q0 72 16.5 123.5t44 82.5t73 48.5t93 23.5t113.5 6q97 0 214 -24q0 60 -8 94t-32.5 56.5t-65 30.5t-109.5 8q-144 0 -262 -43l-40 174q172 46 346 46q99 0 167 -16.5 t115.5 -55t69.5 -103.5t22 -162zM637 167v216q-71 15 -171 15q-49 0 -76 -4t-48.5 -17t-29 -37.5t-7.5 -65.5q0 -45 6 -71t25.5 -41t48 -19.5t79.5 -4.5q88 0 173 29zM506 965h-185l206 219h226z" />
<glyph unicode="&#xe2;" horiz-adv-x="951" d="M840 554v-510q-80 -31 -189 -49.5t-202 -18.5q-106 0 -173.5 13t-112 47t-62.5 88.5t-18 140.5q0 72 16.5 123.5t44 82.5t73 48.5t93 23.5t113.5 6q97 0 214 -24q0 60 -8 94t-32.5 56.5t-65 30.5t-109.5 8q-144 0 -262 -43l-40 174q172 46 346 46q99 0 167 -16.5 t115.5 -55t69.5 -103.5t22 -162zM637 167v216q-71 15 -171 15q-49 0 -76 -4t-48.5 -17t-29 -37.5t-7.5 -65.5q0 -45 6 -71t25.5 -41t48 -19.5t79.5 -4.5q88 0 173 29zM793 965h-198l-121 130l-117 -130h-192l208 219h206z" />
<glyph unicode="&#xe3;" horiz-adv-x="951" d="M840 554v-510q-80 -31 -189 -49.5t-202 -18.5q-106 0 -173.5 13t-112 47t-62.5 88.5t-18 140.5q0 72 16.5 123.5t44 82.5t73 48.5t93 23.5t113.5 6q97 0 214 -24q0 60 -8 94t-32.5 56.5t-65 30.5t-109.5 8q-144 0 -262 -43l-40 174q172 46 346 46q99 0 167 -16.5 t115.5 -55t69.5 -103.5t22 -162zM637 167v216q-71 15 -171 15q-49 0 -76 -4t-48.5 -17t-29 -37.5t-7.5 -65.5q0 -45 6 -71t25.5 -41t48 -19.5t79.5 -4.5q88 0 173 29zM670 1194l105 -86q-17 -48 -43 -82t-66 -55t-90 -21q-34 0 -68.5 14t-58 31t-54.5 31t-58 14t-48 -19.5 t-41 -66.5l-95 93q38 68 82 102.5t104 34.5q32 0 61 -9t51 -22t42 -26.5t42.5 -22.5t43.5 -9q31 0 51 21t40 78z" />
<glyph unicode="&#xe4;" horiz-adv-x="951" d="M840 554v-510q-80 -31 -189 -49.5t-202 -18.5q-106 0 -173.5 13t-112 47t-62.5 88.5t-18 140.5q0 72 16.5 123.5t44 82.5t73 48.5t93 23.5t113.5 6q97 0 214 -24q0 60 -8 94t-32.5 56.5t-65 30.5t-109.5 8q-144 0 -262 -43l-40 174q172 46 346 46q99 0 167 -16.5 t115.5 -55t69.5 -103.5t22 -162zM637 167v216q-71 15 -171 15q-49 0 -76 -4t-48.5 -17t-29 -37.5t-7.5 -65.5q0 -45 6 -71t25.5 -41t48 -19.5t79.5 -4.5q88 0 173 29zM282 1158q31 0 48.5 -3.5t31 -13.5t18 -28t4.5 -49q0 -65 -21 -85t-81 -20q-59 0 -79.5 19.5t-20.5 85.5 q0 59 20.5 76.5t79.5 17.5zM646 1158q59 0 79.5 -17.5t20.5 -76.5q0 -65 -21 -85t-79 -20q-61 0 -81.5 19.5t-20.5 85.5q0 59 20.5 76.5t81.5 17.5z" />
<glyph unicode="&#xe5;" horiz-adv-x="951" d="M840 554v-510q-80 -31 -189 -49.5t-202 -18.5q-106 0 -173.5 13t-112 47t-62.5 88.5t-18 140.5q0 72 16.5 123.5t44 82.5t73 48.5t93 23.5t113.5 6q97 0 214 -24q0 60 -8 94t-32.5 56.5t-65 30.5t-109.5 8q-144 0 -262 -43l-40 174q172 46 346 46q99 0 167 -16.5 t115.5 -55t69.5 -103.5t22 -162zM637 167v216q-71 15 -171 15q-49 0 -76 -4t-48.5 -17t-29 -37.5t-7.5 -65.5q0 -45 6 -71t25.5 -41t48 -19.5t79.5 -4.5q88 0 173 29zM477 1260q105 0 154 -38.5t49 -128.5q0 -91 -49 -129t-154 -38t-154 38t-49 129t47 129t156 38z M477.5 1163q-50.5 0 -67.5 -16.5t-17 -56.5q0 -16 2 -27t7.5 -20t15 -14.5t24 -8.5t35.5 -3q50 0 68 17.5t18 55.5q0 40 -17.5 56.5t-68 16.5z" />
<glyph unicode="&#xe6;" horiz-adv-x="1474" d="M1312 190l34 -166q-63 -21 -149 -34.5t-154 -13.5q-162 0 -251 61q-60 -28 -158 -44.5t-185 -16.5q-106 0 -173.5 13t-112 47t-62.5 88.5t-18 140.5q0 72 16.5 123.5t44.5 82.5t73.5 49t93 23.5t112.5 5.5q97 0 214 -24q0 34 -2 58t-8 45t-17 34t-26.5 23t-39 15.5 t-53 7.5t-69.5 2q-154 0 -262 -39l-40 174q172 46 346 46q112 0 181 -24t106 -80q40 55 106.5 79.5t167.5 24.5q71 0 124 -9t98.5 -31t75 -59.5t49.5 -94.5t27 -135.5t3 -183.5h-559q1 -69 14 -113t42.5 -68.5t68.5 -33.5t99 -9q48 0 121 10.5t122 25.5zM668 178 q-34 82 -34 205q-68 15 -167 15q-27 0 -46 -1.5t-37.5 -4.5t-30 -8.5t-21.5 -14.5t-15 -22.5t-8 -31t-3 -41.5q0 -35 3.5 -56.5t13 -38.5t28 -25t45.5 -12t70 -4q31 0 69.5 5t75 14.5t57.5 20.5zM1038 724q-50 0 -82 -8t-56 -29.5t-36 -57t-17 -90.5h363q-3 76 -21.5 116 t-52.5 54.5t-98 14.5z" />
<glyph unicode="&#xe7;" horiz-adv-x="798" d="M731 201l48 -180q-49 -19 -120.5 -31.5t-133.5 -13.5v-47q102 0 144.5 -29.5t42.5 -103.5q0 -54 -23 -84.5t-72.5 -43.5t-136.5 -13q-106 0 -167 27l37 92q43 -21 121 -21q39 0 54 9.5t15 34.5q0 32 -33.5 41t-125.5 4l52 139q-66 6 -118.5 24.5t-96 53.5t-72.5 86 t-44.5 124.5t-15.5 167.5q0 104 20 182.5t55.5 130t90 83t118.5 45t145 13.5q31 0 67.5 -3t71.5 -8.5t68 -13t57 -16.5l-48 -180q-98 37 -201 37q-49 0 -82 -5.5t-62.5 -22t-46 -46.5t-25.5 -79t-9 -121q0 -85 13 -139t43 -83.5t69 -40t100 -10.5q102 0 201 41z" />
<glyph unicode="&#xe8;" horiz-adv-x="937" d="M775 190l34 -166q-63 -21 -149 -34.5t-154 -13.5q-78 0 -140 13.5t-115.5 46.5t-89 85t-55.5 131.5t-20 184.5q0 127 27 216.5t81 141t126 74t170 22.5q71 0 124 -9t98 -31t74.5 -59.5t49.5 -94.5t27 -135.5t4 -183.5h-559q1 -69 14 -113t42.5 -68.5t68.5 -33.5t99 -9 q48 0 121 10.5t122 25.5zM501 724q-100 0 -140.5 -39.5t-50.5 -145.5h363q-3 76 -21.5 116t-52.5 54.5t-98 14.5zM663 965h-187l-244 219h224z" />
<glyph unicode="&#xe9;" horiz-adv-x="937" d="M775 190l34 -166q-63 -21 -149 -34.5t-154 -13.5q-78 0 -140 13.5t-115.5 46.5t-89 85t-55.5 131.5t-20 184.5q0 127 27 216.5t81 141t126 74t170 22.5q71 0 124 -9t98 -31t74.5 -59.5t49.5 -94.5t27 -135.5t4 -183.5h-559q1 -69 14 -113t42.5 -68.5t68.5 -33.5t99 -9 q48 0 121 10.5t122 25.5zM501 724q-100 0 -140.5 -39.5t-50.5 -145.5h363q-3 76 -21.5 116t-52.5 54.5t-98 14.5zM527 965h-185l205 219h227z" />
<glyph unicode="&#xea;" horiz-adv-x="937" d="M775 190l34 -166q-63 -21 -149 -34.5t-154 -13.5q-78 0 -140 13.5t-115.5 46.5t-89 85t-55.5 131.5t-20 184.5q0 127 27 216.5t81 141t126 74t170 22.5q71 0 124 -9t98 -31t74.5 -59.5t49.5 -94.5t27 -135.5t4 -183.5h-559q1 -69 14 -113t42.5 -68.5t68.5 -33.5t99 -9 q48 0 121 10.5t122 25.5zM501 724q-100 0 -140.5 -39.5t-50.5 -145.5h363q-3 76 -21.5 116t-52.5 54.5t-98 14.5zM818 965h-200l-120 130l-117 -130h-193l208 219h207z" />
<glyph unicode="&#xeb;" horiz-adv-x="937" d="M775 190l34 -166q-63 -21 -149 -34.5t-154 -13.5q-78 0 -140 13.5t-115.5 46.5t-89 85t-55.5 131.5t-20 184.5q0 127 27 216.5t81 141t126 74t170 22.5q71 0 124 -9t98 -31t74.5 -59.5t49.5 -94.5t27 -135.5t4 -183.5h-559q1 -69 14 -113t42.5 -68.5t68.5 -33.5t99 -9 q48 0 121 10.5t122 25.5zM501 724q-100 0 -140.5 -39.5t-50.5 -145.5h363q-3 76 -21.5 116t-52.5 54.5t-98 14.5zM316 1158q31 0 48.5 -3.5t31 -13.5t18 -28t4.5 -49q0 -65 -21 -85t-81 -20q-59 0 -79.5 19.5t-20.5 85.5q0 59 20.5 76.5t79.5 17.5zM680 1158 q59 0 79.5 -17.5t20.5 -76.5q0 -65 -21 -85t-79 -20q-61 0 -81.5 19.5t-20.5 85.5q0 59 20.5 76.5t81.5 17.5z" />
<glyph unicode="&#xec;" horiz-adv-x="444" d="M328 865v-865h-211v865h211zM364 965h-187l-245 219h224z" />
<glyph unicode="&#xed;" horiz-adv-x="444" d="M328 865v-865h-211v865h211zM260 965h-185l206 219h225z" />
<glyph unicode="&#xee;" horiz-adv-x="444" d="M328 865v-865h-211v865h211zM539 965h-199l-121 130l-117 -130h-192l207 219h208z" />
<glyph unicode="&#xef;" horiz-adv-x="444" d="M328 865v-865h-211v865h211zM42 1158q60 0 81 -17.5t21 -76.5q0 -65 -21 -85t-81 -20q-59 0 -79.5 19.5t-20.5 85.5q0 59 20.5 76.5t79.5 17.5zM406 1158q59 0 79.5 -17.5t20.5 -76.5q0 -65 -21 -85t-79 -20q-61 0 -81 19.5t-20 85.5q0 31 4.5 49t17 28.5t30 13.5t49.5 3 z" />
<glyph unicode="&#xf0;" horiz-adv-x="1064" d="M433 816l-83 110l119 75q-42 47 -179 183h279q52 -48 80 -76l104 65l82 -111l-94 -59q76 -93 127.5 -185t83.5 -205t32 -232q0 -61 -4.5 -109.5t-15.5 -89.5t-28.5 -71.5t-43.5 -54.5t-59.5 -39.5t-79 -26t-99.5 -15t-122 -4.5q-125 0 -208 20t-137 67.5t-77.5 123 t-23.5 188.5q0 102 21.5 168.5t73.5 109.5t135 61.5t209 18.5q74 0 148 -9q-45 87 -117 173zM549 539q-74 0 -116 -7t-68.5 -28t-35 -53.5t-8.5 -90.5q0 -53 8.5 -86t31.5 -57.5t64.5 -34.5t106.5 -10q44 0 73 2.5t55.5 11.5t41 24t26 41.5t16 63.5t4.5 89q0 65 -15 123 q-79 12 -184 12z" />
<glyph unicode="&#xf1;" horiz-adv-x="990" d="M328 680v-680h-211v816q82 32 196 53.5t214 21.5q75 0 130.5 -13t98.5 -41.5t69.5 -75.5t40 -116t13.5 -162v-483h-211v461q0 74 -7.5 118.5t-29 72.5t-56 38.5t-92.5 10.5q-76 0 -155 -21zM699 1194l105 -86q-25 -73 -75.5 -115.5t-123.5 -42.5q-34 0 -68.5 14t-58.5 31 t-54.5 31t-58.5 14q-27 0 -47.5 -19t-40.5 -67l-95 93q15 27 29.5 47t31.5 37.5t35.5 29t41 17.5t47.5 6q39 0 75 -14t59 -30.5t52 -30.5t55 -14q21 0 36 8.5t28 30t27 60.5z" />
<glyph unicode="&#xf2;" d="M498 -24q-85 0 -149 14t-115 46t-82.5 85t-48.5 131.5t-17 184.5q0 131 25.5 219.5t79 140t127 73t180.5 21.5q108 0 182.5 -21.5t128.5 -73t79 -140t25 -219.5q0 -133 -25 -222.5t-78.5 -142t-128.5 -74.5t-183 -22zM498 720q-47 0 -77 -6t-54.5 -23t-37 -50 t-18.5 -82.5t-6 -125.5q0 -73 6 -122t19 -82.5t36.5 -51t54 -24.5t77.5 -7q34 0 58.5 3.5t46.5 11.5t36.5 22.5t26 36t17.5 52t9.5 70t3.5 91.5q0 63 -4 107.5t-14 77.5t-24 52t-38 31t-51 15.5t-67 3.5zM675 965h-187l-245 219h224z" />
<glyph unicode="&#xf3;" d="M498 -24q-85 0 -149 14t-115 46t-82.5 85t-48.5 131.5t-17 184.5q0 131 25.5 219.5t79 140t127 73t180.5 21.5q108 0 182.5 -21.5t128.5 -73t79 -140t25 -219.5q0 -133 -25 -222.5t-78.5 -142t-128.5 -74.5t-183 -22zM498 720q-47 0 -77 -6t-54.5 -23t-37 -50 t-18.5 -82.5t-6 -125.5q0 -73 6 -122t19 -82.5t36.5 -51t54 -24.5t77.5 -7q34 0 58.5 3.5t46.5 11.5t36.5 22.5t26 36t17.5 52t9.5 70t3.5 91.5q0 63 -4 107.5t-14 77.5t-24 52t-38 31t-51 15.5t-67 3.5zM522 965h-185l205 219h227z" />
<glyph unicode="&#xf4;" d="M498 -24q-85 0 -149 14t-115 46t-82.5 85t-48.5 131.5t-17 184.5q0 131 25.5 219.5t79 140t127 73t180.5 21.5q108 0 182.5 -21.5t128.5 -73t79 -140t25 -219.5q0 -133 -25 -222.5t-78.5 -142t-128.5 -74.5t-183 -22zM498 720q-47 0 -77 -6t-54.5 -23t-37 -50 t-18.5 -82.5t-6 -125.5q0 -73 6 -122t19 -82.5t36.5 -51t54 -24.5t77.5 -7q34 0 58.5 3.5t46.5 11.5t36.5 22.5t26 36t17.5 52t9.5 70t3.5 91.5q0 63 -4 107.5t-14 77.5t-24 52t-38 31t-51 15.5t-67 3.5zM811 965h-199l-121 130l-117 -130h-192l207 219h208z" />
<glyph unicode="&#xf5;" d="M498 -24q-85 0 -149 14t-115 46t-82.5 85t-48.5 131.5t-17 184.5q0 131 25.5 219.5t79 140t127 73t180.5 21.5q108 0 182.5 -21.5t128.5 -73t79 -140t25 -219.5q0 -133 -25 -222.5t-78.5 -142t-128.5 -74.5t-183 -22zM498 720q-47 0 -77 -6t-54.5 -23t-37 -50 t-18.5 -82.5t-6 -125.5q0 -73 6 -122t19 -82.5t36.5 -51t54 -24.5t77.5 -7q34 0 58.5 3.5t46.5 11.5t36.5 22.5t26 36t17.5 52t9.5 70t3.5 91.5q0 63 -4 107.5t-14 77.5t-24 52t-38 31t-51 15.5t-67 3.5zM702 1194l106 -86q-17 -48 -43.5 -82t-66.5 -55t-90 -21 q-34 0 -68.5 14t-58.5 31t-54.5 31t-57.5 14t-48 -19t-40 -67l-96 93q39 68 82 102.5t103 34.5q39 0 75.5 -14t59 -30.5t52 -30.5t55.5 -14q31 0 50.5 21t39.5 78z" />
<glyph unicode="&#xf6;" d="M498 -24q-85 0 -149 14t-115 46t-82.5 85t-48.5 131.5t-17 184.5q0 131 25.5 219.5t79 140t127 73t180.5 21.5q108 0 182.5 -21.5t128.5 -73t79 -140t25 -219.5q0 -133 -25 -222.5t-78.5 -142t-128.5 -74.5t-183 -22zM498 720q-47 0 -77 -6t-54.5 -23t-37 -50 t-18.5 -82.5t-6 -125.5q0 -73 6 -122t19 -82.5t36.5 -51t54 -24.5t77.5 -7q34 0 58.5 3.5t46.5 11.5t36.5 22.5t26 36t17.5 52t9.5 70t3.5 91.5q0 63 -4 107.5t-14 77.5t-24 52t-38 31t-51 15.5t-67 3.5zM316 1158q31 0 48.5 -3.5t31 -13.5t18 -28t4.5 -49q0 -65 -21 -85 t-81 -20q-59 0 -79.5 19.5t-20.5 85.5q0 59 20.5 76.5t79.5 17.5zM680 1158q59 0 79.5 -17.5t20.5 -76.5q0 -65 -21 -85t-79 -20q-61 0 -81.5 19.5t-20.5 85.5q0 59 20.5 76.5t81.5 17.5z" />
<glyph unicode="&#xf7;" horiz-adv-x="988" d="M81 515v200h827v-200h-827zM491 381q81 0 108.5 -23t27.5 -98q0 -43 -6 -68t-23 -39t-41 -19t-66 -5q-39 0 -62 5t-39.5 19t-23 39t-6.5 68q0 75 27 98t104 23zM491 1096q42 0 65.5 -3.5t41 -16.5t23.5 -36t6 -62q0 -43 -6 -68t-23 -39.5t-41 -19t-66 -4.5q-39 0 -62 4.5 t-39.5 19t-23 39.5t-6.5 68q0 39 6 62t23 36t39.5 16.5t62.5 3.5z" />
<glyph unicode="&#xf8;" d="M777 865h197l-117 -134q56 -105 56 -294q0 -133 -25 -222.5t-78.5 -142t-128.5 -74.5t-183 -22q-156 0 -250 53l-26 -29h-195l117 134q-58 104 -58 303q0 131 25.5 219.5t79 140t127 73t180.5 21.5q165 0 253 -53zM498 719q-45 0 -74 -5.5t-53.5 -20t-37.5 -42.5 t-20 -70.5t-8 -106.5q0 -89 11 -146l310 364q-39 27 -128 27zM498 148q47 0 80 9t55.5 27.5t35.5 50.5t18 73.5t5 101.5q0 70 -9 124l-307 -361q34 -25 122 -25z" />
<glyph unicode="&#xf9;" horiz-adv-x="990" d="M663 187v678h211v-816q-84 -32 -197 -53.5t-213 -21.5q-94 0 -158 20t-108.5 67.5t-65 126t-20.5 195.5v482h211v-461q0 -74 7.5 -118.5t29 -72.5t55.5 -38t91 -10q84 0 157 22zM663 965h-187l-244 219h224z" />
<glyph unicode="&#xfa;" horiz-adv-x="990" d="M663 187v678h211v-816q-84 -32 -197 -53.5t-213 -21.5q-94 0 -158 20t-108.5 67.5t-65 126t-20.5 195.5v482h211v-461q0 -74 7.5 -118.5t29 -72.5t55.5 -38t91 -10q84 0 157 22zM525 965h-185l205 219h227z" />
<glyph unicode="&#xfb;" horiz-adv-x="990" d="M663 187v678h211v-816q-84 -32 -197 -53.5t-213 -21.5q-94 0 -158 20t-108.5 67.5t-65 126t-20.5 195.5v482h211v-461q0 -74 7.5 -118.5t29 -72.5t55.5 -38t91 -10q84 0 157 22zM819 965h-198l-121 130l-117 -130h-193l208 219h207z" />
<glyph unicode="&#xfc;" horiz-adv-x="990" d="M663 187v678h211v-816q-84 -32 -197 -53.5t-213 -21.5q-94 0 -158 20t-108.5 67.5t-65 126t-20.5 195.5v482h211v-461q0 -74 7.5 -118.5t29 -72.5t55.5 -38t91 -10q84 0 157 22zM318 1158q60 0 81 -17.5t21 -76.5q0 -65 -21 -85t-81 -20t-80.5 19.5t-20.5 85.5 q0 59 20.5 76.5t80.5 17.5zM681 1158q59 0 80 -17.5t21 -76.5q0 -65 -21 -85t-80 -20q-60 0 -81 19.5t-21 85.5q0 59 21 76.5t81 17.5z" />
<glyph unicode="&#xfd;" horiz-adv-x="868" d="M306 -42q-137 500 -306 907h219q115 -286 214 -656q145 383 214 656h215q-123 -420 -328 -901q-69 -163 -135 -290h-234q66 118 141 284zM490 965h-185l205 219h226z" />
<glyph unicode="&#xfe;" d="M117 -326v1531h211v-331q94 17 168 17q89 0 153.5 -14t116 -45.5t82.5 -84.5t47 -130.5t16 -183.5q0 -104 -17 -182.5t-48 -130.5t-78.5 -84.5t-104 -46t-128.5 -13.5q-109 0 -207 50v-352h-211zM328 683v-445q0 -24 23 -43.5t61.5 -30t85.5 -10.5q76 0 117.5 24.5t61 83 t19.5 166.5q0 73 -7 121.5t-20 80.5t-38 49t-56 23.5t-79 6.5q-100 0 -168 -26z" />
<glyph unicode="&#xff;" horiz-adv-x="868" d="M306 -42q-137 500 -306 907h219q115 -286 214 -656q145 383 214 656h215q-123 -420 -328 -901q-69 -163 -135 -290h-234q66 118 141 284zM258 1158q60 0 81 -17.5t21 -76.5q0 -34 -5 -54.5t-18 -32t-30.5 -15t-48.5 -3.5q-59 0 -79.5 19.5t-20.5 85.5q0 59 20 76.5 t80 17.5zM622 1158q59 0 79.5 -17.5t20.5 -76.5q0 -66 -20.5 -85.5t-79.5 -19.5q-60 0 -81 19.5t-21 85.5q0 59 21 76.5t81 17.5z" />
<glyph unicode="&#x152;" horiz-adv-x="1865" d="M905 1184h917v-193h-685q64 -95 76 -274h351v-190h-351q-4 -225 -84 -334h693v-193h-941q-94 -24 -227 -24q-117 0 -204 18t-157 61.5t-113.5 115.5t-66.5 179t-23 253q0 120 15.5 212.5t48 160t77.5 113.5t110 73.5t140.5 39t172.5 11.5q151 0 251 -29zM654 178 q68 0 114.5 6.5t85 24.5t61 46.5t38 77t21 112t5.5 155.5q0 69 -3 121t-11 94.5t-19.5 72.5t-31.5 52.5t-42.5 35.5t-57 21.5t-71.5 11.5t-89 3q-69 0 -114.5 -5.5t-84.5 -22t-61 -44t-37.5 -75t-21 -110.5t-5.5 -155t5.5 -155.5t21 -112t37.5 -77t60.5 -46.5t85 -24.5 t114.5 -6.5z" />
<glyph unicode="&#x153;" horiz-adv-x="1541" d="M1377 190l36 -166q-65 -21 -150.5 -34.5t-154.5 -13.5q-107 0 -181 27.5t-121 90.5q-30 -43 -74 -69t-100.5 -37.5t-133.5 -11.5q-85 0 -149 14t-115 46t-82.5 85t-48.5 131.5t-17 184.5q0 131 25.5 219.5t79 140t127 73t180.5 21.5q112 0 186 -26t119 -85 q86 111 288 111q72 0 125 -9t98.5 -31t75 -59.5t49.5 -94.5t26.5 -135.5t2.5 -183.5h-558q1 -69 14.5 -113t43 -68.5t68 -33.5t98.5 -9q23 0 55 3t65 7.5t66 11.5t57 14zM498 720q-47 0 -77 -6t-54.5 -23t-37 -50t-18.5 -82.5t-6 -125.5q0 -73 6 -122t19 -82.5t36.5 -51 t54 -24.5t77.5 -7q34 0 58.5 3.5t46.5 11.5t36.5 22.5t26 36t17.5 52t9.5 70t3.5 91.5q0 63 -4 107.5t-14 77.5t-24 52t-38 31t-51 15.5t-67 3.5zM1105 724q-99 0 -141 -38.5t-53 -146.5h364q-2 57 -11.5 93t-31 56.5t-51 28t-76.5 7.5z" />
<glyph unicode="&#x178;" horiz-adv-x="1083" d="M227 1184q163 -204 331 -451q201 272 313 451h271q-230 -345 -477 -673v-511h-225v510q-301 427 -505 674h292zM376 1468q31 0 48.5 -3t30 -13.5t17 -28.5t4.5 -49q0 -65 -20.5 -84.5t-79.5 -19.5t-80.5 20t-21.5 84q0 59 21 76.5t81 17.5zM738 1468q59 0 79.5 -17.5 t20.5 -76.5q0 -34 -4.5 -54t-17 -31.5t-30.5 -15t-48 -3.5q-61 0 -81.5 19.5t-20.5 84.5q0 59 20.5 76.5t81.5 17.5z" />
<glyph unicode="&#x2c6;" horiz-adv-x="1121" d="M896 965h-199l-121 130l-117 -130h-192l207 219h207z" />
<glyph unicode="&#x2dc;" horiz-adv-x="1215" d="M758 1194l105 -86q-25 -73 -75 -115.5t-123 -42.5q-34 0 -69 14t-58.5 31t-54.5 31t-58 14t-47.5 -19t-40.5 -67l-95 93q38 68 81.5 102.5t103.5 34.5q38 0 74.5 -14t59.5 -30.5t52 -30.5t55 -14q31 0 50 21t40 78z" />
<glyph unicode="&#x2000;" horiz-adv-x="756" />
<glyph unicode="&#x2001;" horiz-adv-x="1513" />
<glyph unicode="&#x2002;" horiz-adv-x="756" />
<glyph unicode="&#x2003;" horiz-adv-x="1513" />
<glyph unicode="&#x2004;" horiz-adv-x="504" />
<glyph unicode="&#x2005;" horiz-adv-x="378" />
<glyph unicode="&#x2006;" horiz-adv-x="252" />
<glyph unicode="&#x2007;" horiz-adv-x="252" />
<glyph unicode="&#x2008;" horiz-adv-x="189" />
<glyph unicode="&#x2009;" horiz-adv-x="302" />
<glyph unicode="&#x200a;" horiz-adv-x="84" />
<glyph unicode="&#x2010;" horiz-adv-x="516" d="M49 378v200h418v-200h-418z" />
<glyph unicode="&#x2011;" horiz-adv-x="516" d="M49 378v200h418v-200h-418z" />
<glyph unicode="&#x2012;" horiz-adv-x="516" d="M49 378v200h418v-200h-418z" />
<glyph unicode="&#x2013;" horiz-adv-x="981" d="M83 378v200h816v-200h-816z" />
<glyph unicode="&#x2014;" horiz-adv-x="1469" d="M83 378v200h1304v-200h-1304z" />
<glyph unicode="&#x2018;" horiz-adv-x="433" d="M41 858l185 446h170l-133 -446h-222z" />
<glyph unicode="&#x2019;" horiz-adv-x="433" d="M394 1296l-185 -446h-170l133 446h222z" />
<glyph unicode="&#x201a;" horiz-adv-x="415" d="M386 175l-185 -446h-170l133 446h222z" />
<glyph unicode="&#x201c;" horiz-adv-x="764" d="M41 858l185 446h170l-133 -446h-222zM370 858l186 446h169l-132 -446h-223z" />
<glyph unicode="&#x201d;" horiz-adv-x="764" d="M724 1297l-185 -445h-170l132 445h223zM394 1297l-185 -445h-170l133 445h222z" />
<glyph unicode="&#x201e;" horiz-adv-x="764" d="M724 167l-185 -446h-170l132 446h223zM394 167l-185 -446h-170l133 446h222z" />
<glyph unicode="&#x2022;" d="M498 95q-107 0 -181 22.5t-127.5 75t-78.5 142t-25 221.5q0 131 25.5 220t79 140t127 72.5t180.5 21.5q108 0 182.5 -21.5t128.5 -73t79 -139.5t25 -220q0 -106 -16.5 -184t-48.5 -131.5t-83.5 -85.5t-116 -46t-150.5 -14z" />
<glyph unicode="&#x2026;" horiz-adv-x="1938" d="M370 243q42 0 65.5 -4t41 -16.5t23.5 -35.5t6 -63q0 -81 -28 -106.5t-108 -25.5q-76 0 -103 25.5t-27 106.5q0 40 6 63t22.5 35.5t39 16.5t62.5 4zM967 243q27 0 45.5 -1.5t34.5 -6t25.5 -12.5t16.5 -21.5t9.5 -32t2.5 -45.5q0 -81 -27.5 -106.5t-106.5 -25.5 q-77 0 -104.5 25.5t-27.5 106.5q0 40 6 63t23 35.5t40 16.5t63 4zM1564 243q42 0 65.5 -4t41 -16.5t23.5 -35.5t6 -63q0 -81 -28 -106.5t-108 -25.5q-76 0 -103.5 25.5t-27.5 106.5q0 40 6 63t23 35.5t39.5 16.5t62.5 4z" />
<glyph unicode="&#x202f;" horiz-adv-x="302" />
<glyph unicode="&#x2030;" horiz-adv-x="2300" d="M1076 1184h199l-730 -1184h-196zM368.5 1213q85.5 0 141.5 -16.5t95 -59.5t56 -116t17 -186q0 -114 -17 -189.5t-56 -121t-95.5 -64t-140.5 -18.5q-68 0 -117 11.5t-86.5 39t-60.5 73.5t-34 112t-11 157q0 113 16.5 186t56 116t95 59.5t141 16.5zM369 593q37 0 59.5 9.5 t37 37t20 73t5.5 120.5q0 61 -3.5 101t-11.5 66.5t-23.5 40t-34.5 18.5t-49 5q-51 0 -75.5 -16t-36.5 -65.5t-12 -149.5q0 -75 6 -121t21 -73t37.5 -36.5t59.5 -9.5zM1261.5 746q85.5 0 141.5 -17t95 -60t55.5 -115.5t16.5 -184.5q0 -115 -17 -190.5t-55.5 -120.5t-95 -63.5 t-141 -18.5t-141 18.5t-95.5 63.5t-56 120.5t-17 190.5q0 112 17 185t56 115.5t95 59.5t141.5 17zM1262 126q49 0 74 19t36.5 70t11.5 152q0 100 -11.5 148.5t-36 65t-74.5 16.5q-25 0 -42 -3t-32 -12.5t-24 -25t-15.5 -41.5t-9 -62t-2.5 -86q0 -100 12 -151.5t37.5 -70.5 t75.5 -19zM1933.5 746q85.5 0 141 -17t94.5 -60t56 -115.5t17 -184.5q0 -115 -17 -190.5t-56 -120.5t-95 -63.5t-141 -18.5t-141.5 18.5t-95 63.5t-56 120.5t-17.5 190.5q0 112 17.5 185t56.5 115.5t95 59.5t141.5 17zM1933 126q50 0 75 19t36 70t11 152q0 100 -11.5 148.5 t-35.5 65t-75 16.5q-25 0 -42 -3t-32 -12.5t-23.5 -25t-15 -41.5t-9 -62t-2.5 -86q0 -100 12 -151.5t37.5 -70.5t74.5 -19z" />
<glyph unicode="&#x2039;" horiz-adv-x="670" d="M626 881l-300 -347l300 -354l-120 -128l-460 478l459 474z" />
<glyph unicode="&#x203a;" horiz-adv-x="670" d="M46 178l301 347l-301 356l119 125l462 -476l-459 -475z" />
<glyph unicode="&#x205f;" horiz-adv-x="378" />
<glyph unicode="&#x20ac;" horiz-adv-x="1005" d="M90 603q0 121 15 213.5t46.5 160.5t75.5 113.5t108 72.5t138.5 38.5t172.5 11.5q81 0 176 -12t164 -32l-50 -197q-45 16 -117.5 27t-133.5 11t-103.5 -4t-82 -15.5t-65.5 -32.5t-46.5 -54.5t-32.5 -80.5h407v-145h-431q-1 -19 -1 -76q0 -60 1 -77h431v-144h-407 q12 -50 32 -85t46 -57.5t65 -35t82.5 -17t104.5 -4.5t133.5 10.5t117.5 26.5l50 -200q-69 -19 -163.5 -31t-176.5 -12q-97 0 -172.5 13t-139 42.5t-108 77t-75.5 117.5t-46 163.5t-15 213.5z" />
<glyph unicode="&#x2122;" horiz-adv-x="1400" d="M357 574h-151v478h-194v132h537v-132h-192v-478zM813 1184l154 -412l150 412h190v-610h-143v425l-147 -401h-118l-143 401v-425h-143v610h200z" />
<glyph unicode="&#x2190;" horiz-adv-x="1286" d="M663 44l-637 580l636 580l149 -152l-369 -330h820v-198h-820l369 -328z" />
<glyph unicode="&#x2191;" horiz-adv-x="1289" d="M65 603l581 638l578 -638l-150 -149l-329 370v-819h-200v819l-328 -370z" />
<glyph unicode="&#x2192;" horiz-adv-x="1286" d="M624 1202l638 -578l-638 -582l-150 154l371 328h-819v198h819l-371 330z" />
<glyph unicode="&#x2193;" horiz-adv-x="1289" d="M1224 642l-580 -637l-579 636l151 149l329 -368v819h200v-819l327 368z" />
<glyph unicode="&#x25fc;" horiz-adv-x="866" d="M0 867h867v-867h-867v867z" />
<glyph unicode="&#xf6fa;" horiz-adv-x="1401" d="M1338 865v-171h-473q38 -64 45 -162h319v-162h-319q-3 -125 -47 -198h475v-172h-653q-76 -24 -187 -24q-85 0 -149 14t-115 46t-82.5 85t-48.5 131.5t-17 184.5q0 131 25.5 219.5t79 140t127 73t180.5 21.5t192 -26h648zM498 720q-47 0 -77 -6t-54.5 -23t-37 -50 t-18.5 -82.5t-6 -125.5q0 -73 6 -122t19 -82.5t36.5 -51t54 -24.5t77.5 -7q34 0 58.5 3.5t46.5 11.5t36.5 22.5t26 36t17.5 52t9.5 70t3.5 91.5q0 63 -4 107.5t-14 77.5t-24 52t-38 31t-51 15.5t-67 3.5z" />
<glyph unicode="&#xf721;" horiz-adv-x="555" d="M154 865h244l-46 -513h-153zM277 240q80 0 107.5 -23t27.5 -98q0 -43 -6.5 -68t-23.5 -39.5t-40.5 -19t-64.5 -4.5q-39 0 -62.5 4.5t-40.5 19t-23.5 39.5t-6.5 68q0 75 28 98t105 23z" />
<glyph unicode="&#xf726;" horiz-adv-x="1186" d="M1163 0h-233q-44 64 -77 109q-94 -62 -201 -97.5t-215.5 -35.5t-178.5 11.5t-117 41t-66.5 77.5t-19.5 123q0 104 58 165t184 67q-49 3 -83.5 14.5t-55 28.5t-32.5 43.5t-15.5 54t-3.5 66.5q0 43 6.5 73.5t23.5 56.5t44 43t69.5 28.5t99 16.5t133.5 5q92 0 155.5 -8 t106.5 -23.5t66.5 -43t33.5 -62.5t10 -86q0 -95 -48.5 -148t-167.5 -63q105 -11 223 -117q65 82 83 168h228q-28 -150 -170 -292q79 -90 160 -216zM444 139q57 0 112.5 13.5t103 36.5t83.5 54q-43 46 -86.5 75t-91 43.5t-101.5 14.5q-34 0 -58 -2t-50 -9t-42 -19 t-26.5 -34.5t-10.5 -53.5q0 -68 37 -93.5t130 -25.5zM480 539q90 0 129.5 20.5t39.5 76.5q0 54 -33.5 74.5t-129.5 20.5q-97 0 -131.5 -21t-34.5 -74q0 -56 35 -76.5t125 -20.5z" />
<glyph unicode="&#xf730;" horiz-adv-x="1064" d="M535 -24q-98 0 -168 22.5t-122.5 74.5t-78 142t-25.5 222q0 104 17.5 182.5t49.5 130t81.5 83t109 45t136.5 13.5q56 0 101 -7t86 -22t72 -39t55.5 -59.5t40.5 -82.5t24.5 -108t8.5 -136q0 -106 -16.5 -184.5t-47 -131.5t-78.5 -85.5t-107.5 -46t-138.5 -13.5zM535.5 720 q-42.5 0 -70 -6t-50 -23t-34.5 -49.5t-18 -83t-6 -125.5q0 -91 8.5 -146t31 -87t54.5 -43t84 -11q43 0 70.5 7t48.5 24.5t31.5 51.5t15.5 82t5 122q0 76 -5.5 125.5t-16 82.5t-32 50t-48 23t-69 6z" />
<glyph unicode="&#xf731;" horiz-adv-x="1064" d="M749 0h-212v615l-265 -120l-61 176l538 220v-891z" />
<glyph unicode="&#xf732;" horiz-adv-x="1064" d="M208 657l-50 195q66 15 169.5 27t185.5 12q150 0 235.5 -29t121 -87t35.5 -157q0 -62 -22 -116t-72 -109.5t-137.5 -110t-214.5 -110.5h464v-172h-774v154q140 78 231.5 133t151.5 97t90.5 75.5t41.5 59.5t11 59q0 45 -16.5 70t-59.5 38t-122 13q-60 0 -145.5 -12.5 t-123.5 -29.5z" />
<glyph unicode="&#xf733;" horiz-adv-x="1064" d="M326 206v190h165q109 0 153 32t44 117q0 56 -20 86t-75 44.5t-160 14.5q-70 0 -157 -10.5t-140 -27.5l-44 195q204 44 385 44q128 0 214 -17t138.5 -54.5t74.5 -93t22 -138.5q0 -50 -6 -87.5t-22.5 -73t-44.5 -59t-73.5 -39.5t-108.5 -21q83 -4 138.5 -26.5t86 -64.5 t42.5 -93t12 -122q0 -65 -11.5 -115t-37 -88.5t-63.5 -65t-92 -43.5t-121 -24.5t-153 -7.5q-89 0 -198 12.5t-191 30.5l45 194q54 -16 140.5 -25t161.5 -9q113 0 172.5 17t82 52.5t22.5 101.5q0 100 -47 137t-165 37h-169z" />
<glyph unicode="&#xf734;" horiz-adv-x="1064" d="M627 0h-588v68q118 206 256.5 428t248.5 369h298v-690h157v-175h-157v-326h-215v326zM627 175v503q-121 -156 -316 -503h316z" />
<glyph unicode="&#xf735;" horiz-adv-x="1064" d="M164 865h733v-194h-523v-259q92 6 143 6q125 0 207.5 -20t133 -66t71.5 -114t21 -169q0 -114 -24.5 -188.5t-81.5 -121t-142.5 -65.5t-215.5 -19q-57 0 -126.5 5.5t-136.5 15t-114 21.5l44 194q52 -16 133.5 -25t155.5 -9q83 0 133.5 8.5t80.5 30.5t40.5 54.5t10.5 86.5 q0 47 -5.5 76.5t-21 53.5t-44.5 36t-72.5 18t-109.5 6q-169 0 -290 -23v661z" />
<glyph unicode="&#xf736;" horiz-adv-x="1064" d="M957 1168l-49 -198q-47 18 -123 29t-156 11q-60 0 -102.5 -6.5t-80.5 -25t-61 -51.5t-36.5 -85t-15.5 -127q112 20 225 20q125 0 208.5 -20.5t135 -66t73 -113.5t21.5 -170q0 -114 -23.5 -188t-78 -119t-136.5 -63.5t-207 -18.5q-74 0 -131.5 9.5t-106 30t-84 54.5 t-62 82t-42.5 114t-23.5 148.5t-7.5 187.5q0 122 12.5 213.5t41 160t69.5 114t103 73t136 39t173 11.5q79 0 169 -12.5t159 -32.5zM551 178q66 0 106.5 9t64 31t32 53.5t8.5 82.5q0 53 -8 86.5t-30 58t-59.5 35t-96.5 10.5q-139 0 -238 -17q1 -88 10.5 -149.5t26 -100.5 t44.5 -61t60.5 -30t79.5 -8z" />
<glyph unicode="&#xf737;" horiz-adv-x="1064" d="M1015 865v-66q-77 -124 -178.5 -325.5t-196.5 -420.5t-149 -379h-253q98 268 236 558.5t243 438.5h-612v194h910z" />
<glyph unicode="&#xf738;" horiz-adv-x="1064" d="M532 160q122 0 167.5 39.5t45.5 142.5q0 104 -48 148t-165 44t-164 -44t-47 -148q0 -103 45 -142.5t166 -39.5zM532 709q103 0 147.5 38.5t44.5 128.5q0 59 -19 91.5t-59.5 46t-113.5 13.5t-114 -13.5t-60 -46t-19 -91.5q0 -90 45 -128.5t148 -38.5zM532 -24 q-243 0 -344.5 77.5t-101.5 266.5q0 71 12 122.5t42 93.5t85.5 65t138.5 26q-63 6 -108 22.5t-72.5 40.5t-44 60t-22 73.5t-5.5 87.5q0 81 19.5 135.5t67 93t129 56t204.5 17.5t204.5 -17.5t129 -56t67 -93t19.5 -135.5q0 -41 -4 -73.5t-14 -64.5t-28 -55.5t-45.5 -42.5 t-67.5 -31t-92 -17q82 -3 137.5 -26t85.5 -65t42 -93.5t12 -122.5q0 -190 -101 -267t-345 -77z" />
<glyph unicode="&#xf739;" horiz-adv-x="1064" d="M287 -326q288 272 386 467q-68 -8 -148 -8q-126 0 -209 18t-135 61.5t-73.5 109.5t-21.5 168q0 114 23.5 189.5t77.5 123t137 68t208 20.5q92 0 158 -8t118 -27.5t84.5 -49.5t53.5 -77t29.5 -106t8.5 -142q0 -98 -22.5 -193t-59.5 -174.5t-93 -160t-113 -145t-130 -134.5 h-279zM549 323q105 0 184 11q15 59 15 123q0 45 -3.5 78t-10.5 58.5t-20 42t-28 27.5t-39.5 16.5t-50.5 8t-64 2.5q-65 0 -106.5 -10.5t-64.5 -35.5t-31.5 -58t-8.5 -86q0 -38 3.5 -64t13.5 -47t25.5 -33t42.5 -20t60.5 -10.5t82.5 -2.5z" />
<glyph unicode="&#xf73f;" horiz-adv-x="819" d="M383 243q33 0 54 -2.5t38 -9t26 -20.5t13.5 -34.5t4.5 -52.5q0 -34 -4.5 -56.5t-13.5 -37.5t-26 -23t-38 -11t-54 -3q-40 0 -63 5t-39.5 19t-23 39.5t-6.5 67.5q0 32 4.5 53t13 34t25.5 20t37 9.5t52 2.5zM481 344h-209q61 46 97 77.5t67 67t44 70.5t13 75 q0 47 -32.5 66.5t-116.5 19.5q-133 0 -237 -30l-32 175q162 32 285 32q202 0 286.5 -52.5t84.5 -173.5q0 -99 -56.5 -172t-193.5 -155z" />
<glyph unicode="&#xf761;" horiz-adv-x="956" d="M725 0q-30 68 -79 209h-362q-35 -108 -62 -209h-217q102 352 311 865h328q43 -145 92 -295.5t105.5 -304.5t105.5 -265h-222zM490 696h-36q-59 -147 -121 -332h260q-53 158 -103 332z" />
<glyph unicode="&#xf762;" horiz-adv-x="985" d="M328 164h259q50 0 71.5 22t21.5 75q0 39 -11 64t-33 37t-55 12h-253v-210zM328 702v-173h250q30 0 48.5 9.5t27 28.5t8.5 50q0 49 -19 67t-65 18h-250zM683 459q64 -2 107 -18t67 -47t34 -68.5t10 -88.5q0 -237 -255 -237h-529v865h522q72 0 120 -14t74.5 -42t37 -64 t10.5 -87q0 -46 -8 -78t-29 -59t-60.5 -42.5t-100.5 -19.5z" />
<glyph unicode="&#xf763;" horiz-adv-x="798" d="M731 201l48 -180q-50 -20 -125.5 -32.5t-138.5 -12.5q-81 0 -145.5 13.5t-118.5 46.5t-89.5 85t-55.5 131.5t-20 184.5q0 104 20 182.5t55.5 130t90 83t118.5 45t145 13.5q31 0 67.5 -3t71.5 -8.5t68 -13t57 -16.5l-48 -180q-98 37 -201 37q-49 0 -82 -5.5t-62.5 -22 t-46 -46.5t-25.5 -79t-9 -121q0 -85 13 -139t43 -83.5t69 -40t100 -10.5q102 0 201 41z" />
<glyph unicode="&#xf764;" horiz-adv-x="992" d="M117 865h368q86 0 150 -12t116.5 -41.5t85.5 -78.5t50.5 -122.5t17.5 -173.5q0 -101 -17.5 -175.5t-50 -124.5t-85 -80.5t-117 -43.5t-150.5 -13h-368v865zM469 702h-141v-538h141q60 0 97.5 10t66.5 39t41 82.5t12 137.5q0 70 -8.5 118.5t-24 78t-44 45.5t-60 21.5 t-80.5 5.5z" />
<glyph unicode="&#xf765;" horiz-adv-x="858" d="M793 865v-171h-465v-162h357v-162h-357v-198h465v-172h-676v865h676z" />
<glyph unicode="&#xf766;" horiz-adv-x="805" d="M117 0v865h676v-171h-465v-204h357v-165h-357v-325h-211z" />
<glyph unicode="&#xf767;" horiz-adv-x="966" d="M858 505v-469q-34 -13 -75.5 -23.5t-86 -19t-92 -13t-89.5 -4.5q-80 0 -144 13.5t-118.5 46.5t-90.5 85t-56 131.5t-20 184.5q0 103 22 182t60 130t95 83t122 45.5t147 13.5q31 0 70.5 -3t79 -8.5t77 -13t62.5 -16.5l-54 -174q-105 38 -228 38q-41 0 -71 -4.5 t-57.5 -15.5t-46 -31t-32.5 -50.5t-20.5 -75t-6.5 -104.5q0 -84 14 -140t44.5 -86.5t69.5 -42t97 -11.5q82 0 140 24v163h-184v165h372z" />
<glyph unicode="&#xf768;" horiz-adv-x="997" d="M668 367h-340v-367h-211v865h211v-318h340v318h211v-865h-211v367z" />
<glyph unicode="&#xf769;" horiz-adv-x="444" d="M328 865v-865h-211v865h211z" />
<glyph unicode="&#xf76a;" horiz-adv-x="703" d="M588 865v-566q0 -76 -19 -133.5t-50.5 -93t-76 -57.5t-90.5 -30.5t-101 -8.5q-143 0 -251 39l41 181q85 -34 191 -34q146 0 146 153v550h210z" />
<glyph unicode="&#xf76b;" horiz-adv-x="936" d="M938 0h-248q-296 428 -362 457v-457h-211v865h211v-408q37 31 125 137t210 271h250q-116 -156 -205 -259.5t-127 -133.5q37 -23 133 -147t224 -325z" />
<glyph unicode="&#xf76c;" horiz-adv-x="733" d="M328 865v-677h408v-188h-619v865h211z" />
<glyph unicode="&#xf76d;" horiz-adv-x="1279" d="M649 350q95 251 220 515h294v-865h-209v631q-116 -249 -239 -580h-157q-145 390 -232 580v-631h-209v865h308q102 -214 224 -515z" />
<glyph unicode="&#xf76e;" horiz-adv-x="1007" d="M680 337v528h211v-865h-211q-198 353 -352 545v-545h-211v865h208q221 -287 355 -528z" />
<glyph unicode="&#xf76f;" d="M498 -24q-85 0 -149 14t-115 46t-82.5 85t-48.5 131.5t-17 184.5q0 131 25.5 219.5t79 140t127 73t180.5 21.5q108 0 182.5 -21.5t128.5 -73t79 -140t25 -219.5q0 -133 -25 -222.5t-78.5 -142t-128.5 -74.5t-183 -22zM498 719q-39 0 -65.5 -4t-50 -15.5t-37 -30.5 t-23.5 -51.5t-13.5 -77t-3.5 -107.5q0 -73 6 -122t18.5 -82t36.5 -50t54.5 -24t77.5 -7q48 0 79 7t55.5 24t37.5 50t19.5 82t6.5 122q0 63 -4 107.5t-14.5 77t-24 51.5t-37.5 30.5t-51 15.5t-67 4z" />
<glyph unicode="&#xf770;" horiz-adv-x="956" d="M578 702h-250v-233h250q93 0 93 114q0 61 -23 90t-70 29zM637 315h-309v-315h-211v865h504q142 0 206.5 -68.5t64.5 -209.5q0 -272 -255 -272z" />
<glyph unicode="&#xf771;" d="M481 -24q-97 0 -167.5 22.5t-123 74.5t-78.5 142.5t-26 221.5t25.5 219.5t79 140t127 73t180.5 21.5q108 0 182.5 -21.5t128.5 -73t79 -140t25 -219.5q0 -183 -50 -283.5t-154 -140.5q58 -14 131 -88.5t183 -234.5h-236q-91 139 -169 212.5t-137 73.5zM498 720 q-47 0 -77 -6t-54.5 -23t-37 -50t-18.5 -82.5t-6 -125.5q0 -73 6 -122t19 -82.5t36.5 -51t54 -24.5t77.5 -7q34 0 58.5 3.5t46.5 11.5t36.5 22.5t26 36t17.5 52t9.5 70t3.5 91.5q0 63 -4 107.5t-14 77.5t-24 52t-38 31t-51 15.5t-67 3.5z" />
<glyph unicode="&#xf772;" horiz-adv-x="975" d="M627 865q267 0 267 -253q0 -229 -237 -238q47 -12 82.5 -40.5t88.5 -105t139 -228.5h-245q-67 127 -116 195t-83 90.5t-74 22.5h-121v-308h-211v865h510zM328 474h240q51 0 79 28.5t28 84.5t-25.5 82.5t-78.5 26.5h-243v-222z" />
<glyph unicode="&#xf773;" horiz-adv-x="834" d="M738 843l-46 -165q-123 41 -252 41q-44 0 -69 -3t-47 -13t-31 -30.5t-9 -54.5q0 -45 36.5 -64t141.5 -29q161 -17 231.5 -75t70.5 -185q0 -82 -26.5 -139.5t-77.5 -89.5t-116 -46t-151 -14q-73 0 -162 12.5t-148 33.5l45 166q23 -8 54.5 -15.5t65 -13t69.5 -8.5t67 -3 q47 0 76 3.5t52 15t32.5 32.5t9.5 54q0 32 -14.5 51.5t-55.5 32.5t-115 20q-75 6 -126.5 20t-90.5 41.5t-57.5 73t-18.5 111.5t18 116t49.5 82.5t79 52.5t102 28.5t122.5 8.5q69 0 147.5 -13t143.5 -35z" />
<glyph unicode="&#xf774;" horiz-adv-x="824" d="M517 681v-681h-211v681h-298v184h808v-184h-299z" />
<glyph unicode="&#xf775;" horiz-adv-x="981" d="M491.5 165q98.5 0 133.5 39t35 135v526h209v-515q0 -107 -19.5 -177.5t-65.5 -115t-116 -63t-176.5 -18.5t-177 18.5t-116.5 63t-66 115t-20 177.5v515h211v-526q0 -96 35 -135t133.5 -39z" />
<glyph unicode="&#xf776;" horiz-adv-x="887" d="M449 212q142 378 214 653h214q-114 -385 -311 -865h-260q-140 499 -291 865h220q113 -287 214 -653z" />
<glyph unicode="&#xf777;" horiz-adv-x="1410" d="M706 579q-30 -131 -77.5 -294.5t-89.5 -284.5h-260q-132 477 -279 865h222q110 -292 198 -649q44 127 101.5 328.5t85.5 320.5h206q40 -122 91.5 -313t83.5 -336q138 383 201 649h214q-122 -439 -297 -865h-261q-25 131 -67 304t-72 275z" />
<glyph unicode="&#xf778;" horiz-adv-x="885" d="M877 0h-238q-61 103 -182 274q-112 -153 -212 -274h-235q139 161 337 432q-187 261 -335 433h251q93 -114 199 -265q76 104 179 265h235q-124 -185 -298 -427q181 -254 299 -438z" />
<glyph unicode="&#xf779;" horiz-adv-x="827" d="M425 564q95 116 214 301h232q-165 -253 -344 -472v-393h-211v393q-215 303 -358 472h245q92 -110 222 -301z" />
<glyph unicode="&#xf77a;" horiz-adv-x="844" d="M60 865h746v-42q-88 -143 -222 -334.5t-224 -305.5h433v-183h-762v42q119 151 252 340t200 299h-423v184z" />
<glyph unicode="&#xf7a1;" horiz-adv-x="555" d="M399 0h-243l47 513h154zM279 627q-41 0 -64.5 4t-41 17t-24 36t-6.5 62q0 82 28.5 107.5t107.5 25.5q77 0 105 -25.5t28 -107.5q0 -39 -6.5 -62t-23.5 -36t-40 -17t-63 -4z" />
<glyph unicode="&#xf7bf;" horiz-adv-x="819" d="M425 639q-41 0 -64.5 4t-40.5 16.5t-23.5 35.5t-6.5 63q0 82 28 107.5t107 25.5q39 0 62.5 -5t40.5 -19.5t23.5 -40.5t6.5 -68q0 -39 -6.5 -62.5t-23.5 -36t-40 -16.5t-63 -4zM328 539h209q-41 -32 -68 -54t-54.5 -47.5t-44 -46.5t-30.5 -45t-19.5 -48.5t-5.5 -52.5 q0 -45 33 -64t116 -19q135 0 237 30l34 -175q-142 -29 -286 -29q-198 0 -285.5 50.5t-87.5 167.5q0 102 56.5 175.5t195.5 157.5z" />
<glyph unicode="&#xf7e0;" horiz-adv-x="956" d="M725 0q-30 68 -79 209h-362q-35 -108 -62 -209h-217q102 352 311 865h328q43 -145 92 -295.5t105.5 -304.5t105.5 -265h-222zM490 696h-36q-59 -147 -121 -332h260q-53 158 -103 332zM654 965h-187l-245 219h225z" />
<glyph unicode="&#xf7e1;" horiz-adv-x="956" d="M725 0q-30 68 -79 209h-362q-35 -108 -62 -209h-217q102 352 311 865h328q43 -145 92 -295.5t105.5 -304.5t105.5 -265h-222zM490 696h-36q-59 -147 -121 -332h260q-53 158 -103 332zM495 965h-185l205 219h226z" />
<glyph unicode="&#xf7e2;" horiz-adv-x="956" d="M725 0q-30 68 -79 209h-362q-35 -108 -62 -209h-217q102 352 311 865h328q43 -145 92 -295.5t105.5 -304.5t105.5 -265h-222zM490 696h-36q-59 -147 -121 -332h260q-53 158 -103 332zM792 965h-199l-121 130l-117 -130h-191l206 219h208z" />
<glyph unicode="&#xf7e3;" horiz-adv-x="956" d="M725 0q-30 68 -79 209h-362q-35 -108 -62 -209h-217q102 352 311 865h328q43 -145 92 -295.5t105.5 -304.5t105.5 -265h-222zM490 696h-36q-59 -147 -121 -332h260q-53 158 -103 332zM680 1194l105 -86q-25 -73 -75 -115.5t-123 -42.5q-34 0 -69 14t-58.5 31t-54.5 31 t-58 14t-48 -19.5t-41 -66.5l-94 93q14 27 28.5 47t32 37.5t36 29t41 17.5t47.5 6q38 0 74.5 -14t59.5 -30.5t52 -30.5t55 -14q31 0 50 21t40 78z" />
<glyph unicode="&#xf7e4;" horiz-adv-x="956" d="M725 0q-30 68 -79 209h-362q-35 -108 -62 -209h-217q102 352 311 865h328q43 -145 92 -295.5t105.5 -304.5t105.5 -265h-222zM490 696h-36q-59 -147 -121 -332h260q-53 158 -103 332zM292 1158q31 0 48.5 -3.5t31 -13.5t18 -28t4.5 -49q0 -65 -21 -85t-81 -20 q-59 0 -79.5 19.5t-20.5 85.5q0 59 20.5 76.5t79.5 17.5zM657 1158q58 0 78.5 -17.5t20.5 -76.5q0 -66 -20.5 -85.5t-78.5 -19.5q-61 0 -82 19.5t-21 85.5q0 59 21 76.5t82 17.5z" />
<glyph unicode="&#xf7e5;" horiz-adv-x="956" d="M725 0q-30 68 -79 209h-362q-35 -108 -62 -209h-217q102 352 311 865h328q43 -145 92 -295.5t105.5 -304.5t105.5 -265h-222zM490 696h-36q-59 -147 -121 -332h260q-53 158 -103 332zM471 1260q104 0 153 -38.5t49 -128.5q0 -91 -48.5 -129t-154 -38t-154.5 38t-49 129 q0 61 21 97.5t65 53t118 16.5zM470.5 1163q-50.5 0 -67.5 -16.5t-17 -56.5q0 -26 6.5 -41t25 -23.5t53.5 -8.5q49 0 67 17.5t18 55.5q0 40 -17.5 56.5t-68 16.5z" />
<glyph unicode="&#xf7e6;" horiz-adv-x="1372" d="M1200 532v-162h-357v-198h466v-172h-677v212h-381q-70 -105 -136 -212h-229q118 187 285.5 424.5t321.5 440.5h816v-171h-466v-162h357zM593 709q-117 -161 -239 -340h278v340h-39z" />
<glyph unicode="&#xf7e7;" horiz-adv-x="798" d="M731 201l48 -180q-49 -19 -120.5 -31.5t-133.5 -13.5v-47q102 0 144.5 -29.5t42.5 -103.5q0 -54 -23 -84.5t-72.5 -43.5t-136.5 -13q-106 0 -167 27l37 92q43 -21 121 -21q39 0 54 9.5t15 34.5q0 32 -33.5 41t-125.5 4l52 139q-66 6 -118.5 24.5t-96 53.5t-72.5 86 t-44.5 124.5t-15.5 167.5q0 104 20 182.5t55.5 130t90 83t118.5 45t145 13.5q31 0 67.5 -3t71.5 -8.5t68 -13t57 -16.5l-48 -180q-98 37 -201 37q-49 0 -82 -5.5t-62.5 -22t-46 -46.5t-25.5 -79t-9 -121q0 -85 13 -139t43 -83.5t69 -40t100 -10.5q102 0 201 41z" />
<glyph unicode="&#xf7e8;" horiz-adv-x="858" d="M793 865v-171h-465v-162h357v-162h-357v-198h465v-172h-676v865h676zM654 965h-187l-245 219h225z" />
<glyph unicode="&#xf7e9;" horiz-adv-x="858" d="M793 865v-171h-465v-162h357v-162h-357v-198h465v-172h-676v865h676zM488 965h-185l205 219h227z" />
<glyph unicode="&#xf7ea;" horiz-adv-x="858" d="M793 865v-171h-465v-162h357v-162h-357v-198h465v-172h-676v865h676zM793 965h-198l-121 130l-117 -130h-192l208 219h206z" />
<glyph unicode="&#xf7eb;" horiz-adv-x="858" d="M793 865v-171h-465v-162h357v-162h-357v-198h465v-172h-676v865h676zM295 1158q31 0 49 -3.5t31 -13.5t18 -28t5 -49q0 -65 -21.5 -85t-81.5 -20q-59 0 -79 19.5t-20 85.5q0 59 20 76.5t79 17.5zM660 1158q58 0 78.5 -17.5t20.5 -76.5q0 -66 -20.5 -85.5t-78.5 -19.5 q-61 0 -81.5 19.5t-20.5 85.5q0 59 20.5 76.5t81.5 17.5z" />
<glyph unicode="&#xf7ec;" horiz-adv-x="444" d="M328 865v-865h-211v865h211zM364 965h-187l-245 219h224z" />
<glyph unicode="&#xf7ed;" horiz-adv-x="444" d="M328 865v-865h-211v865h211zM260 965h-185l206 219h225z" />
<glyph unicode="&#xf7ee;" horiz-adv-x="444" d="M328 865v-865h-211v865h211zM539 965h-199l-121 130l-117 -130h-192l207 219h208z" />
<glyph unicode="&#xf7ef;" horiz-adv-x="444" d="M328 865v-865h-211v865h211zM42 1158q60 0 81 -17.5t21 -76.5q0 -65 -21 -85t-81 -20q-59 0 -79.5 19.5t-20.5 85.5q0 59 20.5 76.5t79.5 17.5zM406 1158q59 0 79.5 -17.5t20.5 -76.5q0 -65 -21 -85t-79 -20q-61 0 -81 19.5t-20 85.5q0 31 4.5 49t17 28.5t30 13.5t49.5 3 z" />
<glyph unicode="&#xf7f0;" horiz-adv-x="992" d="M37 374v153h80v338h368q86 0 150 -12t116.5 -41.5t85.5 -78.5t50.5 -122.5t17.5 -173.5q0 -101 -17.5 -175.5t-50 -124.5t-85 -80.5t-117 -43.5t-150.5 -13h-368v374h-80zM469 702h-141v-175h152v-153h-152v-210h141q60 0 97.5 10t66.5 39t41 82.5t12 137.5 q0 70 -8.5 118.5t-24 78t-44 45.5t-60 21.5t-80.5 5.5z" />
<glyph unicode="&#xf7f1;" horiz-adv-x="1007" d="M680 337v528h211v-865h-211q-198 353 -352 545v-545h-211v865h208q221 -287 355 -528zM720 1194l106 -86q-26 -73 -75.5 -115.5t-123.5 -42.5q-34 0 -68.5 14t-58 31t-54.5 31t-58 14t-48.5 -19.5t-40.5 -66.5l-95 93q15 27 29.5 47t32 37.5t36 29t40.5 17.5t47 6 q39 0 75.5 -14t59 -30.5t52 -30.5t55.5 -14q21 0 35.5 9t27.5 30t26 60z" />
<glyph unicode="&#xf7f2;" d="M498 -24q-85 0 -149 14t-115 46t-82.5 85t-48.5 131.5t-17 184.5q0 131 25.5 219.5t79 140t127 73t180.5 21.5q108 0 182.5 -21.5t128.5 -73t79 -140t25 -219.5q0 -133 -25 -222.5t-78.5 -142t-128.5 -74.5t-183 -22zM498 720q-47 0 -77 -6t-54.5 -23t-37 -50 t-18.5 -82.5t-6 -125.5q0 -73 6 -122t19 -82.5t36.5 -51t54 -24.5t77.5 -7q34 0 58.5 3.5t46.5 11.5t36.5 22.5t26 36t17.5 52t9.5 70t3.5 91.5q0 63 -4 107.5t-14 77.5t-24 52t-38 31t-51 15.5t-67 3.5zM675 965h-187l-245 219h224z" />
<glyph unicode="&#xf7f3;" d="M498 -24q-85 0 -149 14t-115 46t-82.5 85t-48.5 131.5t-17 184.5q0 131 25.5 219.5t79 140t127 73t180.5 21.5q108 0 182.5 -21.5t128.5 -73t79 -140t25 -219.5q0 -133 -25 -222.5t-78.5 -142t-128.5 -74.5t-183 -22zM498 720q-47 0 -77 -6t-54.5 -23t-37 -50 t-18.5 -82.5t-6 -125.5q0 -73 6 -122t19 -82.5t36.5 -51t54 -24.5t77.5 -7q34 0 58.5 3.5t46.5 11.5t36.5 22.5t26 36t17.5 52t9.5 70t3.5 91.5q0 63 -4 107.5t-14 77.5t-24 52t-38 31t-51 15.5t-67 3.5zM522 965h-185l205 219h227z" />
<glyph unicode="&#xf7f4;" d="M498 -24q-85 0 -149 14t-115 46t-82.5 85t-48.5 131.5t-17 184.5q0 131 25.5 219.5t79 140t127 73t180.5 21.5q108 0 182.5 -21.5t128.5 -73t79 -140t25 -219.5q0 -133 -25 -222.5t-78.5 -142t-128.5 -74.5t-183 -22zM498 720q-47 0 -77 -6t-54.5 -23t-37 -50 t-18.5 -82.5t-6 -125.5q0 -73 6 -122t19 -82.5t36.5 -51t54 -24.5t77.5 -7q34 0 58.5 3.5t46.5 11.5t36.5 22.5t26 36t17.5 52t9.5 70t3.5 91.5q0 63 -4 107.5t-14 77.5t-24 52t-38 31t-51 15.5t-67 3.5zM811 965h-199l-121 130l-117 -130h-192l207 219h208z" />
<glyph unicode="&#xf7f5;" d="M498 -24q-85 0 -149 14t-115 46t-82.5 85t-48.5 131.5t-17 184.5q0 131 25.5 219.5t79 140t127 73t180.5 21.5q108 0 182.5 -21.5t128.5 -73t79 -140t25 -219.5q0 -133 -25 -222.5t-78.5 -142t-128.5 -74.5t-183 -22zM498 720q-47 0 -77 -6t-54.5 -23t-37 -50 t-18.5 -82.5t-6 -125.5q0 -73 6 -122t19 -82.5t36.5 -51t54 -24.5t77.5 -7q34 0 58.5 3.5t46.5 11.5t36.5 22.5t26 36t17.5 52t9.5 70t3.5 91.5q0 63 -4 107.5t-14 77.5t-24 52t-38 31t-51 15.5t-67 3.5zM702 1194l106 -86q-17 -48 -43.5 -82t-66.5 -55t-90 -21 q-34 0 -68.5 14t-58.5 31t-54.5 31t-57.5 14t-48 -19t-40 -67l-96 93q39 68 82 102.5t103 34.5q39 0 75.5 -14t59 -30.5t52 -30.5t55.5 -14q31 0 50.5 21t39.5 78z" />
<glyph unicode="&#xf7f6;" d="M498 -24q-85 0 -149 14t-115 46t-82.5 85t-48.5 131.5t-17 184.5q0 131 25.5 219.5t79 140t127 73t180.5 21.5q108 0 182.5 -21.5t128.5 -73t79 -140t25 -219.5q0 -133 -25 -222.5t-78.5 -142t-128.5 -74.5t-183 -22zM498 720q-47 0 -77 -6t-54.5 -23t-37 -50 t-18.5 -82.5t-6 -125.5q0 -73 6 -122t19 -82.5t36.5 -51t54 -24.5t77.5 -7q34 0 58.5 3.5t46.5 11.5t36.5 22.5t26 36t17.5 52t9.5 70t3.5 91.5q0 63 -4 107.5t-14 77.5t-24 52t-38 31t-51 15.5t-67 3.5zM316 1158q31 0 48.5 -3.5t31 -13.5t18 -28t4.5 -49q0 -65 -21 -85 t-81 -20q-59 0 -79.5 19.5t-20.5 85.5q0 59 20.5 76.5t79.5 17.5zM680 1158q59 0 79.5 -17.5t20.5 -76.5q0 -65 -21 -85t-79 -20q-61 0 -81.5 19.5t-20.5 85.5q0 59 20.5 76.5t81.5 17.5z" />
<glyph unicode="&#xf7f8;" d="M785 865h182l-114 -129q60 -107 60 -299q0 -133 -25 -222.5t-78.5 -142t-128.5 -74.5t-183 -22q-163 0 -256 56l-30 -32h-178l112 129q-60 110 -60 308q0 131 25.5 219.5t79 140t127 73t180.5 21.5q171 0 260 -56zM498 719q-57 0 -91 -9.5t-60 -36.5t-36.5 -76.5 t-10.5 -129.5q0 -81 13 -151l318 374q-40 29 -133 29zM498 148q61 0 98.5 13.5t60 48t31 85.5t8.5 135q0 67 -11 115l-316 -368q37 -29 129 -29z" />
<glyph unicode="&#xf7f9;" horiz-adv-x="981" d="M491.5 165q98.5 0 133.5 39t35 135v526h209v-515q0 -107 -19.5 -177.5t-65.5 -115t-116 -63t-176.5 -18.5t-177 18.5t-116.5 63t-66 115t-20 177.5v515h211v-526q0 -96 35 -135t133.5 -39zM663 965h-187l-244 219h224z" />
<glyph unicode="&#xf7fa;" horiz-adv-x="981" d="M491.5 165q98.5 0 133.5 39t35 135v526h209v-515q0 -107 -19.5 -177.5t-65.5 -115t-116 -63t-176.5 -18.5t-177 18.5t-116.5 63t-66 115t-20 177.5v515h211v-526q0 -96 35 -135t133.5 -39zM500 965h-185l205 219h226z" />
<glyph unicode="&#xf7fb;" horiz-adv-x="981" d="M491.5 165q98.5 0 133.5 39t35 135v526h209v-515q0 -107 -19.5 -177.5t-65.5 -115t-116 -63t-176.5 -18.5t-177 18.5t-116.5 63t-66 115t-20 177.5v515h211v-526q0 -96 35 -135t133.5 -39zM804 965h-199l-120 130l-118 -130h-192l208 219h207z" />
<glyph unicode="&#xf7fc;" horiz-adv-x="981" d="M491.5 165q98.5 0 133.5 39t35 135v526h209v-515q0 -107 -19.5 -177.5t-65.5 -115t-116 -63t-176.5 -18.5t-177 18.5t-116.5 63t-66 115t-20 177.5v515h211v-526q0 -96 35 -135t133.5 -39zM311 1158q60 0 81 -17.5t21 -76.5q0 -27 -3.5 -45.5t-10 -30.5t-19.5 -18.5 t-28.5 -8.5t-40.5 -2q-59 0 -79.5 19.5t-20.5 85.5q0 31 4.5 49t17 28.5t30 13.5t48.5 3zM675 1158q59 0 79.5 -17.5t20.5 -76.5q0 -34 -4.5 -54.5t-17.5 -32t-30.5 -15t-47.5 -3.5q-61 0 -81.5 19.5t-20.5 85.5q0 59 20.5 76.5t81.5 17.5z" />
<glyph unicode="&#xf7fd;" horiz-adv-x="827" d="M425 564q95 116 214 301h232q-165 -253 -344 -472v-393h-211v393q-215 303 -358 472h245q92 -110 222 -301zM451 965h-186l206 219h226z" />
<glyph unicode="&#xf7fe;" horiz-adv-x="956" d="M328 165v-165h-211v865h211v-150h293q96 0 156.5 -31.5t87.5 -92t27 -154.5q0 -272 -255 -272h-309zM578 553h-250v-233h250q93 0 93 113q0 62 -23 91t-70 29z" />
<glyph unicode="&#xf7ff;" horiz-adv-x="827" d="M425 564q95 116 214 301h232q-165 -253 -344 -472v-393h-211v393q-215 303 -358 472h245q92 -110 222 -301zM247 1158q59 0 80.5 -17.5t21.5 -76.5q0 -34 -5 -54.5t-18 -32t-31 -15t-48 -3.5q-60 0 -80.5 19.5t-20.5 85.5q0 59 20.5 76.5t80.5 17.5zM610 1158 q59 0 79.5 -17.5t20.5 -76.5q0 -65 -20.5 -85t-79.5 -20q-61 0 -81.5 19.5t-20.5 85.5q0 59 20.5 76.5t81.5 17.5z" />
<glyph horiz-adv-x="1074" d="M537 1213q76 0 135 -11.5t110.5 -38.5t87.5 -72.5t62 -112t38.5 -158.5t12.5 -212q0 -145 -18.5 -252.5t-53 -180t-90 -117t-124.5 -63.5t-160 -19t-159.5 19t-123.5 63.5t-90 117t-53.5 180t-18.5 252.5q0 143 18.5 247.5t53 173t90.5 110t123.5 58t159.5 16.5zM537 178 q46 0 77.5 7t57.5 26t42 48.5t26.5 79t14.5 114t4 155.5q0 92 -4 155t-15 110t-26 73.5t-42 42.5t-57.5 21t-77.5 5t-77 -5t-57 -21t-42 -42.5t-26 -73.5t-15 -110t-4 -155q0 -78 3.5 -136t10 -104.5t19 -78t28.5 -54t40.5 -34.5t52.5 -17.5t67 -5.5z" />
<glyph horiz-adv-x="674" d="M525 0h-220v945l-266 -114l-61 184l547 219v-1234z" />
<glyph horiz-adv-x="1035" d="M165 965l-50 195q177 53 380 53q115 0 193 -16t134.5 -55t82.5 -107t26 -170q0 -64 -7 -110.5t-30.5 -97t-59 -94t-101 -102t-148.5 -120t-209 -148.5h555v-193h-860v180q162 123 252.5 193.5t170 139.5t112 104t57.5 78.5t29 72.5t4 79q0 95 -49 130t-173 35 q-79 0 -168 -13.5t-141 -33.5z" />
<glyph horiz-adv-x="1017" d="M310 527v190h162q110 0 154.5 33.5t44.5 118.5q0 56 -20 86t-75 44t-159 14q-47 0 -102 -4.5t-108.5 -13t-87.5 -19.5l-44 193q200 44 384 44q128 0 213.5 -16.5t138.5 -54t75 -93t22 -138.5q0 -63 -10.5 -108t-37 -84t-78 -62t-128.5 -30q55 -2 98 -13t73.5 -31t51 -46 t32.5 -61t17 -72.5t5 -83.5q0 -78 -17.5 -135t-52.5 -97.5t-92.5 -65t-133.5 -35.5t-179 -11q-91 0 -199 12t-191 31l43 193q55 -15 141.5 -24.5t161.5 -9.5q114 0 173 17.5t81 52.5t22 102q0 100 -47.5 138.5t-163.5 38.5h-167z" />
<glyph horiz-adv-x="1030" d="M618 305h-591v69q111 197 253 427.5t254 382.5h299v-694h158v-185h-158v-305h-215v305zM618 490v501q-77 -101 -168 -247t-151 -254h319z" />
<glyph horiz-adv-x="1033" d="M156 1184h735v-193h-524v-263q91 7 143 7q125 0 207.5 -20.5t133 -66t72 -113.5t21.5 -170q0 -113 -24.5 -187.5t-82 -119.5t-142.5 -63.5t-215 -18.5q-86 0 -195.5 12.5t-182.5 30.5l44 193q52 -16 133.5 -25t155.5 -9q84 0 134 8t80.5 29t41 53t10.5 86q0 47 -6 76.5 t-21 53.5t-44.5 36t-73 18t-109.5 6q-170 0 -291 -24v664z" />
<glyph horiz-adv-x="1069" d="M955 1168l-49 -198q-31 12 -76 21t-97.5 14t-105.5 5q-58 0 -100 -6.5t-80 -25t-61.5 -51t-38 -85.5t-16.5 -127q112 20 225 20q126 0 209.5 -20.5t134.5 -66t72.5 -113.5t21.5 -170q0 -114 -23 -188t-78 -119t-136.5 -63.5t-207.5 -18.5q-86 0 -150.5 12.5t-117 42 t-87.5 76.5t-58 117.5t-33.5 162.5t-10.5 215q0 122 12.5 213.5t41 160t69.5 114t103 73t136 39t173 11.5q79 0 169 -12.5t159 -32.5zM549 178q66 0 106.5 9t64 31t31.5 53t8 83q0 53 -8 86.5t-29.5 58t-59 35t-96.5 10.5q-128 0 -238 -17q1 -88 11 -149.5t26 -100.5t44 -61 t60.5 -30t79.5 -8z" />
<glyph horiz-adv-x="897" d="M930 1184v-67q-118 -188 -274.5 -528.5t-238.5 -588.5h-253q100 275 232.5 559.5t235.5 431.5h-611v193h909z" />
<glyph horiz-adv-x="1072" d="M537 160q122 0 166.5 39.5t44.5 142.5q0 104 -47.5 148t-163.5 44q-117 0 -164.5 -44t-47.5 -148q0 -103 44.5 -142.5t167.5 -39.5zM537 709q51 0 87 9t59.5 29t35 51.5t11.5 77.5q0 86 -43 118.5t-150 32.5q-109 0 -151 -32.5t-42 -118.5q0 -90 45 -128.5t148 -38.5z M537 -24h-2q-243 0 -344 77t-101 267q0 56 7 99.5t25.5 82.5t49.5 64.5t79.5 42t115.5 18.5q-63 6 -108 22.5t-72.5 40.5t-43.5 60t-22 73.5t-6 87.5q0 81 19.5 135.5t67 93t129 56t204.5 17.5t205 -17.5t130 -56t67.5 -93t19.5 -135.5q0 -41 -4 -73.5t-14 -64.5t-28 -55.5 t-45.5 -42.5t-67.5 -31t-92 -17q81 -3 136.5 -26t85 -65t41.5 -93.5t12 -122.5q0 -190 -100.5 -267t-343.5 -77z" />
<glyph horiz-adv-x="1064" d="M286 0q288 273 382 464q-68 -8 -146 -8q-127 0 -209.5 18t-134.5 61t-73.5 109.5t-21.5 168.5q0 114 23.5 189.5t77.5 123t137 67.5t208 20q91 0 157 -7.5t117.5 -27t84 -49.5t53.5 -77t29.5 -106.5t8.5 -141.5q0 -98 -22 -193t-58.5 -174t-91.5 -159t-112 -144 t-129 -134h-280zM545 646q97 0 185 12q13 52 13 122q0 45 -3.5 78t-10.5 58.5t-20 42t-28 27.5t-39 17t-50 8t-63 2q-66 0 -107.5 -10.5t-65 -35.5t-32 -58.5t-8.5 -85.5q0 -46 6 -75t19.5 -50.5t41 -32t65.5 -15t97 -4.5z" />
<glyph d="M894 837v-208q0 -109 -50.5 -184.5t-141 -112.5t-216.5 -37q-70 0 -136 18q-8 -22 -8 -50q0 -43 50 -60.5t187 -22.5q185 -5 268 -60t83 -172q0 -82 -31.5 -140t-93.5 -91.5t-144.5 -48.5t-194.5 -15q-210 0 -357 47l42 185q37 -14 84 -25t106 -18t118 -7 q136 0 193.5 22.5t57.5 72.5q0 20 -4.5 31.5t-17 21t-39.5 14.5t-64 8t-99 5q-104 3 -170.5 14.5t-105.5 36t-54 58.5t-15 87q0 81 49 149q-98 65 -98 233q0 149 98.5 226t317.5 77q62 0 133.5 -7t139 -19.5t113.5 -27.5zM683 613v84q-73 20 -183 20q-73 0 -113 -11 t-58.5 -38t-18.5 -78q0 -71 40.5 -97t142.5 -26q190 0 190 146z" />
<glyph horiz-adv-x="1453" d="M908 290v391q-91 0 -229.5 14t-158.5 14q-40 0 -68 -4t-54 -14.5t-42 -29.5t-28.5 -49.5t-17.5 -74.5t-5 -104q0 -85 11.5 -139t39.5 -84.5t66 -41t98 -10.5q107 0 190 35l48 -172q-51 -21 -119.5 -33t-132.5 -12q-79 0 -141.5 13.5t-116 46.5t-88.5 85t-54.5 131.5 t-19.5 184.5q0 104 20 182.5t55.5 129.5t89 83t115.5 45.5t140 13.5q36 0 176.5 -13t225.5 -13v147l211 86v-233h287v-184h-287v-371q0 -83 29 -117.5t104 -34.5q68 0 145 24l38 -167q-30 -11 -68.5 -20t-82 -14t-84.5 -5q-77 0 -128 13.5t-89.5 47.5t-56.5 96.5t-18 156.5z " />
<glyph horiz-adv-x="1024" d="M515 -165q-14 30 -39 52.5t-53.5 36.5t-62 26.5t-66 26t-64.5 31.5t-59.5 47t-48 68t-32.5 99t-12 137q0 180 62 271.5t178 91.5q86 0 197 -51q111 49 199 49q117 0 178.5 -89.5t61.5 -268.5q0 -77 -12.5 -137t-34 -99t-50 -68t-61 -47t-66 -32t-67 -26.5t-61.5 -26.5 t-51 -37t-36 -54zM515 500q-79 49 -126 49q-95 0 -95 -190q0 -57 8.5 -97.5t23.5 -62.5t34 -36.5t40.5 -23.5t41.5 -17.5t40 -24.5t33 -39q12 24 31.5 39.5t39 23.5t41.5 17t41 23t34.5 37t24.5 64t9 98q0 100 -20.5 143.5t-64.5 43.5t-136 -47zM515 694q14 41 14 90 q0 78 -45 125.5t-125 47.5h-359v172h1025v-172h-417q26 -32 26 -78q0 -53 -30.5 -104.5t-88.5 -80.5z" />
<glyph horiz-adv-x="1024" d="M510 -165q-13 31 -36.5 54t-51.5 37t-61.5 26.5t-67 26.5t-66.5 32t-61 47t-50 68t-34 99t-12 137q0 179 62 268.5t179 89.5q86 0 199 -49q108 51 196 51q116 0 178.5 -91.5t62.5 -271.5q0 -87 -17 -153.5t-38.5 -104.5t-63 -69t-68 -43t-77.5 -31q-47 -18 -71.5 -29 t-55.5 -36t-46 -58zM510 694q-25 12 -45 28.5t-34 35.5t-23.5 39.5t-14 41t-4.5 40.5q0 44 28 78h-417v172h1025v-172h-359q-80 0 -125.5 -48t-45.5 -125q0 -44 15 -90z" />
<glyph horiz-adv-x="1024" d="M515 1129q13 -31 36 -53.5t51 -36.5t61.5 -26.5t67 -26.5t66 -32t61 -47t50 -68t34 -99t12.5 -137q0 -180 -61.5 -270t-178.5 -90q-88 0 -199 49q-113 -49 -197 -49q-116 0 -178 91.5t-62 272.5q0 76 12 136t32.5 99.5t48 68t59.5 46.5t64.5 31.5t66 25.5t62 26 t53.5 36.5t39 52.5zM515 464q89 -46 136 -46q44 0 64.5 43.5t20.5 143.5q0 50 -7 88t-19 60.5t-28 39t-33.5 24.5t-37 16.5t-36.5 16t-33 22.5t-27 36q-13 -23 -33 -39t-40 -24.5t-41.5 -17.5t-40.5 -23.5t-34 -37t-23.5 -63t-8.5 -96.5q0 -190 95 -190q47 0 126 47z M515 272q39 -20 67 -52t40 -66t12 -68q0 -48 -26 -78h417v-172h-1025v172h359q80 0 125 48t45 126q0 47 -14 90z" />
<glyph horiz-adv-x="1024" d="M510 1129q14 -30 39 -52.5t53.5 -36.5t61.5 -26t66 -25.5t65 -31.5t59 -46.5t48 -68t33 -99.5t12 -136q0 -181 -62.5 -272.5t-178.5 -91.5q-86 0 -196 49q-113 -49 -199 -49q-117 0 -179 90t-62 270q0 77 12 137t34 99t50 68t61 47t66.5 32t67 26.5t61.5 26.5t51.5 36.5 t36.5 53.5zM510 272q-15 -48 -15 -90q0 -78 45.5 -126t125.5 -48h359v-172h-1025v172h417q-28 32 -28 78q0 53 31 104.5t90 81.5z" />
<glyph horiz-adv-x="1432" d="M26 480q30 14 52.5 39t36 53.5t25.5 62t25.5 66t31.5 64.5t46.5 59t67.5 48t99 32.5t137 11.5q121 0 203 -28t121.5 -81.5t39.5 -130.5q0 -81 -49 -196q49 -113 49 -199q0 -118 -90 -179t-270 -61q-76 0 -136 12.5t-99 34t-68.5 49.5t-47.5 61t-31.5 66.5t-26 67 t-26.5 61.5t-37 51t-53 36zM690 480q48 81 48 125q0 96 -191 96q-57 0 -97 -9t-62.5 -24t-36.5 -33.5t-23 -40t-17.5 -41.5t-24.5 -40t-39 -33q23 -12 39 -31t24 -39t17 -42t23.5 -41.5t37.5 -35t63.5 -24.5t97.5 -9q101 0 144 20.5t43 65.5t-46 136zM882 480q46 -14 90 -14 q78 0 125.5 45t47.5 125v358h172v-1025h-172v417q-29 -26 -78 -26q-33 0 -67 12.5t-65.5 40.5t-52.5 67z" />
<glyph horiz-adv-x="1432" d="M26 485q30 12 53 35.5t37 52t26.5 62t26 67t31.5 66t47.5 61t68.5 50t99 34t136 12.5q180 0 270 -62t90 -180q0 -83 -49 -198q49 -113 49 -196q0 -77 -39.5 -130.5t-121.5 -82.5t-203 -29q-77 0 -137 12t-99 33t-67.5 48t-46.5 59t-31.5 65t-25.5 66.5t-25.5 62t-36 53 t-52.5 39.5zM882 485q30 59 81.5 89.5t103.5 30.5q47 0 78 -27v416h172v-1025h-172v359q0 80 -47.5 126t-125.5 46q-41 0 -90 -15z" />
<glyph horiz-adv-x="1432" d="M1408 481q-31 -12 -54 -35.5t-37.5 -52t-27 -62t-26 -67t-31.5 -66.5t-47 -61t-68.5 -49.5t-99.5 -34t-136 -12.5q-179 0 -269 62t-90 179q0 86 49 199q-51 109 -51 195q0 117 92 179.5t272 62.5q76 0 136.5 -12t99.5 -32.5t68 -48t47 -59.5t31.5 -64.5t25.5 -66t26 -62 t36.5 -53t53.5 -39.5zM743 481q-47 -92 -47 -136q0 -45 43.5 -66t142.5 -21q58 0 99 9t63.5 24.5t37 35t23 41.5t17 42t24 39.5t38.5 31.5q-23 13 -39 33t-24.5 40t-17.5 41.5t-23 40t-36.5 33t-62.5 23.5t-97 9q-190 0 -190 -94q0 -48 49 -126zM549 481 q-28 -58 -80.5 -89.5t-104.5 -31.5q-44 0 -78 28v-417h-172v1025h172v-359q0 -80 47.5 -125.5t125.5 -45.5q42 0 90 15z" />
<glyph horiz-adv-x="1432" d="M1408 486q-28 -13 -49 -34.5t-34 -46.5t-26 -54.5t-22.5 -59t-25 -59t-33.5 -56.5t-48 -50.5t-67.5 -40.5t-93.5 -26.5t-125 -9.5q-180 0 -272 62t-92 178q0 86 51 197q-49 111 -49 199q0 117 89.5 178.5t269.5 61.5q69 0 125 -10.5t93.5 -28t67.5 -42t48 -52t34 -58 t25.5 -60t22.5 -59t26.5 -53.5t35 -44t49.5 -32zM549 486q-40 14 -90 14q-78 0 -125.5 -45t-47.5 -125v-359h-172v1025h172v-417q32 26 78 26q52 0 104.5 -30.5t80.5 -88.5z" />
<glyph horiz-adv-x="1308" d="M652 1043q-47 0 -84.5 -6t-71.5 -20t-59.5 -37t-46 -57t-33 -79.5t-19.5 -105t-7 -133.5q0 -131 20 -220.5t61.5 -142t99.5 -74.5t140 -22q84 0 142 22t100 74.5t62 142t20 220.5q0 103 -13.5 178.5t-38.5 125.5t-65.5 80t-90 42t-116.5 12zM652 290q-65 0 -98 25.5 t-48 91.5t-15 198q0 67 3 113t11 80t19 53.5t30.5 31.5t41.5 15.5t56 3.5q35 0 57.5 -3.5t43 -15.5t31.5 -31.5t19.5 -53.5t11.5 -80t3 -113q0 -132 -15 -198t-49 -91.5t-102 -25.5zM654 1213q83 0 149.5 -8.5t126 -28t104 -51.5t80 -79.5t57.5 -111t34 -146t12 -185.5 q0 -146 -23 -253t-66.5 -179t-113.5 -115.5t-156.5 -61.5t-203.5 -18t-204 18t-157 61.5t-113.5 115.5t-66.5 179t-23 253q0 120 15.5 212.5t48 160t77.5 113.5t110 73.5t140.5 39t172.5 11.5z" />
<glyph horiz-adv-x="1308" d="M602 170h156v894l-394 -158l44 -131l194 83v-688zM654 1213q83 0 149.5 -8.5t126 -28t104 -51.5t80 -79.5t57.5 -111t34 -146t12 -185.5q0 -146 -23 -253t-66.5 -179t-113.5 -115.5t-156.5 -61.5t-203.5 -18t-204 18t-157 61.5t-113.5 115.5t-66.5 179t-23 253 q0 120 15.5 212.5t48 160t77.5 113.5t110 73.5t140.5 39t172.5 11.5z" />
<glyph horiz-adv-x="1308" d="M654 1213q83 0 149.5 -8.5t126 -28t104 -51.5t80 -79.5t57.5 -111t34 -146t12 -185.5q0 -146 -23 -253t-66.5 -179t-113.5 -115.5t-156.5 -61.5t-203.5 -18t-204 18t-157 61.5t-113.5 115.5t-66.5 179t-23 253q0 120 15.5 212.5t48 160t77.5 113.5t110 73.5t140.5 39 t172.5 11.5zM359 1006l34 -135q39 12 104 21.5t121 9.5q90 0 126 -26t36 -96q0 -21 -1 -35t-5.5 -32t-10.5 -31t-20 -33t-29.5 -36t-43.5 -42.5t-57 -50.5t-76 -61.5t-94.5 -74.5t-116.5 -90v-127h623v138h-407q79 54 133.5 95t100.5 78t74 67.5t49 59.5t31 59t14.5 60 t4.5 69q0 74 -19 123.5t-60.5 78t-98.5 40.5t-140 12q-149 0 -272 -41z" />
<glyph horiz-adv-x="1308" d="M519 683v-138h120q88 0 123.5 -27.5t35.5 -100.5q0 -49 -16.5 -75t-60.5 -39t-128 -13q-53 0 -115.5 7t-103.5 19l-30 -138q57 -14 135.5 -23t144.5 -9q186 0 265.5 56t79.5 194q0 51 -8.5 88t-30 68t-62 47.5t-99.5 18.5q55 5 92 21.5t55.5 45.5t25.5 61t7 78 q0 80 -30 126.5t-101 69.5t-194 23q-133 0 -275 -31l30 -138q38 11 100.5 18t113.5 7q58 0 94 -5.5t57 -18.5t28.5 -31.5t7.5 -48.5q0 -63 -31.5 -87.5t-111.5 -24.5h-118zM654 1213q83 0 149.5 -8.5t126 -28t104 -51.5t80 -79.5t57.5 -111t34 -146t12 -185.5 q0 -146 -23 -253t-66.5 -179t-113.5 -115.5t-156.5 -61.5t-203.5 -18t-204 18t-157 61.5t-113.5 115.5t-66.5 179t-23 253q0 120 15.5 212.5t48 160t77.5 113.5t110 73.5t140.5 39t172.5 11.5z" />
<glyph horiz-adv-x="1308" d="M276 384h428v-220h154v220h114v133h-114v505h-216q-83 -114 -188.5 -285t-177.5 -304v-49zM704 884v-367h-235q42 76 110 184t125 183zM654 1213q83 0 149.5 -8.5t126 -28t104 -51.5t80 -79.5t57.5 -111t34 -146t12 -185.5q0 -146 -23 -253t-66.5 -179t-113.5 -115.5 t-156.5 -61.5t-203.5 -18t-204 18t-157 61.5t-113.5 115.5t-66.5 179t-23 253q0 120 15.5 212.5t48 160t77.5 113.5t110 73.5t140.5 39t172.5 11.5z" />
<glyph horiz-adv-x="1308" d="M916 1018h-530v-479q102 17 211 17q79 0 119 -13t54 -41.5t14 -84.5q0 -54 -15.5 -80.5t-56.5 -38t-124 -11.5q-125 0 -210 26l-31 -140q53 -12 131.5 -21t139.5 -9q95 0 157 13t103.5 46t59 86.5t17.5 134.5q0 99 -28 156t-97 85t-189 28q-47 0 -104 -6v191h379v141z M654 1213q83 0 149.5 -8.5t126 -28t104 -51.5t80 -79.5t57.5 -111t34 -146t12 -185.5q0 -146 -23 -253t-66.5 -179t-113.5 -115.5t-156.5 -61.5t-203.5 -18t-204 18t-157 61.5t-113.5 115.5t-66.5 179t-23 253q0 120 15.5 212.5t48 160t77.5 113.5t110 73.5t140.5 39 t172.5 11.5z" />
<glyph horiz-adv-x="1308" d="M915 869l35 141q-106 33 -238 33q-86 0 -147 -12.5t-108.5 -42t-75.5 -81t-42 -126.5t-14 -181q0 -107 11 -182.5t34.5 -129t63.5 -84.5t93.5 -44.5t129.5 -13.5q90 0 149 13.5t98.5 46.5t56.5 86.5t17 135.5q0 74 -15.5 123t-53 82.5t-98 48t-151.5 14.5q-94 0 -165 -15 q3 71 16.5 113.5t42 65.5t64 30t94.5 7q125 0 203 -28zM811 420q0 -74 -31 -102t-123 -28q-45 0 -72.5 10t-49 37t-31.5 78t-11 132q79 12 149.5 12t106.5 -13.5t49 -42t13 -83.5zM654 1213q83 0 149.5 -8.5t126 -28t104 -51.5t80 -79.5t57.5 -111t34 -146t12 -185.5 q0 -146 -23 -253t-66.5 -179t-113.5 -115.5t-156.5 -61.5t-203.5 -18t-204 18t-157 61.5t-113.5 115.5t-66.5 179t-23 253q0 120 15.5 212.5t48 160t77.5 113.5t110 73.5t140.5 39t172.5 11.5z" />
<glyph horiz-adv-x="1308" d="M466 164h171q74 201 174.5 432.5t201.5 425.5h-666v-141h432q-78 -149 -166.5 -350.5t-146.5 -366.5zM654 1213q83 0 149.5 -8.5t126 -28t104 -51.5t80 -79.5t57.5 -111t34 -146t12 -185.5q0 -146 -23 -253t-66.5 -179t-113.5 -115.5t-156.5 -61.5t-203.5 -18t-204 18 t-157 61.5t-113.5 115.5t-66.5 179t-23 253q0 120 15.5 212.5t48 160t77.5 113.5t110 73.5t140.5 39t172.5 11.5z" />
<glyph horiz-adv-x="1308" d="M654 277q-61 0 -94.5 13t-47.5 41.5t-14 80.5q0 38 8 64t26.5 43t48 24.5t73.5 7.5q86 0 120.5 -31.5t34.5 -107.5t-33 -105.5t-122 -29.5zM654 676q-76 0 -109.5 29t-33.5 94q0 63 31.5 87t111.5 24q53 0 82.5 -10t43 -34t13.5 -67q0 -66 -32.5 -94.5t-106.5 -28.5z M652 146h2q176 0 249 56t73 194q0 51 -8.5 88t-30 68t-62 47.5t-100.5 18.5q56 5 93.5 21.5t56.5 45.5t26.5 61t7.5 78q0 78 -27 124t-94.5 70.5t-185 24.5t-184.5 -24.5t-93 -70.5t-26 -124q0 -46 7 -78t26 -61t56.5 -45.5t93.5 -21.5q-60 -2 -100.5 -18.5t-62 -47.5 t-30 -68t-8.5 -88q0 -138 73 -194t248 -56zM654 1213q83 0 149.5 -8.5t126 -28t104 -51.5t80 -79.5t57.5 -111t34 -146t12 -185.5q0 -146 -23 -253t-66.5 -179t-113.5 -115.5t-156.5 -61.5t-203.5 -18t-204 18t-157 61.5t-113.5 115.5t-66.5 179t-23 253q0 120 15.5 212.5 t48 160t77.5 113.5t110 73.5t140.5 39t172.5 11.5z" />
<glyph horiz-adv-x="1308" d="M649 498q32 0 110 7q-73 -143 -279 -338h200q67 64 116.5 123t94.5 132t68.5 156t23.5 171q0 90 -15 145.5t-53.5 91t-99.5 48.5t-161 13q-90 0 -149.5 -14.5t-98.5 -49.5t-56 -89.5t-17 -137.5q0 -98 29 -153t97 -80t190 -25zM814 733q0 -50 -11 -91q-64 -10 -137 -10 q-54 0 -85 5.5t-50 21t-25 40t-6 66.5q0 39 6 63.5t22.5 42.5t47 26t78.5 8q39 0 63 -3.5t44.5 -13.5t31 -29.5t16 -49.5t5.5 -76zM654 -24q-117 0 -204 18t-157 61.5t-113.5 115.5t-66.5 179t-23 253q0 120 15.5 212.5t48 160t77.5 113.5t110 73.5t140.5 39t172.5 11.5 q83 0 149.5 -8.5t126 -28t104 -51.5t80 -79.5t57.5 -111t34 -146t12 -185.5q0 -146 -23 -253t-66.5 -179t-113.5 -115.5t-156.5 -61.5t-203.5 -18z" />
<glyph horiz-adv-x="1828" d="M947 -326v968q-293 77 -507 77q-44 0 -69 -3t-47 -13t-31 -30.5t-9 -54.5q0 -45 36.5 -64t141.5 -29q161 -17 231.5 -75t70.5 -185q0 -82 -26.5 -139.5t-77.5 -89.5t-116 -46t-151 -14q-73 0 -162 12.5t-148 33.5l45 166q23 -8 54.5 -15.5t65 -13t69.5 -8.5t67 -3 q47 0 76 3.5t52 15t32.5 32.5t9.5 54q0 32 -14.5 51.5t-55.5 32.5t-115 20q-75 6 -126.5 20t-90.5 41.5t-57.5 73t-18.5 111.5t18 116t49.5 82.5t79 52.5t102 28.5t122.5 8.5q115 0 251.5 -18t248.5 -47q69 29 175.5 47t203.5 18q88 0 152.5 -14t116 -45.5t82.5 -84.5 t47.5 -130.5t16.5 -183.5q0 -104 -17.5 -182.5t-48.5 -130.5t-78 -84.5t-103.5 -46t-128.5 -13.5q-109 0 -207 50v-352h-211zM1158 683v-445q0 -37 48.5 -60.5t120.5 -23.5q76 0 117.5 24.5t61 83t19.5 166.5q0 73 -7 121.5t-20 80.5t-38 49t-56 23.5t-78 6.5 q-100 0 -168 -26z" />
<glyph horiz-adv-x="1602" d="M1160 745v-516q-77 -31 -184.5 -49t-198.5 -18q-102 0 -166 12.5t-107 45.5t-60 88t-17 141q0 72 16 124t42 82t69 47.5t86.5 23t105.5 5.5q100 0 213 -24q0 40 -3 66.5t-12 49.5t-23.5 36t-39.5 22.5t-58 12.5t-82 3q-69 0 -120 -3t-97.5 -12.5t-78 -24t-58 -39 t-42.5 -56.5t-27.5 -77.5t-16 -101t-4.5 -127.5q0 -98 9.5 -166.5t33.5 -121.5t59.5 -85t95 -52.5t132 -28t177.5 -7.5q106 0 182.5 9t135.5 31t95.5 55.5t60 87t32.5 119.5t9 159q0 188 -34 284h186q33 -114 33 -288q0 -127 -16.5 -222.5t-53.5 -166.5t-90 -117.5t-134 -75 t-177.5 -40.5t-226.5 -12q-110 0 -196 9t-161 29.5t-130 54t-98 82.5t-69 115.5t-39.5 151.5t-13.5 192q0 93 10 169.5t31.5 137t52 108t73 82t92.5 58.5t113.5 38.5t133 20.5t153.5 6q88 0 152 -9.5t113 -32.5t78 -61t44 -93t15 -131zM959 352v214q-74 15 -160 15 q-44 0 -70.5 -4t-49.5 -16.5t-33 -37.5t-10 -66q0 -52 13.5 -80.5t47 -41t95.5 -12.5q84 0 167 29z" />
<glyph horiz-adv-x="1286" d="M1057 529v-471q-92 -37 -228.5 -59.5t-257.5 -22.5q-112 0 -195.5 18t-145 57.5t-93.5 106.5t-32 162q0 71 12.5 122.5t43 93.5t86 65t137.5 26q-50 5 -88.5 16.5t-65 30.5t-44.5 42t-27.5 54.5t-13.5 64.5t-4 75q0 158 102 230.5t310 72.5q132 0 278 -40l-61 -194 q-91 34 -187 34q-116 0 -160 -31.5t-44 -112.5q0 -84 41.5 -119t142.5 -35h280v145l214 85v-230h228v-186h-228zM843 206v323h-294q-54 0 -91 -9t-62 -30t-36 -55t-11 -85q0 -96 53.5 -134t195.5 -38q60 0 129.5 8t115.5 20z" />
<glyph horiz-adv-x="642" d="M153 1117h459v-184h-239v-1008h239v-181h-459v1373z" />
<glyph horiz-adv-x="796" d="M715 177l47 -156q-33 -14 -78 -24t-91 -15.5t-87 -5.5q-79 0 -141.5 13.5t-116 46.5t-88.5 85t-54.5 131.5t-19.5 184.5q0 104 20 182.5t55 130t88.5 83t115.5 45t141 13.5q63 0 135.5 -11.5t120.5 -29.5l-47 -156q-83 31 -193 31q-80 0 -126 -24.5t-68 -88.5h318v-117 h-340q-1 -17 -1 -62q0 -37 1 -54h340v-116h-320q21 -67 68.5 -94.5t127.5 -27.5q106 0 193 36z" />
<glyph horiz-adv-x="1667" d="M1570 843l-45 -165q-124 41 -252 41q-43 0 -68.5 -3t-47.5 -13t-31 -30.5t-9 -54.5q0 -45 36.5 -64t142.5 -29q160 -17 230 -75t70 -185q0 -82 -26 -139.5t-77 -89.5t-115.5 -46t-151.5 -14q-73 0 -162 12.5t-148 33.5l44 166q32 -11 75 -20t91.5 -14.5t90.5 -5.5 q93 0 131.5 20.5t38.5 84.5q0 24 -7.5 40.5t-28 29.5t-57 21t-92.5 13q-75 6 -126.5 20t-90.5 41.5t-57 73t-18 111.5q0 56 12 99.5t35.5 75t55 53.5t74 35t89.5 19t104 6q68 0 147 -13t143 -35zM738 843l-46 -165q-123 41 -252 41q-44 0 -69 -3t-47 -13t-31 -30.5t-9 -54.5 q0 -45 36.5 -64t141.5 -29q161 -17 231.5 -75t70.5 -185q0 -82 -26.5 -139.5t-77.5 -89.5t-116 -46t-151 -14q-73 0 -162 12.5t-148 33.5l45 166q23 -8 54.5 -15.5t65 -13t69.5 -8.5t67 -3q47 0 76 3.5t52 15t32.5 32.5t9.5 54q0 32 -14.5 51.5t-55.5 32.5t-115 20 q-75 6 -126.5 20t-90.5 41.5t-57.5 73t-18.5 111.5t18 116t49.5 82.5t79 52.5t102 28.5t122.5 8.5q69 0 147.5 -13t143.5 -35z" />
<glyph horiz-adv-x="871" d="M55 345v153h84v85q0 152 96.5 230t301.5 78q154 0 289 -41l-44 -172q-43 14 -112.5 23t-132.5 9q-109 0 -151 -33.5t-42 -105.5v-73h261v-153h-261v-168h451v-177h-656v345h-84z" />
<glyph horiz-adv-x="827" d="M85 374v103h171q-175 244 -297 388h242q92 -107 224 -301q95 116 214 301h230q-129 -196 -279 -388h153v-103h-216v-105h216v-105h-216v-164h-211v164h-231v105h231v105h-231z" />
<glyph horiz-adv-x="952" d="M476 -24q-95 0 -162.5 22.5t-117 74.5t-73.5 142t-24 222q0 104 16.5 182.5t46.5 130t77.5 83t104.5 45t132 13.5t132.5 -13.5t105 -45t78 -83t47 -130t16.5 -182.5q0 -132 -24.5 -222t-74.5 -142t-117.5 -74.5t-162.5 -22.5zM475.5 720q-37.5 0 -61.5 -6t-44.5 -23 t-31.5 -49.5t-17 -83t-6 -125.5q0 -90 8.5 -146t29 -87.5t49 -42.5t74.5 -11q47 0 75.5 11t49 42.5t28.5 87.5t8 146q0 75 -6 125.5t-17 83t-32 49.5t-45 23t-61.5 6z" />
<glyph horiz-adv-x="952" d="M670 0h-211v615l-266 -120l-62 176l539 220v-891z" />
<glyph horiz-adv-x="952" d="M156 657l-51 195q67 16 165.5 27.5t178.5 11.5q142 0 225 -29t118.5 -87t35.5 -157q0 -63 -17.5 -112.5t-63.5 -103.5t-128 -109t-211 -121h435v-172h-744v154q102 63 172.5 107.5t126.5 82t90 65t57 49.5t33.5 42.5t14.5 38t4 40.5q0 66 -40 93t-144 27 q-59 0 -138.5 -12.5t-118.5 -29.5z" />
<glyph horiz-adv-x="952" d="M549 206h-502v80q76 118 197.5 284t227.5 295h279v-492h154v-167h-154v-206h-202v206zM549 373v333q-162 -205 -246 -333h246z" />
<glyph horiz-adv-x="952" d="M156 865h658v-175h-447v-156q102 5 124 5q195 0 274.5 -61t79.5 -211q0 -83 -25 -139.5t-79 -90t-130 -47.5t-188 -14q-79 0 -171.5 8.5t-147.5 23.5l40 174q42 -14 123 -22.5t141 -8.5q125 0 174.5 24t49.5 86q0 70 -45.5 96.5t-164.5 26.5q-127 0 -266 -17v498z" />
<glyph horiz-adv-x="952" d="M887 256q0 -81 -23 -135.5t-73 -86.5t-119.5 -45t-171.5 -13q-68 0 -119 7.5t-98 26t-79 51.5t-55.5 83.5t-35 122.5t-11.5 166q0 130 30 220t91 141.5t142.5 74t193.5 22.5q154 0 304 -43l-47 -173q-131 39 -252 39q-72 0 -117.5 -9t-77.5 -31.5t-45.5 -60.5t-15.5 -98 q119 20 224 20q96 0 160 -13t109.5 -45t65.5 -86t20 -135zM671 260q0 52 -16 79t-52.5 38t-107.5 11q-96 0 -187 -15q0 -50 6.5 -88.5t18.5 -64t27 -42t37 -25.5t44.5 -12t51.5 -3q104 0 141 26t37 96z" />
<glyph horiz-adv-x="952" d="M85 865h823v-41q-81 -119 -161.5 -261.5t-148.5 -283.5t-124 -279h-245q82 180 184 363t194 318h-522v184z" />
<glyph horiz-adv-x="952" d="M476 141q109 0 148 25.5t39 91.5q0 67 -43 92.5t-144 25.5q-68 0 -107.5 -10.5t-59 -36.5t-19.5 -71q0 -66 38.5 -91.5t147.5 -25.5zM476 -24q-116 0 -189.5 11.5t-122.5 41t-69 77.5t-20 123q0 105 52.5 163.5t177.5 64.5q-50 4 -86 16t-59.5 30t-37.5 44t-19.5 55 t-5.5 66q0 64 16.5 104.5t59.5 68t115.5 39t187.5 11.5t187.5 -11.5t115.5 -39t59.5 -68t16.5 -104.5q0 -37 -5.5 -66t-19 -55t-36.5 -44t-59.5 -30t-85.5 -16q52 -2 91 -14t65 -31.5t42.5 -48t23 -61t6.5 -73.5q0 -75 -20 -123t-68.5 -77.5t-122.5 -41t-190 -11.5zM476 539 q64 0 100 8.5t53.5 29.5t17.5 58.5t-15 57.5t-51.5 29t-104.5 9t-104 -9t-51 -29t-15 -57q0 -55 38 -76t132 -21z" />
<glyph horiz-adv-x="952" d="M413 311q-71 0 -124.5 9t-95 29t-67 53t-38.5 80.5t-13 112.5q0 81 23.5 137.5t73 91.5t121.5 51t174 16q114 0 189 -16.5t126.5 -57t74 -108t22.5 -170.5q0 -66 -19.5 -128t-49 -112t-79.5 -105.5t-95 -97t-112 -96.5h-281q90 69 165.5 132.5t127 115.5t64.5 80 q-133 -17 -187 -17zM658 551q0 54 -9.5 88.5t-32.5 54.5t-56 28t-84 8q-73 0 -113 -15t-54.5 -42.5t-14.5 -77.5q0 -75 33 -97t140 -22q82 0 170 12q21 37 21 63z" />
<glyph horiz-adv-x="952" d="M300 378v157h133q94 0 132 19t38 68.5t-37 68.5t-144 19q-155 0 -271 -37l-42 184q141 34 316 34q153 0 239 -22t123 -69.5t37 -131.5q0 -26 -2.5 -48t-9.5 -43t-17.5 -37.5t-27 -31t-38 -24.5t-50.5 -17t-64 -10q125 -6 176.5 -64t51.5 -164q0 -59 -15.5 -102 t-46.5 -72.5t-82.5 -46.5t-118 -24.5t-158.5 -7.5q-179 0 -320 32l44 190q115 -42 271 -42q82 0 125.5 11.5t59.5 35t16 68.5q0 60 -42 83.5t-143 23.5h-133z" />
<glyph horiz-adv-x="725" d="M-13 865h230l524 -865h-230z" />
<glyph horiz-adv-x="725" d="M510 865h231l-525 -865h-229z" />
<glyph horiz-adv-x="629" d="M204 1120h223v-1381h-223v1381z" />
<glyph horiz-adv-x="642" d="M31 1117h459v-1373h-459v181h240v1008h-240v184z" />
<glyph horiz-adv-x="718" d="M347 891h114v-129q85 -6 147 -26l-39 -126q-42 18 -108 21v-381q62 6 108 24l39 -125q-51 -21 -147 -32v-141h-114v144q-126 16 -193.5 91.5t-67.5 232.5q0 154 67.5 228t193.5 87v132zM253 440q0 -53 11.5 -91t32.5 -59t50 -25v352q-45 -7 -69.5 -51t-24.5 -126z" />
<glyph horiz-adv-x="585" d="M292 891q68 0 112.5 -12t76 -42.5t45.5 -82.5t14 -132q0 -107 -26.5 -168t-79 -85.5t-142.5 -24.5q-89 0 -141.5 24.5t-79.5 85.5t-27 168q0 80 14 132t46 82t76.5 42.5t111.5 12.5zM292 459q57 0 74.5 32.5t17.5 129.5t-17.5 126.5t-74.5 29.5q-38 0 -57 -12.5 t-27.5 -45t-8.5 -98.5q0 -96 19 -129t74 -33z" />
<glyph horiz-adv-x="805" d="M702 857l-40 -133q-101 30 -218 30q-82 0 -125 -15t-43 -54q0 -23 13 -35.5t47.5 -20t103.5 -12.5q148 -12 221.5 -56t73.5 -138q0 -65 -54 -124q39 -39 39 -107q0 -115 -91 -165.5t-269 -50.5q-144 0 -256 32l40 135q37 -15 97.5 -24t120.5 -9q28 0 55 3.5t53.5 11 t43 22.5t16.5 35q0 32 -32.5 46.5t-132.5 21.5q-148 12 -221 56.5t-73 137.5q0 71 49 125q-35 41 -35 106q0 114 91.5 165t269.5 51q142 0 256 -34zM269 506q-18 -23 -18 -47q0 -32 37 -48.5t118 -24.5q63 -7 134 -24q16 22 16 50q0 15 -9 26t-29 19.5t-49.5 14.5t-74.5 11 q-76 8 -125 23z" />
<glyph horiz-adv-x="890" d="M587 712v-1038h-130v632h-22v-632h-129v1038q-37 -1 -49 -17t-12 -64v-325h-160v330q0 49 6 83t22.5 60.5t41.5 42t67.5 26t94.5 14t129 3.5q76 0 128.5 -4t94.5 -14t67 -26t41.5 -42.5t22.5 -60t6 -82.5v-330h-160v325q0 48 -11 64t-48 17zM446 1226q53 0 83.5 -5 t53 -21.5t30.5 -46t8 -79.5q0 -55 -8 -88.5t-30 -52t-53 -25t-84 -6.5q-44 0 -72.5 4t-51 14.5t-34 30t-17.5 49t-6 74.5q0 50 8 79.5t31 46t54.5 21.5t87.5 5z" />
<glyph horiz-adv-x="890" d="M551 712v-406q177 -411 306 -632h-823q216 472 306 632v406q-61 -1 -78 -16.5t-17 -64.5v-325h-126v330q0 49 6 83t21.5 60.5t38.5 42.5t61.5 26t85 13.5t114.5 3.5q57 0 99 -3t78 -9.5t60 -18.5t42 -29t27.5 -41.5t14.5 -55.5t5 -72v-330h-126v325q0 49 -16.5 64.5 t-78.5 16.5zM446 1226q53 0 83.5 -5t53 -21.5t30.5 -46t8 -79.5q0 -55 -8 -88.5t-30 -52t-53 -25t-84 -6.5q-44 0 -72.5 4t-51 14.5t-34 30t-17.5 49t-6 74.5q0 50 8 79.5t31 46t54.5 21.5t87.5 5z" />
<glyph horiz-adv-x="2153" d="M758 865q10 -45 40.5 -95.5t75.5 -97t109 -76.5t132 -30l-24 -136q-124 0 -227 62.5t-150 169.5l-83 -390q69 -1 123.5 -18.5t97.5 -54.5t63.5 -95t22.5 -139.5t-25 -188.5h-143q36 135 25 218.5t-77.5 120t-206.5 36.5q-41 -146 -104 -234t-152 -128t-218 -40l31 131 q56 0 99 14t83 49t70 100t50 160l111 522q-30 0 -60.5 -15t-60.5 -47.5t-55.5 -92.5t-39.5 -140h-139q21 83 42 144.5t53 118.5t71 93t93.5 57.5t122.5 21.5h250zM2116 498l-463 -435l-93 97l278 270h-660l22 136h638l-278 271l93 96zM901 902h-126q-44 0 -72 4t-50.5 14.5 t-34 30t-17.5 49t-6 74.5q0 50 8 79.5t31 46t54.5 21.5t86.5 5q35 0 60 -2.5t47.5 -8.5t34 -17t20.5 -28t7.5 -40.5t-6.5 -55.5z" />
<glyph horiz-adv-x="1449" d="M1424 0h-211l-365 365v-691h-112v632h-22v-632h-112v691l-365 -365h-211l338 344v292q0 120 48 168l-380 380h226l318 -324q64 5 148 5q92 0 147 -7l321 326h226l-381 -381q48 -46 48 -167v-291zM724 1226q53 0 83.5 -5t53 -21.5t30.5 -46t8 -79.5q0 -55 -8 -88.5 t-30 -52t-53 -25t-84 -6.5q-44 0 -72 4t-50.5 14.5t-34.5 30t-17.5 49t-5.5 74.5q0 50 8 79.5t30.5 46t54 21.5t87.5 5zM524 631v-125l78 81v26l-72 70q-6 -12 -6 -52zM925 631q0 37 -7 52l-70 -70v-26l77 -79v123z" />
<glyph horiz-adv-x="2153" d="M1395 865q-10 -45 -40.5 -95.5t-75.5 -97t-109 -76.5t-132 -30l24 -136q125 0 228 62.5t150 169.5l83 -390q-70 -1 -124.5 -18.5t-97 -54.5t-63 -95t-22.5 -139.5t25 -188.5h143q-36 135 -25 218.5t77 120t206 36.5q62 -216 172.5 -309t301.5 -93l-30 131q-56 0 -99.5 14 t-83.5 49t-70 100t-50 160l-111 522q31 0 61 -15t60 -47.5t55.5 -92.5t39.5 -140h140q-21 83 -42.5 144.5t-53 118.5t-70.5 93t-94 57.5t-123 21.5h-250zM37 498l464 -435l92 97l-277 270h660l-22 136h-638l277 271l-92 96zM1252 902h127q55 0 86.5 6.5t54 25t31 51.5 t8.5 89q0 50 -8.5 79.5t-31 46t-54 21.5t-86.5 5q-36 0 -60.5 -2.5t-47 -8.5t-34.5 -17t-21 -28t-7.5 -40.5t6.5 -55.5z" />
<glyph horiz-adv-x="1162" d="M724 -326v1038q26 -1 38.5 -8.5t17 -23.5t4.5 -49v-325h160v330q0 48 -6.5 82t-23 60.5t-41.5 42.5t-67 26t-94.5 14t-128.5 4q-77 0 -129 -3.5t-94.5 -14t-67 -26t-41 -42t-23 -60.5t-6.5 -83v-330h161v325q0 48 11.5 64t49.5 17v-1038h129v632h22v-632h129zM583 1226 q-56 0 -87.5 -5t-54 -21.5t-30.5 -46t-8 -79.5q0 -56 8 -89t30.5 -51.5t54.5 -25t87 -6.5q53 0 84 6.5t52.5 25t30 52t8.5 88.5q0 50 -8 79.5t-30.5 46t-53 21.5t-83.5 5zM936 -394h-710q-53 0 -84 6t-53 25t-30 52t-8 89v1364q0 50 8 79.5t30 46t52.5 21.5t84.5 5h710 q54 0 84.5 -5t52.5 -21.5t30 -46t8 -79.5v-1364q0 -56 -8 -89t-30 -52t-53 -25t-84 -6z" />
<glyph horiz-adv-x="1162" d="M688 306v406q62 -1 79 -16.5t17 -64.5v-325h126v330q0 48 -6 82t-22 60.5t-39 42.5t-61 26t-85 14t-114 4q-58 0 -100 -3t-78 -9.5t-59.5 -18t-41.5 -28.5t-28 -42t-15 -55.5t-5 -72.5v-330h127v325q0 49 16.5 64.5t77.5 16.5v-406q-85 -152 -305 -632h822 q-131 226 -306 632zM583 1226q-56 0 -87.5 -5t-54 -21.5t-30.5 -46t-8 -79.5q0 -56 8 -89t30.5 -51.5t54.5 -25t87 -6.5q53 0 84 6.5t52.5 25t30 52t8.5 88.5q0 50 -8 79.5t-30.5 46t-53 21.5t-83.5 5zM936 -394h-710q-53 0 -84 6t-53 25t-30 52t-8 89v1364q0 50 8 79.5 t30 46t52.5 21.5t84.5 5h710q54 0 84.5 -5t52.5 -21.5t30 -46t8 -79.5v-1364q0 -56 -8 -89t-30 -52t-53 -25t-84 -6z" />
<glyph horiz-adv-x="2333" d="M2108 -394h-1882q-53 0 -84 6t-53 25t-30 52t-8 89v1364q0 50 8 79.5t30 46t52.5 21.5t84.5 5h1882q54 0 84.5 -5t52.5 -21.5t29.5 -46t7.5 -79.5v-1364q0 -56 -8 -89t-29.5 -52t-52.5 -25t-84 -6zM858 865h-250q-68 0 -122.5 -21.5t-93.5 -57.5t-71 -93t-53.5 -118.5 t-41.5 -144.5h139q15 80 40 140t55 92.5t60 47.5t61 15l-110 -522q-20 -95 -50 -160t-70 -100t-83.5 -49t-99.5 -14l-30 -131q191 0 301.5 92.5t172.5 309.5q139 0 205.5 -36.5t77.5 -120t-24 -218.5h142q25 105 25 188.5t-22 140t-64 94t-96.5 55t-124.5 18.5l83 390 q47 -107 150 -169.5t228 -62.5l23 136q-68 0 -132 30t-109 76.5t-75.5 97t-40.5 95.5zM1752 63l465 435l-465 435l-91 -96l277 -271h-637l-23 -136h660l-277 -270zM876 902h125l37 172q5 32 7 55.5t-7 40.5t-21 28t-34 17t-47 8.5t-60 2.5q-56 0 -87.5 -5t-54 -21.5 t-30.5 -46t-8 -79.5q0 -56 8 -89t30.5 -51.5t54.5 -25t87 -6.5z" />
<glyph horiz-adv-x="2333" d="M226 -394h1882q53 0 84 6t52.5 25t29.5 52t8 89v1364q0 50 -7.5 79.5t-29.5 46t-52.5 21.5t-84.5 5h-1882q-54 0 -84.5 -5t-52.5 -21.5t-30 -46t-8 -79.5v-1364q0 -56 8 -89t30 -52t53 -25t84 -6zM1476 865h250q56 0 103.5 -14t84.5 -42.5t66 -64.5t52.5 -87.5t41 -105 t34.5 -121.5h-139q-15 80 -40 140t-55.5 92.5t-60.5 47.5t-61 15l111 -522q20 -95 50 -160t70 -100t83.5 -49t98.5 -14l31 -131q-191 0 -301.5 92.5t-172.5 309.5q-139 0 -205.5 -36.5t-77.5 -120t24 -218.5h-142q-25 105 -25 188.5t22 140t64 94t96.5 55t124.5 18.5 l-83 390q-47 -107 -150 -169.5t-228 -62.5l-23 136q67 0 131.5 30t109.5 76.5t75.5 97t40.5 95.5zM581 63l-464 435l464 435l92 -96l-277 -271h637l23 -136h-660l277 -270zM1458 902h-125l-37 172q-6 27 -6.5 48.5t3.5 37.5t13.5 27.5t23 19t34 11.5t42.5 6t52 2 q56 0 87.5 -5t54 -21.5t30.5 -46t8 -79.5q0 -56 -8 -89t-30.5 -51.5t-54.5 -25t-87 -6.5z" />
<glyph horiz-adv-x="1631" d="M1406 -394h-1180q-53 0 -84 6t-53 25t-30 52t-8 89v1364q0 50 8 79.5t30 46t52.5 21.5t84.5 5h1180q53 0 84 -5t53 -21.5t30 -46t8 -79.5v-1364q0 -56 -8 -89t-30 -52t-53 -25t-84 -6zM1304 0h211l-341 345v291q0 62 -10.5 102t-36.5 65l381 381h-226l-322 -326 q-54 7 -146 7q-84 0 -148 -5l-317 324h-227l379 -380q-13 -13 -22 -29.5t-14.5 -38t-8 -45.5t-2.5 -55v-292l-339 -344h211l366 365v-691h112v632h22v-632h112v691zM814 1226q-55 0 -86.5 -5t-54.5 -21.5t-31 -46t-8 -79.5q0 -56 8.5 -89t31 -51.5t54 -25t86.5 -6.5 q53 0 84 6.5t53 25t30 52t8 88.5q0 50 -8 79.5t-30 46t-52.5 21.5t-84.5 5zM613 506v125q0 39 8 52l71 -70v-26zM1015 631v-123l-77 79v26l70 70q7 -17 7 -52z" />
<glyph horiz-adv-x="1815" d="M290 568h79l34 -216h499l36 216h79l-145 -894h-437zM1494 306l-129 559h-857l24 -135h617l98 -424l-102 -632h113l102 632h22v-632h112v632zM1037 902h126q55 0 87 6.5t54 25t30.5 51.5t8.5 89q0 50 -8 79.5t-31 46t-54.5 21.5t-86.5 5q-35 0 -60 -2.5t-47.5 -8.5 t-34.5 -17t-21 -28t-7.5 -40.5t6.5 -55.5zM583 701q70 -79 272 -79l-141 -207q-38 3 -77.5 23.5t-67.5 48t-46 55.5t-18 46q0 16 12 36.5t26 36t27 27.5t13 13zM417 276l32 -208h166v208h-198zM692 276v-208h165l34 208h-199zM462 -8l39 -242h114v242h-153zM692 -8v-242h114 l39 242h-153z" />
<glyph horiz-adv-x="1815" d="M51 435q0 116 30.5 227t86 205t135 173t173.5 134.5t205 86t227 30.5t227 -30.5t205 -86t173 -134.5t134.5 -173t86.5 -205t31 -227q0 -100 -22.5 -196t-65 -180.5t-101 -159t-133 -133t-159 -101t-180.5 -65t-196 -22.5t-196 22.5t-180.5 65t-159 101t-133 133t-101 159 t-65 180.5t-22.5 196zM908 1256q109 -70 196 -142t164 -153.5t153 -183.5q-237 -306 -513 -480v274q-279 -176 -514 -479q114 -152 233.5 -263.5t280.5 -216.5v271q195 9 347.5 61.5t242 134t144.5 184.5t55.5 215t-26.5 223t-100 211t-166 176.5t-223.5 122t-273.5 45.5z M908 1256q-96 0 -188 -21.5t-173.5 -62t-153 -96.5t-128 -127.5t-97.5 -152t-63 -173t-22 -188.5q0 -163 61 -310.5t171 -258.5q-67 71 -113 156.5t-68.5 175t-17.5 181t34 176.5t93 160.5t154 133t221 94t290 43.5v270zM906 -388q-35 0 -107 7q72 -7 107 -7z" />
<glyph horiz-adv-x="1815" d="M1497 -326h-1179q-53 0 -84 5.5t-53 22t-30 47t-8 81.5v1246q0 45 8 71.5t30 41.5t53 19.5t84 4.5h1179q43 0 70 -3t49 -11t33.5 -23.5t17 -39.5t5.5 -60v-1246q0 -41 -5.5 -68t-17 -45t-33.5 -27t-49 -12.5t-70 -3.5zM331 -274h1153q33 0 52 1t36 6t24.5 12.5t13.5 23.5 t7 35.5t1 52.5v1190q0 30 -1 47t-7 31.5t-13 21t-25 10.5t-36 5t-52 1h-1153q-34 0 -52 -1t-36 -5t-25 -10.5t-13.5 -21t-7.5 -31.5t-1 -47v-1190q0 -24 0.5 -40.5t3.5 -31t6.5 -23.5t12 -16t17 -10.5t24 -6t31 -3t40.5 -0.5zM383 -134v66h268q-34 15 -58 49t-37 74.5 t-24 86.5t-23 87.5t-28.5 73.5t-46.5 48.5t-72 10.5q35 15 66.5 21t57 3.5t50 -14.5t42.5 -25.5t38.5 -36.5t34.5 -42t32 -47q-15 42 -28 119.5t-23 150t-24.5 142.5t-41.5 116t-66 52q58 9 104.5 -8t75.5 -44.5t54.5 -81t38 -93t30.5 -105.5q-4 46 3 125.5t14 150t9 141 t-16 120t-59 65.5q59 -5 102 -26t67.5 -53t40 -75t21 -88t9 -96t4.5 -96t7 -91t18 -77q5 10 14 31q23 50 34.5 76.5t30 72t25 73.5t11.5 60.5t-2 56t-23 38.5q64 -32 95 -83.5t32 -106.5t-12 -122t-33 -124.5t-36 -118.5t-15 -100q0 -6 -4 -19q13 10 30 23.5t30 23.5 t28.5 22.5t26.5 22.5t22.5 22t18.5 22t12.5 22t6.5 22.5t-1.5 22t-9.5 22.5q49 -33 68 -70.5t12.5 -71.5t-26.5 -74.5t-45 -75t-47.5 -77.5t-29.5 -78q-2 -29 -31 -49h243v-66h-1065zM803 70q27 -23 7.5 -69.5t-65.5 -68.5h314q-41 24 -44 75q-4 72 73 149 q-40 -14 -79.5 3.5t-54.5 69.5q-11 39 20 123q-13 -7 -27 -11t-30 -3.5t-31 6t-30.5 17t-27.5 28.5q-1 1 -3 3.5t-2 3.5q25 -90 56 -131q9 -12 10.5 -28t-4.5 -31.5t-16.5 -30.5t-26.5 -24.5t-34 -14t-40 0t-43 19.5q43 -60 78 -86z" />
<glyph horiz-adv-x="1815" d="M905 452q0 -86 41 -154.5t113.5 -111t167.5 -65t206 -22.5q93 0 158 8v-156q-56 -39 -131 -69t-158.5 -49t-173 -29t-179.5 -10q-137 0 -265.5 33.5t-232.5 94.5t-182.5 141.5t-121.5 180.5t-43 207t43 207.5t121.5 181.5t182.5 142t232.5 94.5t265.5 33.5 q122 0 238 -16.5t223.5 -52.5t180.5 -87v-155q-65 9 -158 9q-88 0 -166.5 -14t-145 -43.5t-114.5 -71t-75 -99.5t-27 -128zM412 2v613q0 57 6 90.5t24.5 55.5t49.5 30t82 8q75 0 108 -41t33 -140q0 -66 -16 -105t-53.5 -57t-101.5 -18q-69 0 -107 31v-112q27 -15 52 -22 t67 -7q144 0 221.5 72t77.5 221q0 146 -75.5 218t-216.5 72q-61 0 -111 -14t-90.5 -44.5t-63 -84.5t-22.5 -127v-536zM1591 590v-408h-170v408h-163v124h497v-124h-164z" />
<glyph horiz-adv-x="1815" d="M90 7l677 1171q58 97 144 97q41 0 79 -25t66 -72l670 -1171q30 -49 30 -104q0 -31 -12 -57.5t-34 -46t-55 -30.5t-74 -11h-1344q-82 0 -129.5 40.5t-47.5 104.5q0 51 30 104zM1001 991h-190l42 -744h107zM908 112q-30 0 -47 -3t-30 -12.5t-18 -27.5t-5 -48q0 -26 3.5 -43 t10.5 -28.5t19.5 -17.5t28 -8t38.5 -2q59 0 79.5 18.5t20.5 80.5q0 58 -20 74.5t-80 16.5z" />
<glyph horiz-adv-x="1815" d="M457 321h322q0 -35 18 -65t48 -48l-160 -278q-104 59 -166 163t-62 228zM908 770q122 0 224 -61l-158 -277q-28 17 -66 17q-34 0 -63 -17l-160 278q103 60 223 60zM1358 321q0 -121 -61 -224.5t-163 -162.5l-160 277q28 17 45.5 46.5t17.5 63.5h321zM767 1178l-677 -1171 q-30 -53 -30 -104q0 -64 47.5 -104.5t129.5 -40.5h1344q81 0 128 40.5t47 104.5q0 55 -30 104l-670 1171q-28 47 -66 72t-79 25q-86 0 -144 -97zM153 10l651 1125q14 22 18 27.5t14 20t15.5 18t15.5 10t20.5 8t23.5 1.5q36 0 55.5 -17.5t51.5 -67.5l644 -1125q35 -52 35 -88 q0 -57 -26.5 -83t-92.5 -26h-1338q-66 0 -93 26t-27 83q0 35 33 88z" />
<glyph horiz-adv-x="1815" d="M1554 -114v170q-135 0 -237.5 83.5t-127.5 210.5h313v161h-313q28 127 130 211t235 84v172q-112 0 -213 -43.5t-174 -117t-116 -174.5t-43 -213q0 -89 27.5 -172.5t77.5 -150t117 -116.5t150.5 -77.5t173.5 -27.5zM799 -114v170q-103 0 -189 50t-135.5 136t-49.5 188 t49.5 188.5t136 137t188.5 50.5v172q-111 0 -212.5 -43.5t-174.5 -117t-116 -174.5t-43 -213q0 -89 27.5 -172.5t78 -150t117.5 -116.5t150.5 -77.5t172.5 -27.5z" />
<glyph horiz-adv-x="1815" d="M68 -158v967q0 108 49.5 163t171.5 55h405v-148h-397q-25 0 -40 -8.5t-21.5 -23.5t-6.5 -38v-314h398q12 116 64 219t132 177t189 117t229 43q192 0 350 -108t221 -277h-158q-35 77 -96.5 134t-143 88.5t-173.5 31.5q-100 0 -188 -40t-149.5 -106.5t-97.5 -156 t-36 -187.5q0 -99 35.5 -189t97.5 -155.5t150 -104.5t188 -39q138 0 248 67t164 181h159q-64 -166 -222 -271.5t-349 -105.5q-161 0 -296.5 71.5t-219.5 197.5t-99 283h-397v-523h-161zM978 430q0 -114 75 -190t188 -76q86 0 150 44.5t81 124.5h148q-20 -90 -72.5 -159.5 t-132 -109.5t-174.5 -40q-115 0 -205 52.5t-139.5 145t-49.5 208.5t49.5 209t139.5 146t205 53q143 0 246.5 -87.5t134.5 -225.5h-150q-16 81 -80.5 127.5t-150.5 46.5q-113 0 -188 -77.5t-75 -191.5z" />
<glyph horiz-adv-x="1815" d="M865 430q0 -89 58 -152.5t146 -63.5q55 0 99 23l24 -54q-63 -32 -123 -32q-124 0 -197.5 80t-73.5 199q0 117 73.5 197t197.5 80q69 0 123 -32l-24 -54q-41 23 -99 23q-87 0 -145.5 -63.5t-58.5 -150.5zM775 618l-231 -378h-88v378h66v-300l175 300h78zM998 430 q0 -49 19 -68.5t60 -19.5q28 0 38 3l22 -53q-27 -11 -60 -11t-60.5 11.5t-46 31.5t-29 47.5t-10.5 58.5q0 41 17.5 75t51 55t77.5 21q26 0 60 -15l-20 -51q-15 5 -40 5q-40 0 -59.5 -21t-19.5 -69zM1336 618v-378h-63v378h63zM277 428q0 -144 12.5 -251.5t30.5 -120.5 q25 -20 182 -32t406 -12q164 0 292 5.5t203 16t91 24.5q42 29 42 370q0 146 -10.5 251.5t-28.5 119.5q-51 44 -589 44q-168 0 -290.5 -4.5t-200 -14.5t-94.5 -25q-46 -29 -46 -371zM212 428q0 166 14 280.5t39 139.5q30 26 203.5 43t439.5 17q180 0 322.5 -8.5t224.5 -22.5 t99 -32q19 -17 34 -138t15 -279q0 -166 -14 -281t-39 -137q-25 -26 -202 -44t-440 -18q-266 0 -442 17.5t-203 42.5q-20 19 -35.5 141t-15.5 279zM94 428q0 -130 6 -246t16.5 -191t22.5 -88q68 -56 769 -56q699 0 766 58q23 24 35.5 170t12.5 353q0 196 -13 349.5t-30 172.5 q-69 58 -771 58q-337 0 -533 -13t-232 -41q-25 -27 -37 -170.5t-12 -355.5zM26 428q0 149 7.5 269.5t22.5 200.5t36 103q38 33 251 50.5t565 17.5q356 0 570 -18.5t251 -52.5q12 -12 23 -62t19.5 -124.5t13.5 -175t5 -208.5q0 -223 -17 -380.5t-47 -190.5 q-37 -32 -254.5 -51.5t-563.5 -19.5q-349 0 -566.5 18.5t-253.5 51.5q-25 26 -43.5 192t-18.5 380z" />
<glyph horiz-adv-x="1815" d="M877 712q-44 0 -96.5 -50t-52.5 -103q0 -69 15 -194t36 -166q21 -44 62 -68t82 -24q28 0 100.5 62.5t157.5 154.5t154.5 171.5t116.5 136.5q35 -100 35 -202q0 -118 -46 -225.5t-123.5 -185t-185 -123t-226 -45.5t-226 45.5t-185 123t-123.5 185t-46 225.5t46 226 t123.5 186t185 124t225.5 46q91 0 175.5 -27t154 -76t122.5 -116q-25 -42 -99.5 -130t-156 -164t-111.5 -76q-10 0 -26 41.5t-26 100.5t-4 100q1 12 -4.5 22.5t-19 17.5t-34.5 7z" />
</font>
</defs>
</svg>
